<svg width="880" height="460" viewBox="0 0 880 460" fill="none" xmlns="http://www.w3.org/2000/svg">
<path d="M358.195 340.24L358.304 330.384L375.939 329.942L376.021 322.274L358.386 322.717L358.5 313.463L378.462 312.965L378.476 305.04L349.78 305.776L349.623 319.976C349.999 320.3 350.311 320.708 350.539 321.175C350.927 322.023 351.075 322.991 350.965 323.954C350.786 325.95 349.984 327.891 349.886 329.838C349.891 330.003 349.852 330.168 349.775 330.312C349.697 330.456 349.584 330.573 349.45 330.647L349.366 348.37L378.768 347.623L378.877 339.652L358.195 340.24Z" fill="#0A0A0A"/>
<path d="M411.039 333.117C413.359 332.043 415.359 330.217 416.777 327.88C418.194 325.543 418.962 322.804 418.979 320.024C418.809 320.162 418.603 320.232 418.396 320.22C418.231 320.201 418.077 320.128 417.953 320.008C417.828 319.889 417.74 319.729 417.699 319.55C417.601 319.013 417.572 318.461 417.611 317.909C417.626 317.83 417.637 317.768 417.652 317.689C417.463 317.269 417.357 316.806 417.34 316.33C417.351 316.079 417.448 315.839 417.609 315.659C417.77 315.478 417.985 315.372 418.208 315.36C418.298 315.351 418.387 315.364 418.47 315.397C418.553 315.43 418.628 315.482 418.691 315.55C417.265 308.34 411.419 304.129 402.716 304.356L386.281 304.769L386.139 317.624C386.293 317.737 386.4 317.915 386.437 318.119C387.216 321.462 387.443 324.956 387.107 328.433C387.095 328.684 386.999 328.924 386.838 329.104C386.676 329.285 386.462 329.392 386.238 329.403C386.157 329.404 386.077 329.388 386.002 329.358L385.773 347.475L394.563 347.248L394.693 335.399L402.775 335.182L409.957 346.862L419.398 346.615L411.039 333.117ZM401.943 327.323L394.706 327.555L394.865 312.723L402.102 312.49C407.465 312.352 410.157 315.014 410.104 319.698C410.051 324.382 407.309 327.25 401.943 327.323Z" fill="#0A0A0A"/>
<path d="M450.923 332.097C453.322 330.985 455.377 329.073 456.803 326.627C458.229 324.182 458.954 321.325 458.878 318.455C458.988 308.908 452.717 303.17 442.569 303.428L426.131 303.857L425.65 346.421L434.436 346.21L434.569 334.345L442.651 334.129L449.847 345.811L459.288 345.564L450.923 332.097ZM441.825 326.319L434.588 326.552L434.763 311.706L441.931 311.46C442.379 311.449 442.807 311.466 443.205 311.494L443.515 311.293C443.583 311.063 443.672 310.841 443.781 310.63C443.921 310.375 444.128 310.174 444.372 310.054C444.616 309.935 444.885 309.904 445.14 309.965C445.623 310.116 446.065 310.389 446.432 310.766C446.522 310.681 446.627 310.618 446.739 310.581C446.8 310.281 446.888 309.988 447 309.706C447.122 309.497 447.31 309.346 447.524 309.285C447.737 309.223 447.961 309.256 448.149 309.375C448.336 309.495 448.472 309.693 448.53 309.927C448.587 310.162 448.56 310.416 448.456 310.635C448.157 311.325 448.344 312.027 448.154 312.754C448.102 312.926 448.024 313.087 447.923 313.229C448.61 313.892 449.147 314.728 449.493 315.673C449.838 316.618 449.983 317.647 449.916 318.681C449.93 323.313 447.188 326.181 441.825 326.319Z" fill="#0A0A0A"/>
<path d="M497.16 305.689L496.706 305.732C496.597 305.752 496.489 305.786 496.386 305.833C496.338 305.853 496.293 305.883 496.255 305.921C496.101 306.063 495.914 306.152 495.719 306.176C495.606 306.177 495.496 306.153 495.394 306.105C495.291 306.057 495.199 305.987 495.122 305.899C495.04 305.817 494.977 305.714 494.935 305.6C494.894 305.485 494.877 305.361 494.884 305.235C494.886 304.982 494.978 304.737 495.138 304.553C495.138 304.553 495.236 304.491 495.273 304.449C491.949 302.484 488.203 301.524 484.389 301.658C472.39 301.966 463.508 311.564 463.363 324.206C463.217 336.849 471.897 346.006 483.882 345.696C495.867 345.385 504.765 335.855 504.909 323.147C505.003 319.699 504.347 316.307 502.997 313.265C501.647 310.223 499.643 307.623 497.16 305.689ZM484.002 337.272C480.78 337.354 477.706 335.998 475.456 333.502C473.206 331.005 471.964 327.573 472.005 323.959C472.046 320.346 473.365 316.848 475.672 314.235C477.979 311.621 481.086 310.107 484.308 310.024C485.932 309.979 487.537 310.288 489.034 310.933C489.074 310.713 489.239 310.518 489.343 310.343C489.452 310.143 489.619 309.991 489.816 309.915C490.012 309.84 490.224 309.845 490.412 309.931C490.56 309.991 490.687 310.103 490.773 310.251C490.86 310.399 490.902 310.575 490.894 310.755L491.406 310.707C491.589 310.336 491.769 309.981 491.938 309.607C492.108 309.234 492.133 309.174 492.215 308.962C492.265 308.86 492.308 308.754 492.345 308.646L492.365 308.536L492.552 307.987L492.589 307.783C492.621 307.139 493.343 306.499 493.88 306.943L495.37 308.155C495.557 308.286 495.69 308.494 495.742 308.736C495.794 308.979 495.761 309.238 495.649 309.46C495.508 309.675 495.38 309.9 495.266 310.133C495.252 310.212 495.235 310.306 495.151 310.371C495.151 310.371 495.151 310.371 495.131 310.481C495.034 310.852 494.965 311.229 494.924 311.611C494.79 312.509 494.58 313.393 494.295 314.251C494.315 314.36 494.315 314.474 494.295 314.584C494.275 314.695 494.235 314.801 494.177 314.895C494.129 314.997 494.059 315.084 493.973 315.148C495.418 317.527 496.157 320.375 496.089 323.303C496.153 325.096 495.884 326.898 495.299 328.594C494.714 330.29 493.825 331.844 492.689 333.157C491.553 334.47 490.194 335.514 488.699 336.222C487.203 336.931 485.604 337.288 484.002 337.272Z" fill="#0A0A0A"/>
<path d="M544.464 317.482C544.419 317.466 544.373 317.457 544.325 317.455C544.018 317.259 543.748 316.998 543.531 316.685C543.36 316.905 543.174 317.108 542.974 317.293C542.809 317.467 542.593 317.567 542.371 317.572C542.148 317.578 541.935 317.488 541.774 317.322C541.618 317.147 541.532 316.908 541.535 316.656C541.538 316.404 541.63 316.16 541.791 315.977C542.843 314.872 543.632 313.49 544.08 311.966C542.468 305.061 536.71 301.079 528.223 301.299L511.788 301.712L511.271 344.237L520.061 344.01L520.193 332.145L528.273 331.945L535.472 343.611L544.91 343.38L536.545 329.913C538.773 328.887 540.71 327.165 542.116 324.957C543.523 322.749 544.339 320.151 544.464 317.482ZM527.491 324.127L520.254 324.36L520.524 309.467L527.761 309.234C533.138 309.099 535.813 311.774 535.76 316.458C535.707 321.142 532.854 323.989 527.491 324.127Z" fill="#0A0A0A"/>
<path d="M484.65 26.6951C485.123 28.1459 485.302 29.6779 485.177 31.2C485.051 32.722 484.624 34.203 483.919 35.5549C482.484 38.2553 480.456 40.5889 477.991 42.3774C473.341 45.96 466.812 47.6619 460.995 48.3102C460.694 41.7658 465.299 35.7254 467.812 32.8278C471.798 28.2278 481.782 22.3522 484.663 26.726" fill="#FFECB2"/>
<path d="M458.021 59.1699C458.99 57.7682 460.309 56.6495 461.843 55.927C463.378 55.2045 465.074 54.9038 466.761 55.0552C468.444 55.2352 470.075 55.751 471.559 56.5728C473.043 57.3945 474.35 58.5057 475.405 59.8418C475.953 60.4044 476.374 61.0812 476.637 61.8248C476.9 62.5684 476.999 63.361 476.927 64.1472C476.737 64.8624 476.362 65.5137 475.84 66.0342C475.319 66.5547 474.669 66.9257 473.958 67.1089C472.532 67.45 471.042 67.4072 469.637 66.985C464.772 65.7552 460.299 63.6595 458.017 59.1596" fill="#FFECB2"/>
<path d="M444.306 64.3479C445.298 63.513 446.373 62.7842 447.514 62.1732C448.738 61.4567 450.043 60.8898 451.4 60.4846C453.035 59.939 454.703 59.5036 456.394 59.1812C459.503 58.5921 462.707 58.784 465.725 59.7398C466.626 60.057 467.493 60.4654 468.312 60.9586C468.627 61.1187 468.912 61.334 469.152 61.5944C469.086 61.6961 467.846 60.8563 465.59 60.1889C462.624 59.3938 459.52 59.2712 456.502 59.8301C454.84 60.155 453.195 60.568 451.576 61.0671C450.25 61.4423 448.964 61.9518 447.739 62.5879C446.641 63.2618 445.493 63.8501 444.306 64.3479Z" fill="#FF9D00"/>
<path d="M477.449 31.8378C477.065 32.3756 476.637 32.88 476.169 33.3455C475.351 34.2623 474.081 35.6199 472.52 37.262C469.419 40.5374 465.071 45.0261 460.16 49.8689C455.249 54.7118 450.661 58.9507 447.287 61.9542C445.595 63.4582 444.219 64.6541 443.248 65.4667C442.768 65.9166 442.249 66.3218 441.697 66.6775C442.117 66.1693 442.579 65.6988 443.08 65.2712L446.973 61.6148C450.262 58.526 454.785 54.218 459.7 49.3855L472.196 36.927L475.996 33.1648C476.44 32.6801 476.927 32.236 477.449 31.8378Z" fill="#FF9D00"/>
<path d="M451.293 55.3572C453.014 52.1969 453.964 48.6683 454.064 45.0637C454.165 41.4591 453.413 37.8822 451.871 34.6293C451.069 32.9764 449.71 31.2361 447.902 31.3627C446.094 31.4893 444.965 33.4074 444.443 35.1597C443.393 38.839 443.448 42.7498 444.599 46.398C445.751 50.0462 447.948 53.2681 450.913 55.6566" fill="#FFECB2"/>
<path d="M449.552 39.4563C449.741 39.7498 449.879 40.0735 449.96 40.4137C450.224 41.0314 450.495 41.9508 450.828 43.0997C451.709 46.1074 452.038 49.2521 451.8 52.3791C451.615 54.1109 451.157 55.8016 450.441 57.3868C449.435 59.536 447.96 61.428 446.128 62.9219C445.878 63.1624 445.591 63.3611 445.279 63.5105C445.226 63.387 446.337 62.4771 447.799 60.6585C448.649 59.5809 449.364 58.4012 449.928 57.1463C450.59 55.6153 451.015 53.9903 451.186 52.3286C451.412 49.274 451.151 46.2025 450.413 43.2314C450.058 41.9897 449.771 40.7294 449.552 39.4563Z" fill="#FF9D00"/>
<path d="M363.624 153.901C363.386 153.632 363.132 153.376 362.865 153.135C362.63 152.868 362.379 152.616 362.115 152.378C361.879 152.106 361.626 151.85 361.356 151.612C361.12 151.34 360.866 151.084 360.597 150.846C360.362 150.579 360.111 150.327 359.847 150.089C359.609 149.819 359.355 149.564 359.088 149.323C358.853 149.056 358.602 148.804 358.338 148.566C358.1 148.297 357.846 148.041 357.579 147.8C357.344 147.534 357.094 147.281 356.829 147.043C356.054 146.181 355.149 145.448 354.148 144.871V68.5321C354.148 68.1344 353.946 67.9307 353.946 67.5621C353.996 67.1467 353.926 66.7257 353.744 66.3496C353.744 66.1459 353.552 65.7385 353.552 65.5348C353.449 65.1208 353.314 64.7154 353.148 64.3223C352.932 64.1005 352.791 63.8153 352.745 63.5075C352.517 63.151 352.246 62.8251 351.938 62.5375C351.736 62.3338 351.543 61.9361 351.342 61.7227L350.534 60.9176C350.534 60.7915 350.381 60.6654 350.208 60.5878L349.814 60.1804H349.765C349.765 60.0543 349.612 59.9379 349.439 59.8506L349.045 59.4529C349.045 59.3268 348.891 59.2007 348.718 59.1231L348.189 58.5508C348.189 58.4247 348.036 58.2986 347.863 58.221L347.468 57.8233C347.468 57.7069 347.315 57.5808 347.142 57.4935L346.738 57.0958C346.738 56.9697 346.584 56.8436 346.411 56.766L346.017 56.3586C346.017 56.2422 345.863 56.1161 345.69 56.0288L345.287 55.6311C345.287 55.505 345.133 55.3789 344.96 55.3013L344.345 54.6708C344.345 54.5447 344.191 54.4283 344.018 54.341L343.624 53.9433C343.624 53.8172 343.47 53.6911 343.297 53.6135L342.855 53.1673C342.855 52.9733 342.461 52.7697 342.259 52.7697C342.262 52.7426 342.259 52.7153 342.251 52.6894C342.242 52.6636 342.229 52.6399 342.21 52.6197C342.192 52.5996 342.17 52.5836 342.145 52.5726C342.121 52.5617 342.094 52.5561 342.067 52.5563C341.654 52.3623 341.452 52.1585 341.048 51.9549C340.847 51.7512 340.453 51.5475 340.087 51.1401C339.876 51.1401 339.482 50.9461 339.28 50.9461C338.876 50.7424 338.319 50.7424 338.079 50.529C337.728 50.5597 337.376 50.4926 337.06 50.335H333.658C333.418 50.4906 333.134 50.559 332.85 50.529C332.255 50.7424 331.889 50.7424 331.649 50.9461C331.255 50.9461 331.053 51.1401 330.842 51.5475C330.41 51.5603 329.992 51.7021 329.64 51.9549C329.448 52.1585 329.045 52.3623 328.833 52.5563C328.581 52.853 328.246 53.066 327.872 53.1673C327.727 53.4752 327.525 53.7519 327.276 53.9821C327.074 54.1858 327.074 54.3798 326.873 54.3798L252.494 147.509C250.729 149.642 249.844 152.379 250.023 155.153C250.202 157.926 251.431 160.524 253.456 162.408C253.686 162.688 253.94 162.948 254.215 163.184C254.452 163.459 254.709 163.715 254.984 163.95C255.217 164.228 255.471 164.487 255.743 164.726C255.98 165.001 256.237 165.257 256.512 165.493C256.743 165.773 256.997 166.032 257.271 166.269C257.508 166.546 257.765 166.806 258.04 167.045C258.274 167.322 258.531 167.578 258.809 167.811C259.04 168.091 259.294 168.351 259.568 168.587C259.805 168.862 260.062 169.118 260.337 169.353C260.81 169.893 261.334 170.383 261.903 170.818C263.79 172.472 266.23 173.339 268.727 173.243H324.297V180.925C324.278 182.488 324.588 184.037 325.206 185.47C325.824 186.903 326.736 188.187 327.882 189.238C328.112 189.5 328.353 189.743 328.612 189.985C328.852 190.247 329.102 190.499 329.362 190.732C329.592 190.994 329.842 191.236 330.092 191.479C330.332 191.741 330.582 191.993 330.842 192.226C331.072 192.488 331.322 192.73 331.572 192.973C331.808 193.236 332.058 193.486 332.322 193.72C332.553 193.972 332.802 194.224 333.052 194.457C333.284 194.723 333.531 194.976 333.792 195.213C334.033 195.466 334.273 195.718 334.532 195.951C336.046 197.597 338.014 198.746 340.183 199.248C342.352 199.75 344.62 199.582 346.693 198.766C348.766 197.95 350.548 196.524 351.807 194.673C353.066 192.821 353.745 190.63 353.754 188.385V173.243H355.763C358.008 173.296 360.216 172.653 362.088 171.4C363.96 170.147 365.406 168.344 366.23 166.236C367.055 164.127 367.219 161.813 366.7 159.608C366.18 157.402 365.003 155.41 363.326 153.901H363.624ZM324.335 110.523V143.26H298.213L324.335 110.523Z" fill="#FFC727"/>
<path opacity="0.1" d="M363.932 154.166C363.693 153.896 363.44 153.64 363.173 153.4C362.937 153.133 362.687 152.881 362.423 152.643C362.187 152.371 361.933 152.115 361.664 151.877C361.428 151.605 361.174 151.349 360.904 151.11C360.669 150.844 360.419 150.591 360.155 150.354C359.916 150.084 359.663 149.828 359.396 149.588C359.16 149.321 358.91 149.068 358.646 148.831C358.407 148.561 358.154 148.305 357.887 148.065C357.651 147.798 357.401 147.546 357.137 147.308C356.362 146.446 355.457 145.713 354.456 145.135V68.7967C354.456 68.399 354.254 68.1953 354.254 67.8267C354.304 67.4114 354.233 66.9904 354.052 66.6142C354.052 66.4105 353.86 66.0031 353.86 65.7994C353.756 65.3854 353.621 64.98 353.456 64.5869C353.24 64.3652 353.098 64.0799 353.052 63.7721C352.825 63.4157 352.554 63.0897 352.245 62.8021C352.043 62.5984 351.851 62.2007 351.649 61.9873L350.842 61.1823C350.842 61.0562 350.688 60.9301 350.515 60.8525L350.121 60.4451H350.073C350.073 60.319 349.919 60.2026 349.746 60.1153L349.352 59.7176C349.352 59.5915 349.199 59.4654 349.026 59.3878L348.497 58.8155C348.497 58.6894 348.343 58.5633 348.17 58.4857L347.776 58.088C347.776 57.9716 347.622 57.8455 347.449 57.7582L347.046 57.3605C347.046 57.2344 346.892 57.1083 346.719 57.0307L346.325 56.6233C346.325 56.5069 346.171 56.3808 345.998 56.2935L345.594 55.8958C345.594 55.7697 345.441 55.6436 345.268 55.566L344.653 54.9355C344.653 54.8094 344.499 54.693 344.326 54.6057L343.932 54.208C343.932 54.0819 343.778 53.9558 343.605 53.8782L343.163 53.432C343.163 53.238 342.769 53.0343 342.567 53.0343C342.57 53.0072 342.567 52.9799 342.558 52.9541C342.55 52.9283 342.536 52.9045 342.518 52.8844C342.5 52.8643 342.478 52.8482 342.453 52.8373C342.428 52.8263 342.402 52.8208 342.375 52.8209C341.962 52.6269 341.76 52.4232 341.356 52.2195C341.154 52.0158 340.76 51.8121 340.395 51.4047C340.184 51.4047 339.79 51.2107 339.588 51.2107C339.184 51.007 338.627 51.007 338.386 50.7936C338.036 50.8243 337.683 50.7572 337.368 50.5996H333.965C333.726 50.7552 333.441 50.8237 333.158 50.7936C332.562 51.007 332.197 51.007 331.957 51.2107C331.563 51.2107 331.361 51.4047 331.149 51.8121C330.718 51.8249 330.3 51.9667 329.948 52.2195C329.756 52.4232 329.352 52.6269 329.141 52.8209C328.889 53.1177 328.554 53.3307 328.18 53.432C328.035 53.7399 327.833 54.0166 327.584 54.2468C327.382 54.4505 327.382 54.6445 327.18 54.6445L252.802 147.774C251.036 149.907 250.151 152.644 250.33 155.417C250.509 158.191 251.738 160.789 253.763 162.673C253.994 162.953 254.248 163.212 254.522 163.449C254.759 163.723 255.016 163.98 255.291 164.215C255.525 164.493 255.778 164.752 256.05 164.991C256.287 165.266 256.544 165.522 256.819 165.757C257.05 166.037 257.304 166.297 257.579 166.533C257.815 166.811 258.072 167.071 258.347 167.309C258.582 167.586 258.839 167.843 259.116 168.076C259.347 168.356 259.601 168.615 259.876 168.852C260.112 169.126 260.369 169.382 260.644 169.618C261.117 170.157 261.642 170.648 262.211 171.083C264.098 172.737 266.537 173.604 269.035 173.508H324.604V181.19C324.586 182.753 324.896 184.301 325.514 185.734C326.132 187.167 327.044 188.452 328.189 189.503C328.42 189.765 328.66 190.007 328.92 190.25C329.16 190.512 329.41 190.764 329.669 190.997C329.9 191.259 330.15 191.501 330.4 191.744C330.64 192.005 330.89 192.258 331.149 192.49C331.38 192.752 331.63 192.995 331.88 193.237C332.115 193.501 332.365 193.75 332.629 193.984C332.86 194.236 333.11 194.489 333.36 194.721C333.592 194.988 333.839 195.241 334.1 195.478C334.34 195.73 334.58 195.982 334.84 196.215C336.353 197.862 338.322 199.01 340.491 199.513C342.659 200.015 344.928 199.847 347.001 199.031C349.074 198.215 350.855 196.789 352.115 194.937C353.374 193.086 354.052 190.895 354.062 188.649V173.508H356.07C358.316 173.561 360.524 172.918 362.396 171.665C364.268 170.412 365.713 168.609 366.538 166.5C367.363 164.391 367.526 162.078 367.007 159.872C366.488 157.667 365.31 155.675 363.634 154.166H363.932ZM324.643 110.788V143.525H298.521L324.643 110.788Z" fill="black"/>
<path d="M359.953 155.692C359.951 157.17 359.657 158.634 359.089 159.997C358.521 161.361 357.69 162.596 356.645 163.633C355.599 164.669 354.36 165.485 352.999 166.033C351.638 166.582 350.183 166.852 348.718 166.827H346.709V182.221C346.709 185.179 345.545 188.017 343.472 190.109C341.399 192.201 338.588 193.376 335.657 193.376C332.726 193.376 329.914 192.201 327.842 190.109C325.769 188.017 324.605 185.179 324.605 182.221V166.827H261.423C258.925 166.92 256.485 166.049 254.599 164.392C253.437 163.511 252.464 162.4 251.74 161.127C251.015 159.855 250.555 158.447 250.386 156.989C250.217 155.532 250.343 154.055 250.757 152.648C251.17 151.241 251.863 149.933 252.793 148.805L327.046 55.6269C327.247 55.6269 327.248 55.4329 327.449 55.2292C327.699 54.9971 327.904 54.7209 328.055 54.4144C328.422 54.3031 328.754 54.0956 329.016 53.813C329.218 53.6093 329.621 53.4056 329.814 53.2019C330.167 52.9462 330.589 52.8042 331.025 52.7945C331.217 52.3871 331.419 52.1931 331.822 52.1931C332.024 51.9894 332.428 51.9894 333.033 51.7857C333.315 51.8147 333.597 51.7426 333.831 51.582H337.243C337.538 51.7382 337.871 51.8087 338.204 51.7857C338.406 51.9894 339.011 51.9894 339.415 52.1931C339.617 52.1931 340.011 52.3871 340.213 52.3871C340.616 52.7945 341.02 52.9982 341.174 53.2019C341.577 53.4056 341.779 53.6093 342.183 53.813C342.236 53.813 342.288 53.8345 342.325 53.8727C342.363 53.9109 342.385 53.9627 342.385 54.0167C342.586 54.0167 342.99 54.2107 342.99 54.4144L343.788 55.2292C343.99 55.4329 344.191 55.8306 344.393 56.0343C344.697 56.3419 344.964 56.6836 345.191 57.0528C345.242 57.3562 345.383 57.6368 345.595 57.8579C345.76 58.2544 345.894 58.663 345.998 59.0801C345.998 59.2741 346.19 59.6815 346.19 59.8852C346.371 60.2615 346.441 60.6823 346.392 61.0977C346.392 61.5051 346.594 61.7088 346.594 62.0677V144.517H348.603C350.076 144.494 351.54 144.765 352.909 145.315C354.278 145.865 355.526 146.683 356.581 147.721C357.636 148.76 358.477 149.999 359.056 151.367C359.634 152.735 359.939 154.204 359.953 155.692ZM324.643 94.5237L284.7 144.546H324.643V94.5237Z" fill="#FFC727"/>
<path d="M475.334 83.84C473.073 80.3468 470.44 77.1136 467.482 74.1982C467.376 74.0755 467.261 73.9619 467.136 73.8587C467.106 73.8185 467.07 73.7826 467.031 73.752C466.943 73.6503 466.85 73.5532 466.752 73.461C466.492 73.1797 466.223 72.9178 465.954 72.6559L465.887 72.588L465.608 72.3164C465.578 72.2762 465.542 72.2403 465.502 72.2097L465.224 71.909C464.964 71.6374 464.685 71.3755 464.426 71.1136C464.408 71.0837 464.381 71.0601 464.349 71.0457L464.08 70.7742C464.05 70.7339 464.014 70.698 463.974 70.6675C463.886 70.5602 463.789 70.4597 463.686 70.3668C463.436 70.0952 463.157 69.8333 462.898 69.5617L462.821 69.5035L462.552 69.2222L462.446 69.1252C462.35 69.0185 462.264 68.9215 462.158 68.8245C461.908 68.5432 461.629 68.291 461.37 68.0194L461.293 67.9612C461.21 67.858 461.116 67.7637 461.014 67.6799C460.985 67.6451 460.952 67.6127 460.918 67.5829C452.864 59.1924 442.35 53.644 430.557 53.644C414.709 53.644 401.667 63.1694 393.229 76.1188C384.406 89.0877 379.774 105.907 379.591 124.531C379.793 142.961 384.397 159.975 393.229 172.944C395.491 176.373 398.097 179.558 401.004 182.45L401.398 182.838C401.41 182.844 401.42 182.852 401.428 182.862C401.436 182.872 401.443 182.883 401.446 182.896L402.167 183.614C402.282 183.749 402.407 183.866 402.532 183.992L402.926 184.38L402.984 184.438L403.695 185.156L404.06 185.534C404.195 185.67 404.33 185.796 404.454 185.932C404.473 185.926 404.493 185.926 404.512 185.932L405.223 186.65C405.348 186.786 405.464 186.912 405.589 187.028L405.992 187.426C406.013 187.437 406.029 187.454 406.04 187.474L406.751 188.192L407.117 188.57L407.52 188.968C407.541 188.979 407.558 188.996 407.568 189.017C407.799 189.269 408.049 189.502 408.28 189.734C416.218 197.737 426.444 203.091 438.208 203.091C453.652 203.091 466.906 193.391 475.334 180.607C483.984 167.648 488.789 150.634 488.789 132.204C488.78 113.619 483.965 96.8282 475.334 83.84ZM449.222 160.382C443.398 169.112 436.785 172.944 430.557 172.944C426.741 172.854 423.047 171.569 419.986 169.267C419.707 168.899 419.428 168.501 419.149 168.103C413.537 159.597 409.539 146.637 409.539 132.214C409.539 117.664 413.556 104.869 419.149 96.1589C425.175 87.6521 431.999 83.6072 438.217 83.8012C441.84 83.783 445.37 84.9503 448.28 87.1283C448.597 87.5551 448.914 87.9916 449.241 88.4378C454.863 97.1677 458.852 109.913 458.852 124.492C458.861 138.916 454.844 151.875 449.222 160.382Z" fill="#FFC727"/>
<path opacity="0.1" d="M474.997 83.5768C472.736 80.0836 470.103 76.8505 467.145 73.935C467.04 73.8123 466.924 73.6988 466.799 73.5956C466.769 73.5553 466.733 73.5194 466.694 73.4889C466.606 73.3872 466.513 73.29 466.415 73.1979C466.155 72.9166 465.886 72.6547 465.617 72.3928L465.55 72.3249L465.271 72.0533C465.241 72.013 465.205 71.9771 465.165 71.9466L464.887 71.6459C464.627 71.3743 464.349 71.1124 464.089 70.8505C464.071 70.8205 464.044 70.7969 464.012 70.7826L463.743 70.511C463.713 70.4707 463.677 70.4348 463.637 70.4043C463.549 70.297 463.452 70.1965 463.349 70.1036C463.099 69.832 462.82 69.5701 462.561 69.2985L462.484 69.2403L462.215 68.959L462.109 68.862C462.013 68.7553 461.927 68.6583 461.821 68.5613C461.571 68.28 461.292 68.0278 461.033 67.7562L460.956 67.698C460.873 67.5948 460.779 67.5006 460.677 67.4167C460.648 67.382 460.616 67.3495 460.581 67.3197C452.527 58.9292 442.013 53.3809 430.221 53.3809C414.372 53.3809 401.33 62.9062 392.892 75.8556C384.069 88.8245 379.437 105.644 379.254 124.268C379.456 142.698 384.06 159.712 392.892 172.681C395.154 176.11 397.76 179.295 400.667 182.187L401.061 182.574C401.073 182.58 401.083 182.589 401.091 182.599C401.099 182.609 401.106 182.62 401.109 182.633L401.83 183.35C401.946 183.486 402.07 183.603 402.195 183.729L402.589 184.117L402.647 184.175L403.358 184.893L403.724 185.271C403.858 185.407 403.993 185.533 404.118 185.669C404.136 185.663 404.156 185.663 404.175 185.669L404.886 186.387C405.011 186.522 405.127 186.648 405.252 186.765L405.655 187.163C405.676 187.173 405.693 187.19 405.703 187.211L406.415 187.929L406.78 188.307L407.183 188.705C407.204 188.716 407.221 188.733 407.231 188.753C407.462 189.006 407.712 189.238 407.943 189.471C415.881 197.474 426.107 202.828 437.871 202.828C453.315 202.828 466.569 193.128 474.997 180.343C483.647 167.384 488.452 150.371 488.452 131.941C488.443 113.356 483.628 96.565 474.997 83.5768ZM448.885 160.119C443.061 168.849 436.448 172.681 430.221 172.681C426.404 172.591 422.71 171.306 419.649 169.004C419.37 168.636 419.091 168.238 418.813 167.84C413.2 159.333 409.202 146.374 409.202 131.95C409.202 117.401 413.219 104.606 418.813 95.8957C424.838 87.3889 431.662 83.344 437.88 83.538C441.503 83.5198 445.033 84.6872 447.943 86.8651C448.26 87.2919 448.577 87.7284 448.904 88.1746C454.526 96.9045 458.515 109.65 458.515 124.229C458.524 138.653 454.507 151.612 448.885 160.119Z" fill="black"/>
<path d="M381.606 121.437C381.808 102.803 386.412 85.9934 395.254 73.0343C403.673 60.0655 416.724 50.5498 432.573 50.5498C448.027 50.5498 461.27 60.0655 469.709 73.0343C478.358 85.9934 483.164 102.803 483.164 121.437C483.164 139.867 478.358 156.881 469.709 169.85C461.27 182.605 448.027 192.324 432.573 192.324C416.724 192.324 403.673 182.624 395.254 169.85C386.421 156.881 381.808 139.867 381.606 121.437ZM460.867 121.437C460.867 106.887 456.859 94.0929 451.256 85.3823C445.49 76.8755 438.82 72.8306 432.592 73.0343C426.374 72.8306 419.55 76.9143 413.534 85.3823C407.911 94.1123 403.923 106.858 403.923 121.437C403.923 135.822 407.94 148.781 413.534 157.327C419.55 166.057 426.374 169.888 432.592 169.888C438.81 169.888 445.441 166.008 451.256 157.327C456.859 148.781 460.867 135.822 460.867 121.437Z" fill="#FFC727"/>
<path d="M614.276 154.418C614.026 154.146 613.776 153.894 613.517 153.651C613.277 153.389 613.017 153.128 612.767 152.895C612.517 152.623 612.267 152.361 612.008 152.128C611.768 151.857 611.508 151.605 611.258 151.362C611.008 151.1 610.759 150.838 610.499 150.606C610.249 150.334 609.999 150.082 609.74 149.839C609.499 149.577 609.24 149.315 608.99 149.083C608.74 148.811 608.49 148.559 608.231 148.316C607.991 148.054 607.731 147.793 607.481 147.56C606.705 146.695 605.797 145.961 604.79 145.387V69.0484C604.79 68.6507 604.588 68.447 604.588 68.0784C604.638 67.663 604.568 67.242 604.387 66.8659C604.387 66.6622 604.194 66.2548 604.194 66.0511C604.091 65.6371 603.956 65.2317 603.791 64.8386C603.578 64.6142 603.437 64.3302 603.387 64.0238C603.163 63.6651 602.891 63.3388 602.58 63.0538C602.378 62.8501 602.186 62.4524 601.984 62.239L601.177 61.4339C601.177 61.3078 601.023 61.1817 600.85 61.1041L600.456 60.6967H600.408C600.408 60.5706 600.264 60.4542 600.081 60.3669L599.687 59.9692C599.687 59.8431 599.533 59.717 599.36 59.6394L598.966 59.232H598.918C598.918 59.1059 598.764 58.9798 598.591 58.9022L598.197 58.5045C598.197 58.3881 598.043 58.262 597.87 58.1747L597.467 57.777C597.467 57.6509 597.313 57.5248 597.14 57.4472L596.746 57.0398C596.746 56.9234 596.592 56.7973 596.419 56.71L596.016 56.3123C596.016 56.1862 595.862 56.0601 595.689 55.9825L595.295 55.5751C595.295 55.449 595.151 55.3326 594.968 55.2453L594.574 54.8476C594.574 54.7215 594.42 54.5954 594.247 54.5178L593.805 54.0716C593.805 53.8776 593.411 53.6739 593.209 53.6739C593.209 53.6174 593.187 53.5631 593.147 53.5231C593.108 53.483 593.054 53.4605 592.998 53.4605C592.604 53.2665 592.402 53.0628 592.037 52.8591C591.703 52.6037 591.382 52.3318 591.076 52.0444C590.864 52.0444 590.47 51.8504 590.268 51.8504C589.865 51.6467 589.307 51.6467 589.067 51.4333C588.716 51.464 588.364 51.3969 588.048 51.2393H584.165C583.926 51.3949 583.641 51.4633 583.358 51.4333C582.762 51.6467 582.397 51.6467 582.157 51.8504C581.763 51.8504 581.561 52.0444 581.349 52.4518C580.918 52.4663 580.501 52.6079 580.148 52.8591C579.956 53.0628 579.552 53.2665 579.35 53.4605C579.095 53.7533 578.761 53.9655 578.389 54.0716C578.241 54.3775 578.039 54.6536 577.793 54.8864C577.592 55.0901 577.592 55.2841 577.39 55.2841L503.146 148.462C501.381 150.595 500.496 153.332 500.675 156.105C500.853 158.879 502.083 161.477 504.107 163.361C504.875 164.129 505.637 164.902 506.395 165.679C506.632 165.954 506.889 166.21 507.164 166.446C507.394 166.725 507.648 166.985 507.923 167.222C508.16 167.499 508.417 167.759 508.692 167.998C508.926 168.274 509.183 168.531 509.461 168.764C509.964 169.284 510.473 169.799 510.989 170.306C511.462 170.845 511.986 171.336 512.555 171.771C514.442 173.425 516.882 174.292 519.379 174.196H574.949V181.878C574.931 183.441 575.242 184.989 575.86 186.422C576.478 187.854 577.389 189.139 578.533 190.191C578.765 190.457 579.013 190.71 579.273 190.948C579.514 191.2 579.754 191.452 580.014 191.685C580.244 191.956 580.504 192.199 580.754 192.441C580.994 192.694 581.234 192.946 581.494 193.179C581.724 193.45 581.984 193.693 582.234 193.935C582.474 194.197 582.714 194.44 582.974 194.672C583.204 194.934 583.464 195.187 583.714 195.419C583.944 195.681 584.185 195.924 584.444 196.166C584.684 196.428 584.934 196.68 585.194 196.913C586.708 198.56 588.677 199.709 590.847 200.211C593.016 200.713 595.285 200.544 597.359 199.727C599.432 198.91 601.214 197.482 602.472 195.629C603.731 193.776 604.408 191.584 604.415 189.337V173.759H606.424C608.671 173.815 610.88 173.173 612.753 171.921C614.627 170.668 616.074 168.866 616.9 166.757C617.726 164.647 617.89 162.333 617.371 160.126C616.852 157.92 615.675 155.927 613.997 154.418H614.276ZM574.977 111.039V143.777H548.846L574.977 111.039Z" fill="#FFC727"/>
<path opacity="0.1" d="M614.073 154.166C613.823 153.894 613.573 153.642 613.314 153.399C613.073 153.137 612.814 152.876 612.564 152.643C612.314 152.371 612.064 152.109 611.805 151.876C611.565 151.605 611.305 151.353 611.055 151.11C610.805 150.848 610.555 150.586 610.296 150.354C610.046 150.082 609.796 149.83 609.537 149.587C609.296 149.325 609.037 149.064 608.787 148.831C608.537 148.559 608.287 148.307 608.028 148.064C607.787 147.803 607.528 147.541 607.278 147.308C606.502 146.443 605.594 145.709 604.587 145.135V68.7964C604.587 68.3987 604.385 68.195 604.385 67.8264C604.435 67.4111 604.365 66.99 604.183 66.6139C604.183 66.4102 603.991 66.0028 603.991 65.7991C603.888 65.3851 603.753 64.9797 603.588 64.5866C603.375 64.3622 603.234 64.0783 603.184 63.7718C602.96 63.4131 602.688 63.0868 602.377 62.8018C602.175 62.5981 601.983 62.2004 601.781 61.987L600.973 61.182C600.973 61.0559 600.82 60.9298 600.647 60.8522L600.253 60.4448H600.205C600.205 60.3187 600.06 60.2023 599.878 60.115L599.484 59.7173C599.484 59.5912 599.33 59.4651 599.157 59.3875L598.763 58.9801H598.715C598.715 58.854 598.561 58.7279 598.388 58.6503L597.994 58.2526C597.994 58.1362 597.84 58.0101 597.667 57.9228L597.264 57.5251C597.264 57.399 597.11 57.2729 596.937 57.1953L596.543 56.7879C596.543 56.6715 596.389 56.5454 596.216 56.4581L595.812 56.0604C595.812 55.9343 595.659 55.8082 595.486 55.7306L595.092 55.3232C595.092 55.1971 594.947 55.0807 594.765 54.9934L594.371 54.5957C594.371 54.4696 594.217 54.3435 594.044 54.2659L593.602 53.8197C593.602 53.6257 593.208 53.422 593.006 53.422C593.006 53.3654 592.984 53.3111 592.944 53.2711C592.904 53.2311 592.851 53.2086 592.795 53.2086C592.401 53.0146 592.199 52.8109 591.834 52.6072C591.5 52.3517 591.179 52.0798 590.872 51.7924C590.661 51.7924 590.267 51.5984 590.065 51.5984C589.661 51.3947 589.104 51.3947 588.864 51.1813C588.513 51.212 588.161 51.1449 587.845 50.9873H583.962C583.723 51.1429 583.438 51.2114 583.155 51.1813C582.559 51.3947 582.194 51.3947 581.954 51.5984C581.56 51.5984 581.358 51.7924 581.146 52.1998C580.715 52.2143 580.297 52.356 579.945 52.6072C579.753 52.8109 579.349 53.0146 579.147 53.2086C578.892 53.5014 578.558 53.7136 578.186 53.8197C578.038 54.1255 577.836 54.4017 577.59 54.6345C577.388 54.8382 577.388 55.0322 577.187 55.0322L502.943 148.21C501.178 150.343 500.292 153.08 500.471 155.853C500.65 158.627 501.879 161.225 503.904 163.109C504.671 163.877 505.434 164.65 506.192 165.427C506.428 165.702 506.685 165.958 506.96 166.194C507.191 166.473 507.445 166.733 507.72 166.97C507.956 167.247 508.213 167.507 508.489 167.746C508.723 168.023 508.98 168.279 509.257 168.512C509.76 169.032 510.27 169.547 510.786 170.054C511.258 170.594 511.783 171.084 512.352 171.519C514.239 173.173 516.679 174.04 519.176 173.944H574.746V181.626C574.728 183.189 575.039 184.737 575.657 186.17C576.275 187.602 577.186 188.887 578.33 189.939C578.562 190.206 578.809 190.458 579.07 190.696C579.311 190.948 579.551 191.2 579.81 191.433C580.041 191.704 580.301 191.947 580.55 192.189C580.791 192.442 581.031 192.694 581.29 192.927C581.521 193.198 581.781 193.441 582.03 193.683C582.271 193.945 582.511 194.188 582.771 194.42C583.001 194.682 583.261 194.935 583.511 195.167C583.741 195.429 583.981 195.672 584.241 195.914C584.481 196.176 584.731 196.428 584.991 196.661C586.504 198.308 588.474 199.457 590.644 199.959C592.813 200.461 595.082 200.292 597.156 199.475C599.229 198.658 601.011 197.23 602.269 195.377C603.528 193.524 604.205 191.332 604.212 189.085V173.507H606.221C608.467 173.563 610.677 172.921 612.55 171.669C614.424 170.416 615.871 168.614 616.697 166.505C617.523 164.395 617.687 162.081 617.168 159.874C616.649 157.668 615.471 155.675 613.794 154.166H614.073ZM574.774 110.788V143.525H548.643L574.774 110.788Z" fill="black"/>
<path d="M610.094 154.659C610.092 156.139 609.798 157.604 609.229 158.967C608.661 160.331 607.829 161.568 606.782 162.604C605.736 163.64 604.496 164.456 603.134 165.004C601.772 165.552 600.315 165.821 598.849 165.795H596.841V181.189C596.841 184.147 595.676 186.984 593.604 189.076C591.531 191.168 588.72 192.344 585.788 192.344C582.857 192.344 580.046 191.168 577.973 189.076C575.9 186.984 574.736 184.147 574.736 181.189V165.795H511.554C509.056 165.888 506.616 165.017 504.731 163.36C503.568 162.479 502.595 161.368 501.871 160.095C501.147 158.823 500.686 157.415 500.517 155.957C500.348 154.499 500.474 153.022 500.888 151.615C501.302 150.208 501.994 148.901 502.924 147.772L577.177 54.5947C577.379 54.5947 577.379 54.4007 577.581 54.197C577.83 53.9648 578.035 53.6887 578.186 53.3822C578.554 53.2709 578.885 53.0634 579.147 52.7808C579.349 52.5771 579.753 52.3734 579.955 52.1697C580.304 51.9125 580.723 51.7703 581.156 51.7623C581.348 51.3549 581.55 51.1609 581.954 51.1609C582.155 50.9572 582.559 50.9572 583.165 50.7535C583.446 50.7825 583.728 50.7104 583.962 50.5498H587.374C587.67 50.706 588.002 50.7765 588.335 50.7535C588.537 50.9572 589.143 50.9572 589.546 51.1609C589.748 51.1609 590.152 51.3549 590.344 51.3549C590.748 51.7623 591.151 51.966 591.305 52.1697C591.709 52.3734 591.91 52.5771 592.314 52.7808C592.347 52.7618 592.385 52.7527 592.424 52.7547C592.462 52.7567 592.499 52.7696 592.53 52.792C592.561 52.8144 592.586 52.8453 592.6 52.8811C592.615 52.9169 592.619 52.9561 592.612 52.9942C592.814 52.9942 593.217 53.1882 593.217 53.3919L594.015 54.2067C594.217 54.4104 594.419 54.8081 594.621 55.0118C594.927 55.3167 595.195 55.6588 595.418 56.0303C595.469 56.3336 595.61 56.6143 595.822 56.8354C595.987 57.2319 596.122 57.6404 596.226 58.0576C596.226 58.2516 596.418 58.659 596.418 58.8627C596.599 59.239 596.669 59.6598 596.62 60.0752C596.62 60.4826 596.822 60.6863 596.822 61.0451V143.495H598.83C601.79 143.471 604.638 144.634 606.749 146.727C608.861 148.82 610.064 151.672 610.094 154.659ZM574.774 93.4915L534.832 143.514H574.774V93.4915Z" fill="#FFC727"/>
<path d="M573.534 9.86271e-05H620.323C621.594 9.78162e-05 622.854 0.249897 624.028 0.735218C625.203 1.22054 626.271 1.93186 627.169 2.82852C628.068 3.72517 628.781 4.78954 629.266 5.96082C629.752 7.1321 630.001 8.38733 630 9.65466V26.0183C630.001 27.2857 629.752 28.5409 629.266 29.7121C628.781 30.8834 628.068 31.9478 627.169 32.8445C626.271 33.7411 625.203 34.4524 624.028 34.9377C622.854 35.4231 621.594 35.6729 620.323 35.6729H589.232L575.001 50.8365L582.664 35.6729H573.49C570.921 35.6729 568.456 34.6557 566.639 32.8451C564.822 31.0345 563.802 28.5789 563.802 26.0183V9.65466C563.802 8.38313 564.054 7.1241 564.543 5.9499C565.033 4.77571 565.751 3.70945 566.655 2.81237C567.559 1.91529 568.632 1.20505 569.813 0.722434C570.993 0.239821 572.258 -0.00564842 573.534 9.86271e-05Z" fill="#FFC100"/>
<path opacity="0.7" d="M573.534 9.86271e-05H620.323C621.594 9.78162e-05 622.854 0.249897 624.028 0.735218C625.203 1.22054 626.271 1.93186 627.169 2.82852C628.068 3.72517 628.781 4.78954 629.266 5.96082C629.752 7.1321 630.001 8.38733 630 9.65466V26.0183C630.001 27.2857 629.752 28.5409 629.266 29.7121C628.781 30.8834 628.068 31.9478 627.169 32.8445C626.271 33.7411 625.203 34.4524 624.028 34.9377C622.854 35.4231 621.594 35.6729 620.323 35.6729H589.232L575.001 50.8365L582.664 35.6729H573.49C570.921 35.6729 568.456 34.6557 566.639 32.8451C564.822 31.0345 563.802 28.5789 563.802 26.0183V9.65466C563.802 8.38313 564.054 7.1241 564.543 5.9499C565.033 4.77571 565.751 3.70945 566.655 2.81237C567.559 1.91529 568.632 1.20505 569.813 0.722434C570.993 0.239821 572.258 -0.00564842 573.534 9.86271e-05Z" fill="white"/>
<path d="M575.822 16.931C575.78 15.8297 576.07 14.7411 576.654 13.805C577.237 12.8688 578.088 12.1278 579.097 11.6769C580.107 11.226 581.228 11.0859 582.318 11.2744C583.407 11.463 584.416 11.9716 585.213 12.7351C586.011 13.4986 586.561 14.4822 586.794 15.5596C587.027 16.637 586.931 17.7592 586.52 18.7821C586.108 19.8051 585.399 20.6822 584.484 21.3009C583.569 21.9196 582.489 22.2517 581.383 22.2547C580.662 22.2904 579.941 22.1788 579.264 21.9268C578.588 21.6747 577.97 21.2875 577.449 20.7889C576.929 20.2903 576.516 19.691 576.236 19.0275C575.956 18.3641 575.815 17.6507 575.822 16.931ZM585.423 16.931C585.431 16.1278 585.2 15.3403 584.758 14.6685C584.316 13.9967 583.683 13.4712 582.941 13.1588C582.198 12.8464 581.379 12.7613 580.588 12.9143C579.797 13.0673 579.069 13.4514 578.497 14.0179C577.926 14.5843 577.536 15.3074 577.378 16.0951C577.221 16.8828 577.302 17.6995 577.611 18.4412C577.921 19.1829 578.444 19.8161 579.116 20.2601C579.788 20.7041 580.577 20.939 581.383 20.9347C581.916 20.9512 582.447 20.8591 582.943 20.664C583.439 20.4689 583.89 20.175 584.268 19.8002C584.647 19.4254 584.944 18.9776 585.142 18.4842C585.341 17.9909 585.436 17.4624 585.423 16.931Z" fill="#FFC100"/>
<path d="M588.258 18.1972C588.236 17.3825 588.458 16.5799 588.896 15.8917C589.334 15.2035 589.968 14.6608 590.716 14.3329C591.465 14.0051 592.295 13.9069 593.1 14.0509C593.905 14.1948 594.648 14.5745 595.236 15.1413C595.823 15.7082 596.228 16.4366 596.398 17.2336C596.569 18.0307 596.497 18.8602 596.192 19.6164C595.888 20.3727 595.364 21.0213 594.688 21.4797C594.011 21.938 593.214 22.1853 592.396 22.1899C591.856 22.2169 591.317 22.1331 590.812 21.9437C590.306 21.7544 589.845 21.4634 589.457 21.089C589.069 20.7146 588.762 20.2647 588.556 19.7672C588.35 19.2698 588.248 18.7353 588.258 18.1972ZM595.034 18.1972C595.058 17.834 595.006 17.4699 594.883 17.1274C594.759 16.7849 594.567 16.4713 594.317 16.2059C594.067 15.9405 593.765 15.7289 593.43 15.5843C593.095 15.4397 592.734 15.365 592.369 15.365C592.003 15.365 591.642 15.4397 591.307 15.5843C590.972 15.7289 590.67 15.9405 590.42 16.2059C590.17 16.4713 589.978 16.7849 589.854 17.1274C589.731 17.4699 589.679 17.834 589.703 18.1972C589.679 18.5603 589.731 18.9244 589.854 19.2669C589.978 19.6094 590.17 19.923 590.42 20.1885C590.67 20.4539 590.972 20.6655 591.307 20.8101C591.642 20.9547 592.003 21.0293 592.369 21.0293C592.734 21.0293 593.095 20.9547 593.43 20.8101C593.765 20.6655 594.067 20.4539 594.317 20.1885C594.567 19.923 594.759 19.6094 594.883 19.2669C595.006 18.9244 595.058 18.5603 595.034 18.1972Z" fill="#FFC100"/>
<path d="M606.628 18.196C606.657 18.7291 606.574 19.2625 606.385 19.7619C606.195 20.2612 605.903 20.7156 605.526 21.0957C605.15 21.4758 604.698 21.7733 604.2 21.969C603.701 22.1648 603.167 22.2545 602.632 22.2324C602.103 22.2486 601.577 22.1405 601.098 21.9169C600.619 21.6932 600.199 21.3603 599.873 20.9451V25.0251H598.439V14.2578H599.807V15.5124C600.135 15.0799 600.564 14.733 601.056 14.5013C601.547 14.2695 602.088 14.1598 602.632 14.1815C603.165 14.1596 603.697 14.2487 604.194 14.4432C604.691 14.6376 605.142 14.9331 605.518 15.3109C605.894 15.6886 606.187 16.1402 606.378 16.6369C606.569 17.1337 606.654 17.6647 606.628 18.196ZM605.182 18.196C605.157 17.6785 604.979 17.1799 604.672 16.7617C604.365 16.3436 603.942 16.0242 603.455 15.8432C602.968 15.6621 602.438 15.6273 601.931 15.743C601.425 15.8587 600.963 16.1199 600.604 16.4943C600.244 16.8686 600.003 17.3397 599.909 17.8494C599.815 18.359 599.873 18.8848 600.076 19.3618C600.279 19.8388 600.618 20.2461 601.051 20.5333C601.484 20.8205 601.991 20.9751 602.511 20.9778C602.877 20.9893 603.24 20.9244 603.579 20.7874C603.917 20.6503 604.223 20.4441 604.477 20.1821C604.731 19.92 604.926 19.6079 605.052 19.2658C605.177 18.9237 605.229 18.5593 605.204 18.196H605.182Z" fill="#FFC100"/>
<path d="M607.635 21.3048L608.226 20.2139C609.057 20.7411 610.021 21.0211 611.007 21.0212C612.331 21.0212 612.879 20.6284 612.879 19.9302C612.879 18.163 607.887 19.7012 607.887 16.5593C607.887 15.1521 609.156 14.1921 611.171 14.1921C612.177 14.1767 613.17 14.425 614.05 14.9121L613.437 16.003C612.755 15.5786 611.963 15.3624 611.16 15.3812C609.901 15.3812 609.288 15.8394 609.288 16.4721C609.288 18.3266 614.302 16.8103 614.302 19.8757C614.302 21.2939 612.988 22.2102 610.886 22.2102C609.735 22.2451 608.601 21.9292 607.635 21.3048Z" fill="#FFC100"/>
<path d="M615.779 21.2733C615.779 21.1459 615.805 21.0197 615.855 20.9024C615.905 20.785 615.978 20.6789 616.07 20.5904C616.162 20.5018 616.271 20.4326 616.39 20.3868C616.509 20.3411 616.637 20.3198 616.765 20.3242C616.89 20.3212 617.016 20.3437 617.133 20.3904C617.249 20.437 617.356 20.5068 617.445 20.5956C617.534 20.6843 617.604 20.7901 617.651 20.9066C617.697 21.0231 617.72 21.1479 617.717 21.2733C617.718 21.3989 617.695 21.5234 617.648 21.6399C617.6 21.7563 617.53 21.8622 617.442 21.9515C617.353 22.0408 617.248 22.1117 617.132 22.16C617.015 22.2084 616.891 22.2333 616.765 22.2333C616.636 22.2362 616.509 22.2135 616.389 22.1666C616.27 22.1197 616.161 22.0494 616.069 21.96C615.977 21.8705 615.904 21.7637 615.855 21.6458C615.805 21.5279 615.779 21.4012 615.779 21.2733ZM615.911 11.7388H617.575L617.29 18.8515H616.195L615.911 11.7388Z" fill="#FFC100"/>
<path d="M19.6562 370.427L124.737 369.924L229.818 369.763L440 369.42L650.182 369.742L755.263 369.924L860.344 370.427L755.263 370.91L650.182 371.091L440 371.433L229.818 371.091L124.737 370.91L19.6562 370.427Z" fill="#FF9D00"/>
<path d="M871.194 388.461H8.80592C6.47045 388.461 4.23064 387.511 2.57921 385.82C0.927785 384.129 2.20378e-05 381.835 2.20378e-05 379.444C-0.00256954 378.259 0.223434 377.085 0.665054 375.989C1.10667 374.894 1.75521 373.899 2.57343 373.061C3.39165 372.223 4.36343 371.559 5.43298 371.107C6.50253 370.655 7.64878 370.423 8.80592 370.426H871.194C873.53 370.426 875.769 371.376 877.421 373.067C879.072 374.758 880 377.052 880 379.444C879.995 381.834 879.065 384.124 877.415 385.814C875.765 387.504 873.528 388.456 871.194 388.461Z" fill="#FFC100" fill-opacity="0.8"/>
<path d="M695.823 406.296H152.197C147.333 406.296 143.391 410.334 143.391 415.314C143.391 420.295 147.333 424.332 152.197 424.332H695.823C700.686 424.332 704.629 420.295 704.629 415.314C704.629 410.334 700.686 406.296 695.823 406.296Z" fill="#FFC100" fill-opacity="0.8"/>
<path d="M646.998 460H250.949C249.791 460.003 248.645 459.771 247.576 459.319C246.506 458.867 245.534 458.202 244.716 457.365C243.898 456.527 243.249 455.532 242.808 454.436C242.366 453.341 242.14 452.167 242.143 450.982C242.143 448.59 243.07 446.297 244.722 444.606C246.373 442.914 248.613 441.964 250.949 441.964H646.998C648.154 441.964 649.299 442.198 650.367 442.651C651.436 443.104 652.407 443.768 653.224 444.606C654.042 445.443 654.691 446.437 655.133 447.531C655.576 448.625 655.804 449.798 655.804 450.982C655.806 452.167 655.58 453.341 655.138 454.436C654.697 455.532 654.048 456.527 653.23 457.365C652.412 458.202 651.44 458.867 650.371 459.319C649.301 459.771 648.155 460.003 646.998 460Z" fill="#FFC100" fill-opacity="0.8"/>
<path d="M115.499 406.296H74.1228C69.2594 406.296 65.3169 410.334 65.3169 415.314C65.3169 420.295 69.2594 424.332 74.1228 424.332H115.499C120.362 424.332 124.305 420.295 124.305 415.314C124.305 410.334 120.362 406.296 115.499 406.296Z" fill="#FFC100" fill-opacity="0.8"/>
<path d="M715.44 460H694.742C693.586 460 692.44 459.767 691.372 459.313C690.304 458.86 689.333 458.196 688.515 457.359C687.698 456.521 687.049 455.527 686.606 454.433C686.164 453.339 685.936 452.166 685.936 450.982C685.941 448.592 686.871 446.302 688.521 444.612C690.171 442.921 692.408 441.97 694.742 441.964H715.44C717.774 441.97 720.01 442.921 721.661 444.612C723.311 446.302 724.24 448.592 724.246 450.982C724.246 452.166 724.018 453.339 723.575 454.433C723.133 455.527 722.484 456.521 721.666 457.359C720.849 458.196 719.878 458.86 718.81 459.313C717.741 459.767 716.596 460 715.44 460Z" fill="#FFC100" fill-opacity="0.8"/>
<path d="M407.528 406.477H179.734C182.08 406.477 184.33 405.523 185.989 403.824C187.648 402.126 188.58 399.822 188.58 397.419C188.58 395.017 187.648 392.713 185.989 391.014C184.33 389.316 182.08 388.361 179.734 388.361H407.528C405.182 388.361 402.932 389.316 401.273 391.014C399.615 392.713 398.683 395.017 398.683 397.419C398.683 399.822 399.615 402.126 401.273 403.824C402.932 405.523 405.182 406.477 407.528 406.477Z" fill="#FFC100" fill-opacity="0.8"/>
<path d="M644.088 406.477H494.703C497.049 406.477 499.298 405.523 500.957 403.824C502.616 402.126 503.548 399.822 503.548 397.419C503.548 395.017 502.616 392.713 500.957 391.014C499.298 389.316 497.049 388.361 494.703 388.361H644.088C641.742 388.361 639.493 389.316 637.834 391.014C636.175 392.713 635.243 395.017 635.243 397.419C635.243 399.822 636.175 402.126 637.834 403.824C639.493 405.523 641.742 406.477 644.088 406.477Z" fill="#FFC100" fill-opacity="0.8"/>
<path d="M531.086 442.166H301.877C304.223 442.166 306.473 441.212 308.131 439.513C309.79 437.815 310.722 435.511 310.722 433.108C310.722 430.706 309.79 428.402 308.131 426.703C306.473 425.005 304.223 424.05 301.877 424.05H531.086C528.74 424.05 526.49 425.005 524.831 426.703C523.173 428.402 522.241 430.706 522.241 433.108C522.241 435.511 523.173 437.815 524.831 439.513C526.49 441.212 528.74 442.166 531.086 442.166Z" fill="#FFC100" fill-opacity="0.8"/>
<path d="M302.89 417.87H298.244V426.263C298.189 426.789 297.945 427.277 297.561 427.631C297.176 427.985 296.677 428.181 296.159 428.181C295.642 428.181 295.143 427.985 294.758 427.631C294.373 427.277 294.129 426.789 294.074 426.263V403.474C294.071 403.195 294.123 402.917 294.226 402.658C294.329 402.399 294.481 402.164 294.674 401.966C294.867 401.768 295.097 401.612 295.35 401.507C295.603 401.401 295.874 401.348 296.147 401.352H302.89C303.986 401.291 305.082 401.459 306.113 401.846C307.143 402.234 308.085 402.832 308.882 403.605C309.679 404.378 310.314 405.309 310.748 406.342C311.181 407.374 311.405 408.487 311.405 409.611C311.405 410.735 311.181 411.847 310.748 412.879C310.314 413.912 309.679 414.843 308.882 415.616C308.085 416.389 307.143 416.987 306.113 417.375C305.082 417.762 303.986 417.931 302.89 417.87ZM298.244 413.6H302.89C303.92 413.6 304.908 413.181 305.636 412.435C306.364 411.689 306.773 410.678 306.773 409.623C306.773 408.568 306.364 407.556 305.636 406.811C304.908 406.065 303.92 405.646 302.89 405.646H298.244V413.6Z" fill="#263238"/>
<path d="M326.882 422.017H317.709L315.851 427.018C315.698 427.421 315.429 427.767 315.08 428.011C314.732 428.254 314.32 428.385 313.897 428.385C313.654 428.382 313.413 428.34 313.183 428.263C312.66 428.06 312.236 427.654 312.004 427.133C311.772 426.612 311.75 426.018 311.944 425.481L320.283 402.742C320.44 402.334 320.717 401.985 321.075 401.745C321.434 401.505 321.856 401.384 322.284 401.4C322.71 401.382 323.13 401.502 323.485 401.743C323.84 401.984 324.112 402.333 324.262 402.742L332.6 425.481C332.726 425.805 332.771 426.156 332.732 426.502C332.694 426.848 332.573 427.18 332.38 427.467C332.187 427.754 331.928 427.987 331.625 428.147C331.323 428.308 330.987 428.389 330.647 428.385C330.227 428.387 329.817 428.257 329.472 428.012C329.127 427.768 328.863 427.421 328.717 427.018L326.882 422.017ZM325.334 417.771L322.284 409.451L319.21 417.771H325.334Z" fill="#263238"/>
<path d="M335.388 414.477C335.445 411.83 336.22 409.252 337.627 407.03C339.033 404.808 341.015 403.031 343.352 401.897C345.688 400.763 348.286 400.316 350.856 400.608C353.425 400.899 355.865 401.916 357.903 403.546C358.125 403.724 358.311 403.945 358.449 404.197C358.588 404.448 358.677 404.725 358.712 405.011C358.746 405.298 358.725 405.589 358.649 405.867C358.574 406.145 358.446 406.405 358.272 406.633C358.098 406.86 357.883 407.051 357.637 407.193C357.392 407.335 357.121 407.426 356.842 407.461C356.562 407.496 356.278 407.475 356.006 407.397C355.734 407.32 355.48 407.189 355.258 407.011C353.549 405.669 351.456 404.941 349.302 404.937C348.044 404.911 346.793 405.146 345.626 405.628C344.459 406.111 343.4 406.83 342.511 407.743C341.622 408.612 340.914 409.657 340.431 410.815C339.948 411.972 339.699 413.218 339.7 414.477C339.706 415.72 339.959 416.95 340.442 418.09C340.925 419.231 341.629 420.259 342.511 421.114C343.4 422.027 344.459 422.746 345.626 423.228C346.793 423.711 348.044 423.946 349.302 423.919C351.121 423.909 352.906 423.404 354.472 422.455V417.161H349.04C348.471 417.155 347.926 416.922 347.522 416.512C347.117 416.103 346.884 415.548 346.872 414.965C346.875 414.678 346.933 414.394 347.044 414.13C347.155 413.866 347.316 413.628 347.518 413.428C347.719 413.228 347.958 413.071 348.219 412.967C348.48 412.862 348.759 412.811 349.04 412.818H356.545C356.825 412.811 357.104 412.862 357.365 412.967C357.627 413.071 357.865 413.228 358.067 413.428C358.268 413.628 358.429 413.866 358.54 414.13C358.651 414.394 358.71 414.678 358.713 414.965V423.505C358.726 423.724 358.726 423.944 358.713 424.163C358.703 424.228 358.703 424.294 358.713 424.359C358.577 424.745 358.316 425.072 357.974 425.286C355.945 426.907 353.517 427.92 350.96 428.212C348.403 428.505 345.816 428.065 343.488 426.943C341.16 425.82 339.182 424.059 337.773 421.854C336.364 419.649 335.579 417.087 335.507 414.453L335.388 414.477Z" fill="#263238"/>
<path d="M367.242 426.262V403.474C367.239 403.194 367.291 402.917 367.394 402.658C367.497 402.399 367.649 402.163 367.842 401.966C368.035 401.768 368.265 401.612 368.518 401.506C368.771 401.401 369.042 401.348 369.315 401.351H381.657C382.205 401.358 382.728 401.583 383.116 401.98C383.503 402.377 383.723 402.913 383.73 403.474C383.73 404.041 383.513 404.587 383.125 404.992C382.738 405.398 382.211 405.633 381.657 405.645H371.436V412.697H380.227C380.783 412.697 381.317 412.923 381.71 413.325C382.103 413.728 382.324 414.274 382.324 414.844C382.324 415.413 382.103 415.959 381.71 416.362C381.317 416.765 380.783 416.991 380.227 416.991H371.436V424.091H381.657C382.213 424.091 382.746 424.317 383.139 424.72C383.532 425.122 383.753 425.669 383.753 426.238C383.753 426.807 383.532 427.354 383.139 427.756C382.746 428.159 382.213 428.385 381.657 428.385H369.434C369.152 428.402 368.87 428.359 368.604 428.26C368.339 428.161 368.096 428.007 367.891 427.808C367.686 427.609 367.522 427.37 367.411 427.104C367.299 426.838 367.242 426.552 367.242 426.262Z" fill="#263238"/>
<path d="M405.053 426.262C405.053 426.818 404.837 427.352 404.453 427.745C404.069 428.139 403.548 428.36 403.004 428.36C402.461 428.36 401.94 428.139 401.555 427.745C401.171 427.352 400.955 426.818 400.955 426.262V403.815C400.936 403.47 401.003 403.126 401.149 402.815C401.295 402.503 401.515 402.235 401.789 402.034C402.231 401.714 402.777 401.583 403.311 401.67C403.845 401.756 404.325 402.053 404.648 402.497L416.823 419.747V403.839C416.829 403.287 417.048 402.759 417.432 402.371C417.815 401.983 418.333 401.765 418.872 401.765C419.414 401.765 419.934 401.982 420.321 402.37C420.709 402.757 420.932 403.285 420.945 403.839V426.286C420.939 426.847 420.718 427.383 420.331 427.78C419.944 428.177 419.42 428.402 418.872 428.409C418.574 428.402 418.281 428.328 418.014 428.193C417.746 428.059 417.511 427.866 417.323 427.628C417.323 427.628 417.157 427.481 417.133 427.408L405.053 410.329V426.262Z" fill="#263238"/>
<path d="M448.916 404.717C451.358 407.351 452.719 410.845 452.719 414.477C452.719 418.109 451.358 421.602 448.916 424.236C447.768 425.515 446.377 426.54 444.829 427.249C443.28 427.958 441.606 428.336 439.91 428.36C438.177 428.349 436.464 427.979 434.875 427.27C433.286 426.561 431.854 425.529 430.666 424.236C428.266 421.58 426.934 418.095 426.934 414.477C426.934 410.858 428.266 407.373 430.666 404.717C431.842 403.407 433.271 402.362 434.862 401.648C436.454 400.934 438.173 400.567 439.91 400.569C441.611 400.581 443.29 400.956 444.841 401.67C446.391 402.385 447.779 403.422 448.916 404.717ZM448.416 414.477C448.423 411.976 447.513 409.564 445.867 407.718C445.111 406.867 444.192 406.185 443.167 405.714C442.142 405.244 441.033 404.996 439.91 404.986C438.76 404.978 437.621 405.218 436.566 405.688C435.512 406.159 434.565 406.85 433.787 407.718C432.122 409.553 431.209 411.972 431.238 414.477C431.222 416.964 432.133 419.364 433.787 421.186C434.559 422.065 435.503 422.768 436.559 423.247C437.614 423.726 438.756 423.972 439.91 423.968C441.037 423.953 442.149 423.697 443.174 423.219C444.2 422.74 445.117 422.048 445.867 421.186C447.52 419.364 448.432 416.964 448.416 414.477Z" fill="#263238"/>
<path d="M474.219 405.645H468.167V426.262C468.167 426.825 467.949 427.365 467.56 427.763C467.171 428.161 466.644 428.385 466.094 428.385C465.545 428.385 465.017 428.161 464.629 427.763C464.24 427.365 464.022 426.825 464.022 426.262V405.645H458.065C457.511 405.633 456.984 405.398 456.596 404.992C456.209 404.587 455.992 404.041 455.992 403.474C455.989 403.194 456.041 402.917 456.144 402.658C456.247 402.399 456.399 402.163 456.592 401.966C456.785 401.768 457.015 401.612 457.268 401.506C457.521 401.401 457.792 401.348 458.065 401.351H474.171C474.721 401.351 475.248 401.575 475.637 401.973C476.026 402.371 476.244 402.911 476.244 403.474C476.239 404.032 476.027 404.566 475.65 404.97C475.274 405.373 474.763 405.614 474.219 405.645Z" fill="#263238"/>
<path d="M493.803 426.263V403.474C493.803 402.911 494.022 402.371 494.41 401.973C494.799 401.575 495.326 401.352 495.876 401.352H508.218C508.774 401.352 509.307 401.578 509.7 401.98C510.093 402.383 510.314 402.929 510.314 403.499C510.314 404.068 510.093 404.614 509.7 405.017C509.307 405.42 508.774 405.646 508.218 405.646H497.996V412.697H506.788C507.344 412.697 507.877 412.923 508.271 413.326C508.664 413.728 508.885 414.275 508.885 414.844C508.885 415.413 508.664 415.96 508.271 416.362C507.877 416.765 507.344 416.991 506.788 416.991H497.996V426.263C497.984 426.83 497.755 427.37 497.359 427.767C496.962 428.163 496.43 428.386 495.876 428.385C495.326 428.385 494.799 428.162 494.41 427.764C494.022 427.366 493.803 426.826 493.803 426.263Z" fill="#263238"/>
<path d="M536.689 404.717C539.131 407.351 540.492 410.845 540.492 414.477C540.492 418.109 539.131 421.602 536.689 424.236C535.549 425.514 534.166 426.54 532.626 427.253C531.086 427.966 529.421 428.351 527.731 428.384C525.987 428.38 524.263 428.01 522.665 427.297C521.067 426.583 519.628 425.542 518.439 424.236C516.039 421.58 514.707 418.095 514.707 414.477C514.707 410.858 516.039 407.373 518.439 404.717C519.61 403.408 521.035 402.363 522.623 401.649C524.21 400.935 525.925 400.567 527.659 400.569C529.364 400.578 531.048 400.951 532.603 401.665C534.158 402.38 535.55 403.419 536.689 404.717ZM536.189 414.477C536.187 411.973 535.269 409.562 533.616 407.718C532.852 406.858 531.921 406.171 530.883 405.701C529.845 405.231 528.723 404.988 527.588 404.988C526.453 404.988 525.33 405.231 524.292 405.701C523.254 406.171 522.324 406.858 521.56 407.718C519.886 409.549 518.965 411.969 518.987 414.477C518.957 416.971 519.881 419.379 521.56 421.186C522.316 422.06 523.244 422.759 524.283 423.238C525.322 423.717 526.448 423.965 527.588 423.965C528.727 423.965 529.854 423.717 530.893 423.238C531.932 422.759 532.86 422.06 533.616 421.186C535.278 419.368 536.199 416.968 536.189 414.477Z" fill="#263238"/>
<path d="M557.155 428.385C555.722 428.388 554.301 428.101 552.976 427.541C551.651 426.981 550.446 426.158 549.432 425.119C548.419 424.081 547.615 422.848 547.068 421.491C546.52 420.133 546.24 418.679 546.243 417.21V403.474C546.24 403.194 546.292 402.917 546.395 402.658C546.498 402.399 546.65 402.163 546.843 401.966C547.036 401.768 547.266 401.612 547.519 401.506C547.772 401.401 548.043 401.348 548.316 401.351C548.592 401.348 548.865 401.4 549.12 401.505C549.376 401.61 549.609 401.766 549.806 401.963C550.003 402.16 550.16 402.395 550.268 402.654C550.376 402.913 550.433 403.192 550.437 403.474V417.21C550.437 418.114 550.61 419.009 550.948 419.843C551.286 420.678 551.781 421.437 552.404 422.076C553.028 422.715 553.769 423.221 554.584 423.567C555.399 423.913 556.273 424.091 557.155 424.091C558.038 424.091 558.911 423.913 559.727 423.567C560.542 423.221 561.282 422.715 561.906 422.076C562.53 421.437 563.025 420.678 563.363 419.843C563.7 419.009 563.874 418.114 563.874 417.21V403.474C563.929 402.947 564.173 402.46 564.557 402.105C564.942 401.751 565.442 401.555 565.959 401.555C566.476 401.555 566.975 401.751 567.36 402.105C567.745 402.46 567.989 402.947 568.044 403.474V417.21C568.044 420.17 566.897 423.008 564.856 425.103C562.815 427.198 560.045 428.379 557.155 428.385Z" fill="#263238"/>
<path d="M580.48 426.262C580.48 426.818 580.265 427.352 579.88 427.745C579.496 428.139 578.975 428.36 578.431 428.36C577.888 428.36 577.367 428.139 576.983 427.745C576.598 427.352 576.383 426.818 576.383 426.262V403.815C576.364 403.47 576.43 403.126 576.576 402.815C576.722 402.503 576.942 402.235 577.216 402.034C577.658 401.714 578.204 401.583 578.738 401.67C579.272 401.756 579.752 402.053 580.075 402.497L592.25 419.747V403.839C592.256 403.287 592.475 402.759 592.859 402.371C593.242 401.983 593.76 401.765 594.299 401.765C594.841 401.765 595.361 401.982 595.748 402.37C596.136 402.757 596.36 403.285 596.372 403.839V426.286C596.366 426.847 596.145 427.383 595.758 427.78C595.371 428.177 594.847 428.402 594.299 428.409C594.001 428.405 593.706 428.333 593.438 428.198C593.171 428.063 592.935 427.868 592.751 427.628C592.668 427.574 592.602 427.498 592.56 427.408L580.48 410.329V426.262Z" fill="#263238"/>
<path d="M603.52 426.262V403.474C603.516 403.194 603.568 402.917 603.671 402.658C603.774 402.399 603.927 402.163 604.12 401.966C604.313 401.768 604.543 401.612 604.796 401.506C605.048 401.401 605.319 401.348 605.592 401.351H610.048C613.549 401.351 616.906 402.775 619.381 405.31C621.857 407.845 623.247 411.283 623.247 414.868C623.247 418.453 621.857 421.891 619.381 424.426C616.906 426.961 613.549 428.385 610.048 428.385H605.592C605.043 428.385 604.516 428.161 604.127 427.763C603.738 427.365 603.52 426.825 603.52 426.262ZM607.713 424.091H610.096C612.484 424.091 614.775 423.119 616.464 421.39C618.153 419.66 619.102 417.314 619.102 414.868C619.102 412.422 618.153 410.076 616.464 408.347C614.775 406.617 612.484 405.645 610.096 405.645H607.713V424.091Z" fill="#263238"/>
</svg>
