<svg width="40" height="40" viewBox="0 0 40 40" fill="none" xmlns="http://www.w3.org/2000/svg">
<path d="M4.57051 39.8427C3.82207 39.6455 3.17613 39.3552 2.58035 38.9486C2.07754 38.6053 1.34254 37.8956 1.06301 37.4836C0.721604 36.9802 0.32926 36.1183 0.169261 35.5205C0.00613573 34.9106 0.00363575 34.6678 0.000510748 20.0307C-0.00230175 5.4677 0.000979508 5.14739 0.160823 4.52161C0.726291 2.30832 2.47707 0.624406 4.73519 0.121904C5.38441 -0.0224716 34.3875 -0.047628 35.0878 0.0953413C36.9839 0.483312 38.4742 1.62347 39.3366 3.34613C40.0222 4.71567 39.9609 3.20863 39.9923 19.4689C40.0123 29.8145 39.9939 34.158 39.928 34.6991C39.6192 37.2311 37.8758 39.1952 35.367 39.8369C34.7252 40.001 34.5019 40.0035 19.9313 39.9989C5.84316 39.9947 5.11972 39.9874 4.57051 39.8427Z" fill="white"/>
<mask id="path-2-inside-1_606_1128" fill="white">
<path d="M25.7716 34.5665C27.8039 34.2895 29.3965 33.4751 30.8905 31.9493C31.9713 30.8454 32.6478 29.6507 33.0901 28.0649C33.2736 27.4061 33.2891 27.0854 33.3227 23.2178C33.3482 20.2985 33.327 18.9312 33.251 18.5862C33.1408 18.0858 32.8284 17.6212 32.4719 17.4276C32.362 17.3679 31.6593 17.2919 30.91 17.2588C29.6543 17.203 29.5138 17.1786 29.1176 16.9463C28.4889 16.5779 28.3158 16.1804 28.314 15.1007C28.3107 13.0377 27.4518 11.1224 25.7551 9.39359C24.5462 8.16219 23.1976 7.32863 21.6586 6.86154C21.29 6.7496 20.4649 6.71151 17.7015 6.6791C13.3654 6.62773 12.4029 6.71665 10.9266 7.30436C8.20501 8.38803 6.24976 10.6717 5.53641 13.5997C5.40246 14.1497 5.37641 15.0309 5.3447 20.0937C5.30519 26.4364 5.34877 27.3677 5.74514 28.6246C6.07293 29.6631 6.40338 30.2995 7.08413 31.2027C8.38114 32.9235 10.3249 34.1661 12.2682 34.5171C13.1932 34.6842 24.603 34.726 25.7716 34.5667"/>
</mask>
<path d="M25.7716 34.5665C27.8039 34.2895 29.3965 33.4751 30.8905 31.9493C31.9713 30.8454 32.6478 29.6507 33.0901 28.0649C33.2736 27.4061 33.2891 27.0854 33.3227 23.2178C33.3482 20.2985 33.327 18.9312 33.251 18.5862C33.1408 18.0858 32.8284 17.6212 32.4719 17.4276C32.362 17.3679 31.6593 17.2919 30.91 17.2588C29.6543 17.203 29.5138 17.1786 29.1176 16.9463C28.4889 16.5779 28.3158 16.1804 28.314 15.1007C28.3107 13.0377 27.4518 11.1224 25.7551 9.39359C24.5462 8.16219 23.1976 7.32863 21.6586 6.86154C21.29 6.7496 20.4649 6.71151 17.7015 6.6791C13.3654 6.62773 12.4029 6.71665 10.9266 7.30436C8.20501 8.38803 6.24976 10.6717 5.53641 13.5997C5.40246 14.1497 5.37641 15.0309 5.3447 20.0937C5.30519 26.4364 5.34877 27.3677 5.74514 28.6246C6.07293 29.6631 6.40338 30.2995 7.08413 31.2027C8.38114 32.9235 10.3249 34.1661 12.2682 34.5171C13.1932 34.6842 24.603 34.726 25.7716 34.5667" fill="white"/>
<path d="M30.8905 31.9493L32.3195 33.3486L32.3195 33.3485L30.8905 31.9493ZM33.0901 28.0649L35.0166 28.6021L35.0167 28.6017L33.0901 28.0649ZM33.3227 23.2178L31.3228 23.2003V23.2003L33.3227 23.2178ZM33.251 18.5862L31.2978 19.0164L31.2978 19.0165L33.251 18.5862ZM32.4719 17.4276L31.517 19.1849L31.5174 19.1852L32.4719 17.4276ZM30.91 17.2588L30.8212 19.2568L30.8217 19.2568L30.91 17.2588ZM29.1176 16.9463L30.1289 15.2209L30.1288 15.2208L29.1176 16.9463ZM28.314 15.1007L26.314 15.1039V15.104L28.314 15.1007ZM25.7551 9.39359L27.1825 7.99267L27.1823 7.99245L25.7551 9.39359ZM21.6586 6.86154L21.0773 8.77521L21.0777 8.77534L21.6586 6.86154ZM17.7015 6.6791L17.6778 8.67896L17.678 8.67896L17.7015 6.6791ZM10.9266 7.30436L10.1869 5.44619L10.1867 5.44624L10.9266 7.30436ZM5.53641 13.5997L3.59325 13.1263L3.59322 13.1264L5.53641 13.5997ZM5.3447 20.0937L3.34474 20.0812L3.34474 20.0813L5.3447 20.0937ZM5.74514 28.6246L3.83773 29.2261L3.83789 29.2266L5.74514 28.6246ZM7.08413 31.2027L8.68128 29.9989L8.68127 29.9989L7.08413 31.2027ZM12.2682 34.5171L11.9127 36.4853L11.9128 36.4853L12.2682 34.5171ZM26.0417 36.5482C28.5336 36.2086 30.5285 35.1777 32.3195 33.3486L29.4615 30.55C28.2645 31.7725 27.0743 32.3705 25.5015 32.5849L26.0417 36.5482ZM32.3195 33.3485C33.6517 31.988 34.4899 30.4906 35.0166 28.6021L31.1636 27.5276C30.8057 28.8108 30.291 29.7029 29.4615 30.5501L32.3195 33.3485ZM35.0167 28.6017C35.2907 27.6184 35.2904 26.9441 35.3227 23.2352L31.3228 23.2003C31.2878 27.2267 31.2566 27.1939 31.1635 27.528L35.0167 28.6017ZM35.3227 23.2352C35.3354 21.7723 35.3367 20.6808 35.3247 19.9056C35.3143 19.2341 35.2956 18.571 35.2041 18.1559L31.2978 19.0165C31.2824 18.9465 31.3123 19.1395 31.3252 19.9677C31.3364 20.6922 31.3355 21.7439 31.3228 23.2003L35.3227 23.2352ZM35.2042 18.156C35.0046 17.25 34.4211 16.2103 33.4263 15.67L31.5174 19.1852C31.4224 19.1336 31.3646 19.0832 31.337 19.0565C31.3082 19.0286 31.296 19.0107 31.2941 19.0079C31.2939 19.0076 31.2979 19.017 31.2978 19.0164L35.2042 18.156ZM33.4268 15.6703C33.1769 15.5345 32.9441 15.4781 32.8924 15.4651C32.7938 15.4403 32.7003 15.4225 32.6266 15.4098C32.4761 15.3838 32.3089 15.3625 32.1457 15.3448C31.814 15.309 31.4082 15.2789 30.9983 15.2608L30.8217 19.2568C31.1611 19.2719 31.4813 19.2963 31.7158 19.3217C31.8356 19.3346 31.9115 19.3455 31.9472 19.3516C31.9664 19.355 31.9517 19.3531 31.9155 19.344C31.8971 19.3394 31.8569 19.3288 31.8037 19.3108C31.7605 19.2962 31.6507 19.2576 31.517 19.1849L33.4268 15.6703ZM30.9988 15.2608C30.684 15.2468 30.4633 15.2358 30.296 15.224C30.1255 15.212 30.0564 15.2022 30.0349 15.1984C30.0305 15.1977 30.0759 15.206 30.1385 15.2314C30.1869 15.251 30.2037 15.2647 30.1289 15.2209L28.1062 18.6718C28.4258 18.8591 28.7905 19.0418 29.348 19.139C29.7446 19.2081 30.2409 19.231 30.8212 19.2568L30.9988 15.2608ZM30.1288 15.2208C30.0679 15.1851 30.0943 15.1926 30.1499 15.2488C30.179 15.2783 30.2115 15.3165 30.2427 15.3625C30.274 15.4086 30.2976 15.4532 30.3145 15.4919C30.347 15.5666 30.3433 15.5941 30.334 15.5253C30.3241 15.4524 30.3144 15.3223 30.314 15.0974L26.314 15.104C26.315 15.6876 26.3511 16.409 26.647 17.0887C26.9932 17.8839 27.567 18.3558 28.1063 18.6719L30.1288 15.2208ZM30.314 15.0974C30.3097 12.4213 29.1769 10.0247 27.1825 7.99267L24.3277 10.7945C25.7268 12.22 26.3117 13.654 26.314 15.1039L30.314 15.0974ZM27.1823 7.99245C25.7563 6.53995 24.1223 5.51919 22.2394 4.94774L21.0777 8.77534C22.2729 9.13807 23.3361 9.78444 24.3279 10.7947L27.1823 7.99245ZM22.2398 4.94787C21.785 4.8097 21.25 4.76935 20.6702 4.74262C20.0333 4.71325 19.1033 4.6954 17.7249 4.67924L17.678 8.67896C19.063 8.69521 19.9274 8.71261 20.486 8.73837C21.1018 8.76677 21.1636 8.80143 21.0773 8.77521L22.2398 4.94787ZM17.7252 4.67924C13.4335 4.6284 12.0833 4.69124 10.1869 5.44619L11.6663 9.16253C12.7225 8.74206 13.2973 8.62706 17.6778 8.67896L17.7252 4.67924ZM10.1867 5.44624C6.84323 6.77755 4.45464 9.59071 3.59325 13.1263L7.47957 14.0731C8.04489 11.7528 9.56679 9.99852 11.6665 9.16248L10.1867 5.44624ZM3.59322 13.1264C3.47134 13.6268 3.43029 14.174 3.40309 15.0954C3.37504 16.0455 3.36055 17.5573 3.34474 20.0812L7.34466 20.1063C7.36056 17.5674 7.37496 16.1071 7.40135 15.2134C7.42858 14.2909 7.46753 14.1225 7.47961 14.073L3.59322 13.1264ZM3.34474 20.0813C3.30622 26.2647 3.32273 27.593 3.83773 29.2261L7.65254 28.0231C7.37482 27.1424 7.30416 26.608 7.34466 20.1062L3.34474 20.0813ZM3.83789 29.2266C4.23668 30.49 4.67467 31.3288 5.48699 32.4065L8.68127 29.9989C8.1321 29.2703 7.90919 28.8362 7.65239 28.0226L3.83789 29.2266ZM5.48699 32.4065C7.05698 34.4895 9.42713 36.0363 11.9127 36.4853L12.6238 32.549C11.2226 32.2959 9.70529 31.3575 8.68128 29.9989L5.48699 32.4065ZM11.9128 36.4853C12.193 36.5359 12.6274 36.5572 12.9827 36.572C13.4058 36.5897 13.9479 36.6047 14.5631 36.6173C15.7958 36.6425 17.3571 36.6585 18.9212 36.6643C20.4855 36.67 22.0616 36.6655 23.3242 36.6495C24.5052 36.6345 25.5955 36.6092 26.0416 36.5484L25.5015 32.585C25.5113 32.5837 25.4644 32.5895 25.3242 32.5975C25.1984 32.6046 25.0331 32.6116 24.8291 32.6182C24.422 32.6314 23.8914 32.642 23.2734 32.6498C22.039 32.6655 20.4858 32.67 18.9359 32.6643C17.3859 32.6586 15.8482 32.6428 14.6449 32.6182C14.0421 32.6058 13.5319 32.5915 13.1495 32.5755C12.6992 32.5567 12.5747 32.5401 12.6237 32.549L11.9128 36.4853Z" fill="url(#paint0_linear_606_1128)" mask="url(#path-2-inside-1_606_1128)"/>
<path d="M20.5326 15.9509C20.5172 15.9257 20.4693 15.8595 20.293 15.7707L20.5326 15.9509ZM20.5326 15.9509C20.5486 15.977 20.587 16.053 20.587 16.2571M20.5326 15.9509L20.587 16.2571M20.587 16.2571C20.587 16.4138 20.5582 16.4907 20.5348 16.5338M20.587 16.2571L20.5348 16.5338M20.5348 16.5338C20.5112 16.5775 20.4595 16.6485 20.3225 16.7421M20.5348 16.5338L20.3225 16.7421M20.3225 16.7421L20.2874 16.7644C20.2835 16.7651 20.2791 16.7658 20.2741 16.7665C20.2441 16.771 20.1998 16.7762 20.1351 16.7814C19.8577 16.8037 19.3745 16.8138 18.4325 16.8211C18.4321 16.8211 18.4318 16.8211 18.4314 16.8211L17.2362 16.8279C17.2356 16.8279 17.235 16.8279 17.2344 16.8279C16.4969 16.8294 15.8494 16.8224 15.3673 16.8091C15.1252 16.8024 14.9316 16.7943 14.792 16.7854C14.7187 16.7808 14.6752 16.7766 14.654 16.7745C14.5507 16.7326 14.4264 16.6161 14.3688 16.396C14.3059 16.1552 14.3721 15.9756 14.4568 15.8887L14.5198 15.8264C14.5595 15.7882 14.5787 15.7732 14.5855 15.7684C14.5935 15.7649 14.6382 15.7478 14.7601 15.7302C15.0932 15.6821 15.6803 15.6686 16.9199 15.6667L18.7418 15.6681C19.5262 15.6717 19.8833 15.6831 20.0828 15.7061C20.1661 15.7157 20.1927 15.7245 20.1963 15.7256L20.1965 15.7257L20.1966 15.7257C20.2029 15.7278 20.2167 15.7323 20.2927 15.7705L20.3225 16.7421ZM14.3341 26.4879L14.3341 26.4878C14.331 26.4677 14.3306 26.3683 14.3838 26.2232C14.4343 26.0857 14.4989 26.0004 14.5294 25.9708L14.5747 25.9315C14.6125 25.9199 14.7143 25.896 14.9522 25.8746C15.4571 25.8292 16.3349 25.8128 18.0002 25.8069C18.0005 25.8069 18.0008 25.8069 18.001 25.8069L21.8162 25.803C21.8163 25.803 21.8165 25.803 21.8166 25.803C23.7772 25.8044 24.6746 25.8197 25.1485 25.8783C25.3023 25.8974 25.3674 25.9166 25.3865 25.9233C25.3971 25.9321 25.4283 25.9589 25.5031 26.0285C25.7216 26.232 25.7232 26.6051 25.4877 26.8237L24.8432 26.9282L19.3768 26.9912C19.3764 26.9912 19.376 26.9912 19.3756 26.9912C17.5119 27.0086 16.3136 26.9988 15.5582 26.9741C15.1793 26.9618 14.9248 26.9461 14.7596 26.93C14.7072 26.9249 14.6695 26.9202 14.6439 26.9166C14.599 26.8862 14.5335 26.8307 14.4666 26.7441C14.3721 26.6217 14.339 26.5204 14.3341 26.4879ZM25.3929 25.9258C25.3929 25.9258 25.3923 25.9256 25.3911 25.9251L25.3929 25.9258ZM14.5885 15.7665C14.5884 15.7666 14.5874 15.7674 14.5856 15.7683C14.5877 15.7668 14.5886 15.7664 14.5885 15.7665ZM14.5852 15.7685C14.5851 15.7686 14.5849 15.7687 14.5848 15.7687L14.5852 15.7685ZM14.6856 16.7853L14.6852 16.7852L14.6856 16.7853Z" fill="white" stroke="url(#paint1_linear_606_1128)" stroke-width="2"/>
<defs>
<linearGradient id="paint0_linear_606_1128" x1="5.33301" y1="20.6667" x2="33.333" y2="20.6667" gradientUnits="userSpaceOnUse">
<stop stop-color="#FFC100"/>
<stop offset="1" stop-color="#FF9D00"/>
</linearGradient>
<linearGradient id="paint1_linear_606_1128" x1="13.333" y1="21.3333" x2="26.6663" y2="21.3333" gradientUnits="userSpaceOnUse">
<stop stop-color="#FFC100"/>
<stop offset="1" stop-color="#FF9D00"/>
</linearGradient>
</defs>
</svg>
