                        <svg width="30" height="31" viewBox="0 0 30 31" fill="none" xmlns="http://www.w3.org/2000/svg">
<path d="M3.42788 30.1042C2.86655 29.9563 2.3821 29.7386 1.93526 29.4336C1.55816 29.1762 1.00691 28.6439 0.797257 28.3349C0.541203 27.9573 0.246945 27.3109 0.126945 26.8625C0.0046018 26.4051 0.00272681 26.223 0.000383061 15.2452C-0.00172631 4.32295 0.000734631 4.08271 0.120617 3.61337C0.544719 1.95341 1.8578 0.690472 3.5514 0.313596C4.03831 0.205314 25.7906 0.186447 26.3159 0.293674C27.7379 0.584652 28.8557 1.43977 29.5024 2.73177C30.0166 3.75892 29.9707 2.62864 29.9943 14.8238C30.0093 22.5831 29.9954 25.8406 29.946 26.2465C29.7144 28.1455 28.4068 29.6185 26.5253 30.0998C26.0439 30.2229 25.8764 30.2248 14.9485 30.2214C4.38237 30.2182 3.83979 30.2127 3.42788 30.1042Z" fill="white"/>
<mask id="path-2-inside-1_269_133" fill="white">
<path d="M19.3289 26.1471C20.8532 25.9393 22.0476 25.3285 23.1681 24.1842C23.9787 23.3563 24.4861 22.4602 24.8178 21.2708C24.9555 20.7768 24.967 20.5362 24.9923 17.6355C25.0114 15.4461 24.9955 14.4206 24.9385 14.1618C24.8558 13.7865 24.6215 13.4381 24.3542 13.2929C24.2718 13.2481 23.7447 13.1911 23.1827 13.1663C22.2409 13.1244 22.1356 13.1061 21.8384 12.9319C21.3669 12.6556 21.2371 12.3575 21.2358 11.5477C21.2332 10.0004 20.5891 8.56395 19.3166 7.26737C18.4099 6.34382 17.3985 5.71865 16.2442 5.36833C15.9678 5.28437 15.3489 5.25581 13.2764 5.2315C10.0243 5.19297 9.30242 5.25966 8.19519 5.70045C6.154 6.5132 4.68757 8.22599 4.15255 10.4219C4.05209 10.8344 4.03256 11.4953 4.00877 15.2925C3.97913 20.0494 4.01182 20.7479 4.3091 21.6906C4.55494 22.4695 4.80278 22.9468 5.31334 23.6242C6.2861 24.9148 7.74389 25.8467 9.20143 26.11C9.89511 26.2353 18.4525 26.2667 19.3289 26.1472"/>
</mask>
<path d="M19.3289 26.1471C20.8532 25.9393 22.0476 25.3285 23.1681 24.1842C23.9787 23.3563 24.4861 22.4602 24.8178 21.2708C24.9555 20.7768 24.967 20.5362 24.9923 17.6355C25.0114 15.4461 24.9955 14.4206 24.9385 14.1618C24.8558 13.7865 24.6215 13.4381 24.3542 13.2929C24.2718 13.2481 23.7447 13.1911 23.1827 13.1663C22.2409 13.1244 22.1356 13.1061 21.8384 12.9319C21.3669 12.6556 21.2371 12.3575 21.2358 11.5477C21.2332 10.0004 20.5891 8.56395 19.3166 7.26737C18.4099 6.34382 17.3985 5.71865 16.2442 5.36833C15.9678 5.28437 15.3489 5.25581 13.2764 5.2315C10.0243 5.19297 9.30242 5.25966 8.19519 5.70045C6.154 6.5132 4.68757 8.22599 4.15255 10.4219C4.05209 10.8344 4.03256 11.4953 4.00877 15.2925C3.97913 20.0494 4.01182 20.7479 4.3091 21.6906C4.55494 22.4695 4.80278 22.9468 5.31334 23.6242C6.2861 24.9148 7.74389 25.8467 9.20143 26.11C9.89511 26.2353 18.4525 26.2667 19.3289 26.1472" fill="white"/>
<path d="M23.1681 24.1842L24.5971 25.5834L24.5972 25.5834L23.1681 24.1842ZM24.8178 21.2708L26.7443 21.8081L26.7444 21.8077L24.8178 21.2708ZM24.9923 17.6355L22.9924 17.618V17.6181L24.9923 17.6355ZM24.9385 14.1618L22.9853 14.592L22.9853 14.5921L24.9385 14.1618ZM24.3542 13.2929L23.3993 15.0502L23.3997 15.0504L24.3542 13.2929ZM23.1827 13.1663L23.094 15.1643L23.0944 15.1643L23.1827 13.1663ZM21.8384 12.9319L22.8498 11.2065L22.8497 11.2064L21.8384 12.9319ZM21.2358 11.5477L19.2358 11.5509V11.551L21.2358 11.5477ZM19.3166 7.26737L20.744 5.86644L20.7437 5.86623L19.3166 7.26737ZM16.2442 5.36833L15.6629 7.282L15.6633 7.28213L16.2442 5.36833ZM13.2764 5.2315L13.2527 7.23136L13.2529 7.23136L13.2764 5.2315ZM8.19519 5.70045L7.45546 3.84227L7.45533 3.84233L8.19519 5.70045ZM4.15255 10.4219L2.20939 9.94851L2.20936 9.94866L4.15255 10.4219ZM4.00877 15.2925L2.00881 15.28L2.00881 15.28L4.00877 15.2925ZM4.3091 21.6906L2.40169 22.2921L2.40185 22.2926L4.3091 21.6906ZM5.31334 23.6242L6.91049 22.4204L6.91048 22.4204L5.31334 23.6242ZM9.20143 26.11L8.84588 28.0782L8.84599 28.0782L9.20143 26.11ZM19.5991 28.1288C21.5828 27.8584 23.1796 27.0311 24.5971 25.5834L21.7391 22.7849C20.9156 23.6259 20.1235 24.0203 19.0588 24.1654L19.5991 28.1288ZM24.5972 25.5834C25.6591 24.4988 26.3282 23.3001 26.7443 21.8081L22.8913 20.7336C22.644 21.6203 22.2984 22.2137 21.7391 22.7849L24.5972 25.5834ZM26.7444 21.8077C26.9725 20.989 26.9683 20.3949 26.9922 17.6529L22.9924 17.6181C22.9657 20.6775 22.9384 20.5645 22.8912 20.734L26.7444 21.8077ZM26.9922 17.653C27.0018 16.555 27.0028 15.7313 26.9937 15.1437C26.9862 14.6595 26.9736 14.1035 26.8916 13.7315L22.9853 14.5921C22.961 14.4816 22.9674 14.448 22.9767 14.6162C22.9838 14.745 22.99 14.9361 22.9942 15.2057C23.0025 15.7428 23.0019 16.5266 22.9924 17.618L26.9922 17.653ZM26.8917 13.7316C26.7197 12.9507 26.2143 12.0272 25.3086 11.5353L23.3997 15.0504C23.2824 14.9867 23.203 14.92 23.1551 14.8736C23.106 14.8261 23.0749 14.7853 23.0559 14.7571C23.0216 14.706 22.9992 14.6551 22.9853 14.592L26.8917 13.7316ZM25.309 11.5356C25.0626 11.4016 24.8355 11.3472 24.7916 11.3362C24.7009 11.3133 24.6172 11.2975 24.5551 11.2868C24.4279 11.2648 24.2911 11.2475 24.1632 11.2337C23.9023 11.2055 23.5873 11.1822 23.2711 11.1682L23.0944 15.1643C23.3402 15.1752 23.5696 15.1928 23.7334 15.2105C23.8178 15.2197 23.8633 15.2265 23.8757 15.2286C23.8833 15.23 23.8587 15.2261 23.8148 15.215C23.7924 15.2094 23.7489 15.1979 23.6928 15.1789C23.6639 15.1692 23.6251 15.1552 23.5795 15.1363C23.5354 15.118 23.4725 15.09 23.3993 15.0502L25.309 11.5356ZM23.2715 11.1682C23.0353 11.1578 22.8756 11.1497 22.7573 11.1414C22.6358 11.1329 22.6036 11.1269 22.6122 11.1284C22.638 11.1329 22.707 11.1479 22.7917 11.1822C22.8622 11.2108 22.8998 11.2358 22.8498 11.2065L20.8271 14.6574C21.0972 14.8157 21.4283 14.9824 21.9254 15.069C22.2616 15.1276 22.6706 15.1455 23.094 15.1643L23.2715 11.1682ZM22.8497 11.2064C22.828 11.1937 22.8867 11.2247 22.9683 11.3074C23.0612 11.4013 23.1408 11.5182 23.1945 11.6415C23.2423 11.7513 23.2489 11.8194 23.2462 11.7992C23.243 11.7751 23.236 11.7018 23.2358 11.5444L19.2358 11.551C19.2365 11.9996 19.2617 12.6287 19.5271 13.2383C19.8428 13.9634 20.3664 14.3874 20.8272 14.6574L22.8497 11.2064ZM23.2358 11.5444C23.2322 9.38403 22.3142 7.46633 20.744 5.86644L17.8892 8.66829C18.8641 9.66157 19.2342 10.6168 19.2358 11.5509L23.2358 11.5444ZM20.7437 5.86623C19.62 4.72157 18.3231 3.90921 16.825 3.45453L15.6633 7.28213C16.4738 7.52809 17.1998 7.96607 17.8894 8.66851L20.7437 5.86623ZM16.8254 3.45466C16.4166 3.33048 15.9563 3.29951 15.5259 3.27967C15.0384 3.25719 14.3328 3.24375 13.2998 3.23164L13.2529 7.23136C14.2924 7.24356 14.9325 7.25656 15.3417 7.27542C15.808 7.29693 15.7953 7.32222 15.6629 7.282L16.8254 3.45466ZM13.3 3.23164C10.0924 3.19364 8.9828 3.23425 7.45546 3.84227L8.93491 7.55862C9.62204 7.28508 9.95618 7.19231 13.2527 7.23136L13.3 3.23164ZM7.45533 3.84233C4.79223 4.90272 2.89244 7.14495 2.20939 9.94851L6.09571 10.8954C6.48269 9.30702 7.51578 8.12369 8.93505 7.55857L7.45533 3.84233ZM2.20936 9.94866C2.10423 10.3803 2.07318 10.8381 2.05278 11.5289C2.03153 12.2486 2.02065 13.3889 2.00881 15.28L6.00873 15.305C6.02067 13.399 6.03145 12.3102 6.05104 11.647C6.07147 10.955 6.10042 10.8761 6.09575 10.8952L2.20936 9.94866ZM2.00881 15.28C1.98016 19.8778 1.98578 20.9732 2.40169 22.2921L6.2165 21.0891C6.03787 20.5227 5.9781 20.2211 6.00873 15.3049L2.00881 15.28ZM2.40185 22.2926C2.71869 23.2964 3.07407 23.9761 3.71621 24.828L6.91048 22.4204C6.53149 21.9176 6.3912 21.6426 6.21635 21.0886L2.40185 22.2926ZM3.7162 24.828C4.96194 26.4808 6.84615 27.7169 8.84588 28.0782L9.55697 24.1419C8.64163 23.9765 7.61025 23.3488 6.91049 22.4204L3.7162 24.828ZM8.84599 28.0782C9.09729 28.1236 9.46179 28.1401 9.71638 28.1507C10.0388 28.1642 10.4494 28.1756 10.9123 28.1851C11.8405 28.2041 13.0145 28.2161 14.1893 28.2204C15.3643 28.2247 16.5493 28.2213 17.4997 28.2092C18.3686 28.1982 19.2259 28.1798 19.599 28.1289L19.0589 24.1655C19.0704 24.164 18.9481 24.175 18.6059 24.1861C18.3052 24.1958 17.9109 24.2037 17.4489 24.2096C16.5267 24.2213 15.3646 24.2247 14.204 24.2204C13.0432 24.2161 11.893 24.2043 10.9942 24.1859C10.5436 24.1767 10.165 24.166 9.88324 24.1542C9.53365 24.1396 9.47898 24.1278 9.55686 24.1419L8.84599 28.0782Z" fill="url(#paint0_linear_269_133)" mask="url(#path-2-inside-1_269_133)"/>
<path d="M15.1836 12.3186C15.171 12.3092 15.1473 12.2935 15.1076 12.2735L15.1836 12.3186ZM15.1836 12.3186C15.1867 12.3351 15.1905 12.3657 15.1905 12.415C15.1905 12.4593 15.1862 12.4842 15.1838 12.4951L15.1836 12.3186ZM15.1814 12.5037C15.1772 12.5096 15.1625 12.5272 15.1253 12.5551C15.1131 12.5563 15.0986 12.5577 15.0815 12.559C14.8845 12.5749 14.5323 12.5825 13.8229 12.588C13.8226 12.588 13.8222 12.588 13.8219 12.588L12.9251 12.5931C12.3737 12.5942 11.8909 12.589 11.5326 12.5791C11.3525 12.5741 11.2105 12.5681 11.1101 12.5618C11.0948 12.5608 11.0814 12.5598 11.0698 12.559C11.0698 12.5589 11.0697 12.5588 11.0696 12.5587C11.0532 12.5403 11.0317 12.5054 11.0188 12.4559C11.0059 12.4066 11.0071 12.364 11.0129 12.3373C11.0156 12.3251 11.0187 12.3184 11.02 12.3159C11.0206 12.3148 11.021 12.3142 11.0212 12.3139L11.0608 12.2747C11.0724 12.2725 11.0873 12.2699 11.106 12.2672C11.3341 12.2343 11.7534 12.2236 12.6902 12.2222L14.0559 12.2232C14.6475 12.226 14.9005 12.2348 15.0338 12.2501C15.051 12.2521 15.0628 12.2539 15.0702 12.2551C15.0774 12.2585 15.0892 12.2642 15.1074 12.2734L15.1814 12.5037ZM15.1814 12.5037C15.1814 12.5037 15.1815 12.5036 15.1815 12.5035M15.1814 12.5037L15.181 12.5046C15.181 12.5046 15.1811 12.5045 15.1812 12.5041C15.1813 12.5039 15.1814 12.5037 15.1815 12.5035M15.1815 12.5035C15.1824 12.5023 15.1828 12.5016 15.1827 12.5016C15.1827 12.5016 15.1822 12.5022 15.1815 12.5035ZM18.9572 19.9266C18.9883 19.9555 19.0056 19.9958 18.9985 20.0511C18.9959 20.0716 18.9903 20.0908 18.9816 20.1085L18.6111 20.1685L14.5305 20.2156C14.5301 20.2156 14.5297 20.2156 14.5293 20.2156C13.1328 20.2286 12.2383 20.2212 11.677 20.2029C11.3952 20.1937 11.2104 20.1821 11.0942 20.1708C11.0911 20.1705 11.0881 20.1702 11.0852 20.1699C11.0734 20.158 11.0607 20.1437 11.0481 20.1274C11.0265 20.0995 11.0112 20.0732 11.002 20.0536C11.002 20.0535 11.002 20.0534 11.002 20.0534C11.005 20.0338 11.0115 20.0066 11.0228 19.9757C11.0341 19.9448 11.0474 19.9182 11.0594 19.8985C11.0955 19.8925 11.1521 19.8847 11.2368 19.8771C11.6024 19.8442 12.2486 19.8318 13.501 19.8274C13.5013 19.8274 13.5016 19.8273 13.5019 19.8273L16.3622 19.8244C16.3623 19.8244 16.3625 19.8244 16.3627 19.8244C17.8406 19.8255 18.4946 19.8374 18.8309 19.879C18.8708 19.884 18.8999 19.8887 18.9202 19.8925C18.9301 19.9015 18.9423 19.9127 18.9572 19.9266ZM11.0837 12.5713C11.0837 12.5714 11.0833 12.5712 11.0824 12.5707L11.0837 12.5713Z" fill="white" stroke="url(#paint1_linear_269_133)" stroke-width="2"/>
<defs>
<linearGradient id="paint0_linear_269_133" x1="4" y1="15.7222" x2="25" y2="15.7222" gradientUnits="userSpaceOnUse">
<stop stop-color="#FFDF41"/>
<stop offset="1" stop-color="#FF8800"/>
</linearGradient>
<linearGradient id="paint1_linear_269_133" x1="10" y1="16.2222" x2="20" y2="16.2222" gradientUnits="userSpaceOnUse">
<stop stop-color="#FFDF41"/>
<stop offset="1" stop-color="#FF8800"/>
</linearGradient>
</defs>
</svg>