<svg width="30" height="30" viewBox="0 0 30 30" fill="none" xmlns="http://www.w3.org/2000/svg">
<path d="M3.42788 29.882C2.86655 29.7341 2.3821 29.5164 1.93526 29.2115C1.55816 28.954 1.00691 28.4217 0.797257 28.1127C0.541203 27.7351 0.246945 27.0887 0.126945 26.6404C0.0046018 26.183 0.00272681 26.0009 0.000383061 15.023C-0.00172631 4.10078 0.000734631 3.86054 0.120617 3.39121C0.544719 1.73124 1.8578 0.468304 3.5514 0.0914279C4.03831 -0.0168537 25.7906 -0.035721 26.3159 0.071506C27.7379 0.362484 28.8557 1.2176 29.5024 2.5096C30.0166 3.53675 29.9707 2.40648 29.9943 14.6016C30.0093 22.3609 29.9954 25.6185 29.946 26.0243C29.7144 27.9233 28.4068 29.3964 26.5253 29.8777C26.0439 30.0007 25.8764 30.0026 14.9485 29.9992C4.38237 29.996 3.83979 29.9905 3.42788 29.882Z" fill="white"/>
<mask id="path-2-inside-1_321_210" fill="white">
<path d="M19.3289 25.9249C20.8532 25.7171 22.0476 25.1063 23.1681 23.962C23.9787 23.1341 24.4861 22.238 24.8178 21.0487C24.9555 20.5546 24.967 20.314 24.9923 17.4133C25.0114 15.2239 24.9955 14.1984 24.9385 13.9397C24.8558 13.5644 24.6215 13.2159 24.3542 13.0707C24.2718 13.0259 23.7447 12.969 23.1827 12.9441C22.2409 12.9023 22.1356 12.8839 21.8384 12.7098C21.3669 12.4334 21.2371 12.1353 21.2358 11.3255C21.2332 9.77825 20.5891 8.34178 19.3166 7.0452C18.4099 6.12165 17.3985 5.49648 16.2442 5.14616C15.9678 5.0622 15.3489 5.03364 13.2764 5.00933C10.0243 4.97081 9.30242 5.03749 8.19519 5.47828C6.154 6.29103 4.68757 8.00382 4.15255 10.1998C4.05209 10.6123 4.03256 11.2732 4.00877 15.0703C3.97913 19.8273 4.01182 20.5258 4.3091 21.4685C4.55494 22.2473 4.80278 22.7247 5.31334 23.402C6.2861 24.6926 7.74389 25.6246 9.20143 25.8879C9.89511 26.0131 18.4525 26.0445 19.3289 25.9251"/>
</mask>
<path d="M19.3289 25.9249C20.8532 25.7171 22.0476 25.1063 23.1681 23.962C23.9787 23.1341 24.4861 22.238 24.8178 21.0487C24.9555 20.5546 24.967 20.314 24.9923 17.4133C25.0114 15.2239 24.9955 14.1984 24.9385 13.9397C24.8558 13.5644 24.6215 13.2159 24.3542 13.0707C24.2718 13.0259 23.7447 12.969 23.1827 12.9441C22.2409 12.9023 22.1356 12.8839 21.8384 12.7098C21.3669 12.4334 21.2371 12.1353 21.2358 11.3255C21.2332 9.77825 20.5891 8.34178 19.3166 7.0452C18.4099 6.12165 17.3985 5.49648 16.2442 5.14616C15.9678 5.0622 15.3489 5.03364 13.2764 5.00933C10.0243 4.97081 9.30242 5.03749 8.19519 5.47828C6.154 6.29103 4.68757 8.00382 4.15255 10.1998C4.05209 10.6123 4.03256 11.2732 4.00877 15.0703C3.97913 19.8273 4.01182 20.5258 4.3091 21.4685C4.55494 22.2473 4.80278 22.7247 5.31334 23.402C6.2861 24.6926 7.74389 25.6246 9.20143 25.8879C9.89511 26.0131 18.4525 26.0445 19.3289 25.9251" fill="white"/>
<path d="M23.1681 23.962L24.5971 25.3612L24.5972 25.3612L23.1681 23.962ZM24.8178 21.0487L26.7443 21.5859L26.7444 21.5855L24.8178 21.0487ZM24.9923 17.4133L22.9924 17.3958V17.3959L24.9923 17.4133ZM24.9385 13.9397L22.9853 14.3698L22.9853 14.3699L24.9385 13.9397ZM24.3542 13.0707L23.3993 14.828L23.3997 14.8283L24.3542 13.0707ZM23.1827 12.9441L23.094 14.9421L23.0944 14.9422L23.1827 12.9441ZM21.8384 12.7098L22.8498 10.9843L22.8497 10.9843L21.8384 12.7098ZM21.2358 11.3255L19.2358 11.3288V11.3288L21.2358 11.3255ZM19.3166 7.0452L20.744 5.64428L20.7437 5.64406L19.3166 7.0452ZM16.2442 5.14616L15.6629 7.05983L15.6633 7.05997L16.2442 5.14616ZM13.2764 5.00933L13.2527 7.00919L13.2529 7.00919L13.2764 5.00933ZM8.19519 5.47828L7.45546 3.62011L7.45533 3.62016L8.19519 5.47828ZM4.15255 10.1998L2.20939 9.72634L2.20936 9.72649L4.15255 10.1998ZM4.00877 15.0703L2.00881 15.0578L2.00881 15.0579L4.00877 15.0703ZM4.3091 21.4685L2.40169 22.07L2.40185 22.0705L4.3091 21.4685ZM5.31334 23.402L6.91049 22.1982L6.91048 22.1982L5.31334 23.402ZM9.20143 25.8879L8.84588 27.856L8.84599 27.856L9.20143 25.8879ZM19.5991 27.9066C21.5828 27.6362 23.1796 26.8089 24.5971 25.3612L21.7391 22.5627C20.9156 23.4037 20.1235 23.7981 19.0588 23.9432L19.5991 27.9066ZM24.5972 25.3612C25.6591 24.2767 26.3282 23.0779 26.7443 21.5859L22.8913 20.5114C22.644 21.3982 22.2984 21.9915 21.7391 22.5628L24.5972 25.3612ZM26.7444 21.5855C26.9725 20.7669 26.9683 20.1727 26.9922 17.4307L22.9924 17.3959C22.9657 20.4553 22.9384 20.3424 22.8912 20.5118L26.7444 21.5855ZM26.9922 17.4308C27.0018 16.3328 27.0028 15.5092 26.9937 14.9215C26.9862 14.4374 26.9736 13.8813 26.8916 13.5094L22.9853 14.3699C22.961 14.2595 22.9674 14.2258 22.9767 14.394C22.9838 14.5228 22.99 14.7139 22.9942 14.9835C23.0025 15.5206 23.0019 16.3044 22.9924 17.3958L26.9922 17.4308ZM26.8917 13.5095C26.7197 12.7285 26.2143 11.805 25.3086 11.3132L23.3997 14.8283C23.2824 14.7646 23.203 14.6979 23.1551 14.6515C23.106 14.604 23.0749 14.5631 23.0559 14.5349C23.0216 14.4839 22.9992 14.433 22.9853 14.3698L26.8917 13.5095ZM25.309 11.3134C25.0626 11.1795 24.8355 11.125 24.7916 11.114C24.7009 11.0911 24.6172 11.0753 24.5551 11.0646C24.4279 11.0427 24.2911 11.0253 24.1632 11.0115C23.9023 10.9833 23.5873 10.96 23.2711 10.9461L23.0944 14.9422C23.3402 14.953 23.5696 14.9707 23.7334 14.9884C23.8178 14.9975 23.8633 15.0043 23.8757 15.0065C23.8833 15.0078 23.8587 15.0039 23.8148 14.9929C23.7924 14.9872 23.7489 14.9757 23.6928 14.9568C23.6639 14.947 23.6251 14.933 23.5795 14.9141C23.5354 14.8958 23.4725 14.8678 23.3993 14.828L25.309 11.3134ZM23.2715 10.9461C23.0353 10.9356 22.8756 10.9276 22.7573 10.9192C22.6358 10.9107 22.6036 10.9048 22.6122 10.9063C22.638 10.9108 22.707 10.9258 22.7917 10.96C22.8622 10.9886 22.8998 11.0136 22.8498 10.9843L20.8271 14.4352C21.0972 14.5935 21.4283 14.7602 21.9254 14.8469C22.2616 14.9054 22.6706 14.9233 23.094 14.9421L23.2715 10.9461ZM22.8497 10.9843C22.828 10.9716 22.8867 11.0025 22.9683 11.0852C23.0612 11.1792 23.1408 11.296 23.1945 11.4193C23.2423 11.5291 23.2489 11.5972 23.2462 11.5771C23.243 11.5529 23.236 11.4796 23.2358 11.3222L19.2358 11.3288C19.2365 11.7775 19.2617 12.4065 19.5271 13.0161C19.8428 13.7412 20.3664 14.1653 20.8272 14.4353L22.8497 10.9843ZM23.2358 11.3222C23.2322 9.16186 22.3142 7.24416 20.744 5.64428L17.8892 8.44613C18.8641 9.4394 19.2342 10.3946 19.2358 11.3288L23.2358 11.3222ZM20.7437 5.64406C19.62 4.49941 18.3231 3.68704 16.825 3.23236L15.6633 7.05997C16.4738 7.30592 17.1998 7.7439 17.8894 8.44634L20.7437 5.64406ZM16.8254 3.2325C16.4166 3.10832 15.9563 3.07735 15.5259 3.0575C15.0384 3.03502 14.3328 3.02159 13.2998 3.00947L13.2529 7.00919C14.2924 7.02139 14.9325 7.03439 15.3417 7.05326C15.808 7.07476 15.7953 7.10005 15.6629 7.05983L16.8254 3.2325ZM13.3 3.00947C10.0924 2.97147 8.9828 3.01208 7.45546 3.62011L8.93491 7.33645C9.62204 7.06291 9.95618 6.97014 13.2527 7.00919L13.3 3.00947ZM7.45533 3.62016C4.79223 4.68055 2.89244 6.92279 2.20939 9.72634L6.09571 10.6732C6.48269 9.08485 7.51578 7.90152 8.93505 7.3364L7.45533 3.62016ZM2.20936 9.72649C2.10423 10.1581 2.07318 10.6159 2.05278 11.3068C2.03153 12.0264 2.02065 13.1667 2.00881 15.0578L6.00873 15.0828C6.02067 13.1768 6.03145 12.0881 6.05104 11.4248C6.07147 10.7328 6.10042 10.6539 6.09575 10.673L2.20936 9.72649ZM2.00881 15.0579C1.98016 19.6556 1.98578 20.7511 2.40169 22.07L6.2165 20.867C6.03787 20.3005 5.9781 19.9989 6.00873 15.0828L2.00881 15.0579ZM2.40185 22.0705C2.71869 23.0743 3.07407 23.7539 3.71621 24.6058L6.91048 22.1982C6.53149 21.6954 6.3912 21.4204 6.21635 20.8665L2.40185 22.0705ZM3.7162 24.6058C4.96194 26.2586 6.84615 27.4948 8.84588 27.856L9.55697 23.9197C8.64163 23.7544 7.61025 23.1267 6.91049 22.1982L3.7162 24.6058ZM8.84599 27.856C9.09729 27.9014 9.46179 27.9179 9.71638 27.9286C10.0388 27.942 10.4494 27.9534 10.9123 27.9629C11.8405 27.9819 13.0145 27.9939 14.1893 27.9982C15.3643 28.0025 16.5493 27.9992 17.4997 27.9871C18.3686 27.976 19.2259 27.9576 19.599 27.9067L19.0589 23.9434C19.0704 23.9418 18.9481 23.9529 18.6059 23.9639C18.3052 23.9737 17.9109 23.9815 17.4489 23.9874C16.5267 23.9991 15.3646 24.0025 14.204 23.9982C13.0432 23.994 11.893 23.9821 10.9942 23.9637C10.5436 23.9545 10.165 23.9438 9.88324 23.9321C9.53365 23.9175 9.47898 23.9056 9.55686 23.9197L8.84599 27.856Z" fill="url(#paint0_linear_321_210)" mask="url(#path-2-inside-1_321_210)"/>
<path d="M15.1836 12.0964C15.171 12.087 15.1473 12.0714 15.1076 12.0513L15.1836 12.0964ZM15.1836 12.0964C15.1867 12.1129 15.1905 12.1436 15.1905 12.1928C15.1905 12.2372 15.1862 12.2621 15.1838 12.2729L15.1836 12.0964ZM15.1814 12.2816C15.1772 12.2874 15.1625 12.305 15.1253 12.3329C15.1131 12.3341 15.0986 12.3355 15.0815 12.3369C14.8845 12.3527 14.5323 12.3603 13.8229 12.3659C13.8226 12.3659 13.8222 12.3659 13.8219 12.3659L12.9251 12.3709C12.3737 12.372 11.8909 12.3668 11.5326 12.3569C11.3525 12.3519 11.2105 12.346 11.1101 12.3396C11.0948 12.3386 11.0814 12.3377 11.0698 12.3368C11.0698 12.3367 11.0697 12.3366 11.0696 12.3366C11.0532 12.3182 11.0317 12.2832 11.0188 12.2338C11.0059 12.1844 11.0071 12.1419 11.0129 12.1152C11.0156 12.1029 11.0187 12.0962 11.02 12.0937C11.0206 12.0926 11.021 12.0921 11.0212 12.0917L11.0608 12.0525C11.0724 12.0503 11.0873 12.0478 11.106 12.0451C11.3341 12.0121 11.7534 12.0015 12.6902 12L14.0559 12.0011C14.6475 12.0038 14.9005 12.0126 15.0338 12.0279C15.051 12.0299 15.0628 12.0317 15.0702 12.0329C15.0774 12.0363 15.0892 12.0421 15.1074 12.0512L15.1814 12.2816ZM15.1814 12.2816C15.1814 12.2815 15.1815 12.2814 15.1815 12.2814M15.1814 12.2816L15.181 12.2824C15.181 12.2824 15.1811 12.2823 15.1812 12.2819C15.1813 12.2818 15.1814 12.2816 15.1815 12.2814M15.1815 12.2814C15.1824 12.2801 15.1828 12.2795 15.1827 12.2794C15.1827 12.2794 15.1822 12.2801 15.1815 12.2814ZM18.9572 19.7044C18.9883 19.7334 19.0056 19.7736 18.9985 19.8289C18.9959 19.8494 18.9903 19.8687 18.9816 19.8863L18.6111 19.9464L14.5305 19.9934C14.5301 19.9934 14.5297 19.9934 14.5293 19.9934C13.1328 20.0064 12.2383 19.999 11.677 19.9807C11.3952 19.9715 11.2104 19.96 11.0942 19.9487C11.0911 19.9484 11.0881 19.9481 11.0852 19.9478C11.0734 19.9358 11.0607 19.9216 11.0481 19.9053C11.0265 19.8773 11.0112 19.8511 11.002 19.8314C11.002 19.8313 11.002 19.8313 11.002 19.8312C11.005 19.8116 11.0115 19.7844 11.0228 19.7535C11.0341 19.7226 11.0474 19.696 11.0594 19.6763C11.0955 19.6703 11.1521 19.6626 11.2368 19.6549C11.6024 19.622 12.2486 19.6096 13.501 19.6052C13.5013 19.6052 13.5016 19.6052 13.5019 19.6052L16.3622 19.6022C16.3623 19.6022 16.3625 19.6022 16.3627 19.6022C17.8406 19.6033 18.4946 19.6153 18.8309 19.6569C18.8708 19.6618 18.8999 19.6665 18.9202 19.6703C18.9301 19.6793 18.9423 19.6905 18.9572 19.7044ZM11.0837 12.3492C11.0837 12.3492 11.0833 12.3491 11.0824 12.3485L11.0837 12.3492Z" fill="white" stroke="url(#paint1_linear_321_210)" stroke-width="2"/>
<defs>
<linearGradient id="paint0_linear_321_210" x1="4" y1="15.5" x2="25" y2="15.5" gradientUnits="userSpaceOnUse">
<stop stop-color="#FFC100"/>
<stop offset="1" stop-color="#FF9D00"/>
</linearGradient>
<linearGradient id="paint1_linear_321_210" x1="10" y1="16" x2="20" y2="16" gradientUnits="userSpaceOnUse">
<stop stop-color="#FFC100"/>
<stop offset="1" stop-color="#FF9D00"/>
</linearGradient>
</defs>
</svg>