<svg width="23" height="22" viewBox="0 0 23 22" fill="none" xmlns="http://www.w3.org/2000/svg">
<path d="M10.125 4.125H12.875C12.875 3.76033 12.7301 3.41059 12.4723 3.15273C12.2144 2.89487 11.8647 2.75 11.5 2.75C11.1353 2.75 10.7856 2.89487 10.5277 3.15273C10.2699 3.41059 10.125 3.76033 10.125 4.125ZM8.75 4.125C8.75 3.39565 9.03973 2.69618 9.55546 2.18046C10.0712 1.66473 10.7707 1.375 11.5 1.375C12.2293 1.375 12.9288 1.66473 13.4445 2.18046C13.9603 2.69618 14.25 3.39565 14.25 4.125H19.75C19.9323 4.125 20.1072 4.19743 20.2361 4.32636C20.3651 4.4553 20.4375 4.63016 20.4375 4.8125C20.4375 4.99484 20.3651 5.1697 20.2361 5.29864C20.1072 5.42757 19.9323 5.5 19.75 5.5H18.9745L17.3176 17.6523C17.2053 18.4758 16.7983 19.2307 16.1721 19.7773C15.5459 20.3238 14.7429 20.625 13.9117 20.625H9.08825C8.25709 20.625 7.45408 20.3238 6.82789 19.7773C6.2017 19.2307 5.79475 18.4758 5.68237 17.6523L4.0255 5.5H3.25C3.06766 5.5 2.8928 5.42757 2.76386 5.29864C2.63493 5.1697 2.5625 4.99484 2.5625 4.8125C2.5625 4.63016 2.63493 4.4553 2.76386 4.32636C2.8928 4.19743 3.06766 4.125 3.25 4.125H8.75ZM10.125 8.9375C10.125 8.75516 10.0526 8.5803 9.92364 8.45136C9.7947 8.32243 9.61984 8.25 9.4375 8.25C9.25516 8.25 9.0803 8.32243 8.95136 8.45136C8.82243 8.5803 8.75 8.75516 8.75 8.9375V15.8125C8.75 15.9948 8.82243 16.1697 8.95136 16.2986C9.0803 16.4276 9.25516 16.5 9.4375 16.5C9.61984 16.5 9.7947 16.4276 9.92364 16.2986C10.0526 16.1697 10.125 15.9948 10.125 15.8125V8.9375ZM13.5625 8.25C13.7448 8.25 13.9197 8.32243 14.0486 8.45136C14.1776 8.5803 14.25 8.75516 14.25 8.9375V15.8125C14.25 15.9948 14.1776 16.1697 14.0486 16.2986C13.9197 16.4276 13.7448 16.5 13.5625 16.5C13.3802 16.5 13.2053 16.4276 13.0764 16.2986C12.9474 16.1697 12.875 15.9948 12.875 15.8125V8.9375C12.875 8.75516 12.9474 8.5803 13.0764 8.45136C13.2053 8.32243 13.3802 8.25 13.5625 8.25ZM7.045 17.4666C7.11248 17.9606 7.35664 18.4135 7.73229 18.7414C8.10793 19.0692 8.58964 19.2499 9.08825 19.25H13.9117C14.4106 19.2503 14.8926 19.0697 15.2686 18.7418C15.6445 18.4139 15.8889 17.9609 15.9564 17.4666L17.5871 5.5H5.41287L7.045 17.4666Z" fill="#FF9D00" stroke="#FF9D00" stroke-width="0.5"/>
</svg>
