<svg width="30" height="30" viewBox="0 0 30 30" fill="none" xmlns="http://www.w3.org/2000/svg">
<path fill-rule="evenodd" clip-rule="evenodd" d="M15.4088 5.85945C15.3682 5.78641 15.3088 5.72555 15.2368 5.68318C15.1648 5.64081 15.0827 5.61847 14.9991 5.61847C14.9156 5.61847 14.8335 5.64081 14.7615 5.68318C14.6895 5.72555 14.6301 5.78641 14.5895 5.85945L5.68132 21.8007C5.64145 21.872 5.62092 21.9525 5.62174 22.0342C5.62257 22.1159 5.64474 22.196 5.68605 22.2664C5.72736 22.3369 5.78637 22.3954 5.85724 22.4361C5.92811 22.4767 6.00837 22.4981 6.09007 22.4982H23.9082C23.9899 22.4981 24.0702 22.4767 24.141 22.4361C24.2119 22.3954 24.2709 22.3369 24.3122 22.2664C24.3535 22.196 24.3757 22.1159 24.3765 22.0342C24.3774 21.9525 24.3568 21.872 24.317 21.8007L15.4088 5.85945ZM15.9944 20.2132C16.2582 19.9495 16.4063 19.5918 16.4063 19.2188C16.4063 18.8459 16.2582 18.4882 15.9944 18.2245C15.7307 17.9607 15.373 17.8126 15.0001 17.8126C14.6271 17.8126 14.2694 17.9607 14.0057 18.2245C13.742 18.4882 13.5938 18.8459 13.5938 19.2188C13.5938 19.5918 13.742 19.9495 14.0057 20.2132C14.2694 20.4769 14.6271 20.6251 15.0001 20.6251C15.373 20.6251 15.7307 20.4769 15.9944 20.2132ZM14.3372 15.663C14.1613 15.4872 14.0626 15.2487 14.0626 15.0001V10.3126C14.0626 10.0639 14.1613 9.82547 14.3372 9.64966C14.513 9.47384 14.7514 9.37507 15.0001 9.37507C15.2487 9.37507 15.4872 9.47384 15.663 9.64966C15.8388 9.82547 15.9376 10.0639 15.9376 10.3126V15.0001C15.9376 15.2487 15.8388 15.4872 15.663 15.663C15.4872 15.8388 15.2487 15.9376 15.0001 15.9376C14.7514 15.9376 14.513 15.8388 14.3372 15.663Z" fill="#FF9D00"/>
<path fill-rule="evenodd" clip-rule="evenodd" d="M12.9545 4.94445C13.1579 4.58061 13.4547 4.27762 13.8143 4.06671C14.1739 3.85581 14.5832 3.74463 15.0001 3.74463C15.4169 3.74463 15.8263 3.85581 16.1858 4.06671C16.5454 4.27762 16.8422 4.58061 17.0457 4.94445L25.952 20.8857C26.1513 21.2423 26.254 21.6447 26.2499 22.0532C26.2457 22.4617 26.1349 22.862 25.9283 23.2144C25.7218 23.5669 25.4267 23.8592 25.0724 24.0625C24.718 24.2657 24.3167 24.3728 23.9082 24.3732H6.08632C5.67766 24.3732 5.2761 24.2663 4.9215 24.0632C4.56689 23.8601 4.27155 23.5678 4.06479 23.2153C3.85803 22.8628 3.74703 22.4623 3.7428 22.0537C3.73858 21.645 3.84127 21.2424 4.0407 20.8857L12.9545 4.94445ZM15.4088 5.85945C15.3682 5.78641 15.3088 5.72555 15.2368 5.68318C15.1648 5.64081 15.0827 5.61847 14.9991 5.61847C14.9156 5.61847 14.8335 5.64081 14.7615 5.68318C14.6895 5.72555 14.6301 5.78641 14.5895 5.85945L5.68132 21.8007C5.64145 21.872 5.62092 21.9525 5.62174 22.0342C5.62257 22.1159 5.64474 22.196 5.68605 22.2664C5.72736 22.3369 5.78637 22.3954 5.85724 22.4361C5.92811 22.4767 6.00837 22.4981 6.09007 22.4982H23.9082C23.9899 22.4981 24.0702 22.4767 24.141 22.4361C24.2119 22.3954 24.2709 22.3369 24.3122 22.2664C24.3535 22.196 24.3757 22.1159 24.3765 22.0342C24.3774 21.9525 24.3568 21.872 24.317 21.8007L15.4088 5.85945Z" fill="#FF9D00"/>
</svg>
