<svg width="24" height="25" viewBox="0 0 24 25" fill="none" xmlns="http://www.w3.org/2000/svg">
<path d="M12 0.222168C5.384 0.222168 0 5.60617 0 12.2222C0 18.8382 5.384 24.2222 12 24.2222C18.616 24.2222 24 18.8382 24 12.2222C24 5.60617 18.616 0.222168 12 0.222168ZM12 2.22217C17.535 2.22217 22 6.68717 22 12.2222C22.0018 14.616 21.1432 16.9307 19.5806 18.7441C18.0181 20.5576 15.8558 21.7491 13.488 22.1012V15.1382H16.336L16.783 12.2452H13.488V10.6652C13.488 9.46517 13.883 8.39817 15.006 8.39817H16.811V5.87417C16.494 5.83117 15.823 5.73817 14.555 5.73817C11.907 5.73817 10.355 7.13617 10.355 10.3222V12.2452H7.633V15.1382H10.355V22.0762C8.01975 21.6918 5.89724 20.4897 4.36669 18.6845C2.83615 16.8794 1.99729 14.5888 2 12.2222C2 6.68717 6.465 2.22217 12 2.22217Z" fill="url(#paint0_linear_269_123)"/>
<defs>
<linearGradient id="paint0_linear_269_123" x1="0" y1="12.2222" x2="24" y2="12.2222" gradientUnits="userSpaceOnUse">
<stop stop-color="#FFDF41"/>
<stop offset="1" stop-color="#FF8800"/>
</linearGradient>
</defs>
</svg>