<svg width="40" height="40" viewBox="0 0 40 40" fill="none" xmlns="http://www.w3.org/2000/svg">
<path d="M20 4C11.1787 4 4 11.1787 4 20C4 28.8213 11.1787 36 20 36C28.8213 36 36 28.8213 36 20C36 11.1787 28.8213 4 20 4ZM20 6.66667C27.38 6.66667 33.3333 12.62 33.3333 20C33.3358 23.1917 32.1909 26.278 30.1075 28.696C28.0241 31.1139 25.141 32.7025 21.984 33.172V23.888H25.7813L26.3773 20.0307H21.984V17.924C21.984 16.324 22.5107 14.9013 24.008 14.9013H26.4147V11.536C25.992 11.4787 25.0973 11.3547 23.4067 11.3547C19.876 11.3547 17.8067 13.2187 17.8067 17.4667V20.0307H14.1773V23.888H17.8067V33.1387C14.693 32.6262 11.863 31.0233 9.82226 28.6165C7.78153 26.2096 6.66305 23.1556 6.66667 20C6.66667 12.62 12.62 6.66667 20 6.66667Z" fill="url(#paint0_linear_606_1112)"/>
<defs>
<linearGradient id="paint0_linear_606_1112" x1="4" y1="20" x2="36" y2="20" gradientUnits="userSpaceOnUse">
<stop stop-color="#FFC100"/>
<stop offset="1" stop-color="#FF9D00"/>
</linearGradient>
</defs>
</svg>
