<svg width="20" height="20" viewBox="0 0 20 20" fill="none" xmlns="http://www.w3.org/2000/svg">
<path d="M9.95415 15.5C10.275 15.5 10.5463 15.3891 10.7681 15.1672C10.99 14.9454 11.1006 14.6744 11.1 14.3542C11.0994 14.0339 10.9888 13.7626 10.7681 13.5402C10.5475 13.3177 10.2762 13.2071 9.95415 13.2083C9.63209 13.2095 9.36106 13.3205 9.14106 13.5411C8.92106 13.7617 8.81015 14.0327 8.80831 14.3542C8.80648 14.6756 8.9174 14.9469 9.14106 15.1682C9.36473 15.3894 9.63576 15.5 9.95415 15.5ZM9.12915 11.9708H10.825C10.825 11.4667 10.8824 11.0694 10.9973 10.7792C11.1122 10.4889 11.4367 10.0917 11.9708 9.58748C12.368 9.19026 12.6812 8.81198 12.9104 8.45265C13.1396 8.09332 13.2541 7.66187 13.2541 7.15832C13.2541 6.30276 12.941 5.64582 12.3146 5.18748C11.6882 4.72915 10.9472 4.49998 10.0916 4.49998C9.22081 4.49998 8.51437 4.72915 7.97231 5.18748C7.43026 5.64582 7.05198 6.19582 6.83748 6.83748L8.34998 7.43332C8.42637 7.15832 8.5984 6.8604 8.86606 6.53957C9.13373 6.21873 9.54226 6.05832 10.0916 6.05832C10.5805 6.05832 10.9472 6.19215 11.1916 6.45982C11.4361 6.72748 11.5583 7.02143 11.5583 7.34165C11.5583 7.64721 11.4666 7.93382 11.2833 8.20148C11.1 8.46915 10.8708 8.71726 10.5958 8.94582C9.92359 9.54165 9.51109 9.99234 9.35831 10.2979C9.20554 10.6035 9.12915 11.1611 9.12915 11.9708ZM9.99998 19.1667C8.73193 19.1667 7.54026 18.9262 6.42498 18.4452C5.3097 17.9643 4.33956 17.311 3.51456 16.4854C2.68956 15.6598 2.03659 14.6897 1.55565 13.575C1.0747 12.4603 0.833925 11.2687 0.833314 9.99998C0.832703 8.73132 1.07348 7.53965 1.55565 6.42498C2.03781 5.31032 2.69079 4.34018 3.51456 3.51457C4.33834 2.68896 5.30848 2.03598 6.42498 1.55565C7.54148 1.07532 8.73315 0.83454 9.99998 0.833318C11.2668 0.832095 12.4585 1.07287 13.575 1.55565C14.6915 2.03843 15.6616 2.6914 16.4854 3.51457C17.3092 4.33773 17.9625 5.30787 18.4452 6.42498C18.928 7.5421 19.1685 8.73376 19.1666 9.99998C19.1648 11.2662 18.924 12.4579 18.4443 13.575C17.9646 14.6921 17.3116 15.6622 16.4854 16.4854C15.6592 17.3086 14.689 17.9618 13.575 18.4452C12.4609 18.9286 11.2693 19.1691 9.99998 19.1667ZM9.99998 17.3333C12.0472 17.3333 13.7812 16.6229 15.2021 15.2021C16.6229 13.7812 17.3333 12.0472 17.3333 9.99998C17.3333 7.95276 16.6229 6.21873 15.2021 4.7979C13.7812 3.37707 12.0472 2.66665 9.99998 2.66665C7.95276 2.66665 6.21873 3.37707 4.7979 4.7979C3.37706 6.21873 2.66665 7.95276 2.66665 9.99998C2.66665 12.0472 3.37706 13.7812 4.7979 15.2021C6.21873 16.6229 7.95276 17.3333 9.99998 17.3333Z" fill="#0A0A0A"/>
</svg>
