<svg width="26" height="26" viewBox="0 0 26 26" fill="none" xmlns="http://www.w3.org/2000/svg">
<path d="M22.75 15.1666C22.4626 15.1666 22.1871 15.2808 21.9839 15.4839C21.7808 15.6871 21.6666 15.9626 21.6666 16.25V20.5833C21.6666 20.8706 21.5525 21.1462 21.3493 21.3493C21.1462 21.5525 20.8706 21.6666 20.5833 21.6666H5.41663C5.12931 21.6666 4.85376 21.5525 4.65059 21.3493C4.44743 21.1462 4.33329 20.8706 4.33329 20.5833V16.25C4.33329 15.9626 4.21916 15.6871 4.01599 15.4839C3.81283 15.2808 3.53728 15.1666 3.24996 15.1666C2.96264 15.1666 2.68709 15.2808 2.48393 15.4839C2.28076 15.6871 2.16663 15.9626 2.16663 16.25V20.5833C2.16663 21.4452 2.50904 22.2719 3.11853 22.8814C3.72802 23.4909 4.55467 23.8333 5.41663 23.8333H20.5833C21.4452 23.8333 22.2719 23.4909 22.8814 22.8814C23.4909 22.2719 23.8333 21.4452 23.8333 20.5833V16.25C23.8333 15.9626 23.7192 15.6871 23.516 15.4839C23.3128 15.2808 23.0373 15.1666 22.75 15.1666ZM12.2308 17.0191C12.3338 17.1178 12.4553 17.1951 12.5883 17.2466C12.718 17.3039 12.8582 17.3335 13 17.3335C13.1417 17.3335 13.282 17.3039 13.4116 17.2466C13.5446 17.1951 13.6661 17.1178 13.7691 17.0191L18.1025 12.6858C18.3065 12.4818 18.4211 12.2051 18.4211 11.9166C18.4211 11.6281 18.3065 11.3515 18.1025 11.1475C17.8985 10.9435 17.6218 10.8289 17.3333 10.8289C17.0448 10.8289 16.7681 10.9435 16.5641 11.1475L14.0833 13.6391V3.24996C14.0833 2.96264 13.9692 2.68709 13.766 2.48393C13.5628 2.28076 13.2873 2.16663 13 2.16663C12.7126 2.16663 12.4371 2.28076 12.2339 2.48393C12.0308 2.68709 11.9166 2.96264 11.9166 3.24996V13.6391L9.43579 11.1475C9.33478 11.0465 9.21487 10.9663 9.0829 10.9117C8.95092 10.857 8.80947 10.8289 8.66663 10.8289C8.52378 10.8289 8.38233 10.857 8.25036 10.9117C8.11838 10.9663 7.99847 11.0465 7.89746 11.1475C7.79645 11.2485 7.71633 11.3684 7.66166 11.5004C7.607 11.6323 7.57886 11.7738 7.57886 11.9166C7.57886 12.0595 7.607 12.2009 7.66166 12.3329C7.71633 12.4649 7.79645 12.5848 7.89746 12.6858L12.2308 17.0191Z" fill="white"/>
</svg>
