<svg width="40" height="40" viewBox="0 0 40 40" fill="none" xmlns="http://www.w3.org/2000/svg">
<path d="M27.333 5.33334H12.6663C8.61625 5.33334 5.33301 8.61659 5.33301 12.6667V27.3333C5.33301 31.3834 8.61625 34.6667 12.6663 34.6667H27.333C31.3831 34.6667 34.6663 31.3834 34.6663 27.3333V12.6667C34.6663 8.61659 31.3831 5.33334 27.333 5.33334Z" stroke="url(#paint0_linear_606_1116)" stroke-width="2.5" stroke-linecap="round" stroke-linejoin="round"/>
<path d="M28.0662 11.933H28.0808M25.8662 19.0756C26.0472 20.2962 25.8387 21.5429 25.2704 22.6382C24.702 23.7335 23.8028 24.6217 22.7006 25.1765C21.5983 25.7313 20.3492 25.9244 19.1309 25.7283C17.9126 25.5323 16.7872 24.9571 15.9146 24.0845C15.0421 23.212 14.4668 22.0865 14.2708 20.8682C14.0748 19.6499 14.2679 18.4008 14.8227 17.2986C15.3774 16.1963 16.2656 15.2971 17.3609 14.7288C18.4563 14.1604 19.7029 13.9519 20.9235 14.133C22.1686 14.3176 23.3213 14.8978 24.2113 15.7878C25.1014 16.6778 25.6815 17.8305 25.8662 19.0756Z" stroke="url(#paint1_linear_606_1116)" stroke-width="2.5" stroke-linecap="round" stroke-linejoin="round"/>
<defs>
<linearGradient id="paint0_linear_606_1116" x1="5.33301" y1="20" x2="34.6663" y2="20" gradientUnits="userSpaceOnUse">
<stop stop-color="#FFC100"/>
<stop offset="1" stop-color="#FF9D00"/>
</linearGradient>
<linearGradient id="paint1_linear_606_1116" x1="14.1963" y1="18.8679" x2="28.0808" y2="18.8679" gradientUnits="userSpaceOnUse">
<stop stop-color="#FFC100"/>
<stop offset="1" stop-color="#FF9D00"/>
</linearGradient>
</defs>
</svg>
