<svg width="40" height="40" viewBox="0 0 40 40" fill="none" xmlns="http://www.w3.org/2000/svg">
<path d="M30.6667 4C32.0812 4 33.4377 4.5619 34.4379 5.5621C35.4381 6.56229 36 7.91885 36 9.33333V30.6667C36 32.0812 35.4381 33.4377 34.4379 34.4379C33.4377 35.4381 32.0812 36 30.6667 36H9.33333C7.91885 36 6.56229 35.4381 5.5621 34.4379C4.5619 33.4377 4 32.0812 4 30.6667V9.33333C4 7.91885 4.5619 6.56229 5.5621 5.5621C6.56229 4.5619 7.91885 4 9.33333 4H30.6667ZM30.6667 7.55556H9.33333C8.86184 7.55556 8.40965 7.74286 8.07625 8.07625C7.74286 8.40965 7.55556 8.86184 7.55556 9.33333V30.6667C7.55556 31.1382 7.74286 31.5903 8.07625 31.9237C8.40965 32.2571 8.86184 32.4444 9.33333 32.4444H30.6667C31.1382 32.4444 31.5903 32.2571 31.9237 31.9237C32.2571 31.5903 32.4444 31.1382 32.4444 30.6667V9.33333C32.4444 8.86184 32.2571 8.40965 31.9237 8.07625C31.5903 7.74286 31.1382 7.55556 30.6667 7.55556ZM12.8889 16.4444C13.3243 16.4445 13.7446 16.6044 14.07 16.8937C14.3954 17.1831 14.6033 17.5818 14.6542 18.0142L14.6667 18.2222V27.1111C14.6662 27.5642 14.4927 28.0001 14.1816 28.3295C13.8705 28.659 13.4454 28.8573 12.9931 28.8839C12.5407 28.9104 12.0953 28.7632 11.7479 28.4724C11.4004 28.1816 11.1771 27.7691 11.1236 27.3191L11.1111 27.1111V18.2222C11.1111 17.7507 11.2984 17.2985 11.6318 16.9651C11.9652 16.6317 12.4174 16.4444 12.8889 16.4444ZM18.2222 14.6667C18.6386 14.6666 19.0417 14.8127 19.3614 15.0794C19.6811 15.3461 19.897 15.7166 19.9716 16.1262C20.3296 15.9194 20.6995 15.7336 21.0791 15.5698C22.2649 15.0631 24.0409 14.784 25.6444 15.2871C26.4853 15.5538 27.3298 16.0516 27.9556 16.8996C28.5156 17.6551 28.8178 18.5742 28.8782 19.6071L28.8889 20V27.1111C28.8884 27.5642 28.7149 28.0001 28.4038 28.3295C28.0928 28.659 27.6676 28.8573 27.2153 28.8839C26.763 28.9104 26.3175 28.7632 25.9701 28.4724C25.6226 28.1816 25.3993 27.7691 25.3458 27.3191L25.3333 27.1111V20C25.3333 19.4133 25.1911 19.1396 25.0987 19.0133C24.9658 18.8485 24.783 18.7312 24.5778 18.6791C23.9591 18.4836 23.0684 18.5867 22.4764 18.8391C21.5876 19.2196 20.7733 19.8169 20.2187 20.3698L20 20.6044V27.1111C19.9995 27.5642 19.826 28.0001 19.5149 28.3295C19.2039 28.659 18.7788 28.8573 18.3264 28.8839C17.8741 28.9104 17.4287 28.7632 17.0812 28.4724C16.7337 28.1816 16.5104 27.7691 16.4569 27.3191L16.4444 27.1111V16.4444C16.4444 15.9729 16.6317 15.5208 16.9651 15.1874C17.2985 14.854 17.7507 14.6667 18.2222 14.6667ZM12.8889 11.1111C13.3604 11.1111 13.8126 11.2984 14.146 11.6318C14.4794 11.9652 14.6667 12.4174 14.6667 12.8889C14.6667 13.3604 14.4794 13.8126 14.146 14.146C13.8126 14.4794 13.3604 14.6667 12.8889 14.6667C12.4174 14.6667 11.9652 14.4794 11.6318 14.146C11.2984 13.8126 11.1111 13.3604 11.1111 12.8889C11.1111 12.4174 11.2984 11.9652 11.6318 11.6318C11.9652 11.2984 12.4174 11.1111 12.8889 11.1111Z" fill="url(#paint0_linear_606_1122)"/>
<defs>
<linearGradient id="paint0_linear_606_1122" x1="4" y1="20" x2="36" y2="20" gradientUnits="userSpaceOnUse">
<stop stop-color="#FFC100"/>
<stop offset="1" stop-color="#FF9D00"/>
</linearGradient>
</defs>
</svg>
