                        <svg width="24" height="27" viewBox="0 0 24 27" fill="none" xmlns="http://www.w3.org/2000/svg">
<path d="M20 0.222168C21.0609 0.222168 22.0783 0.643595 22.8284 1.39374C23.5786 2.14389 24 3.1613 24 4.22217V20.2222C24 21.283 23.5786 22.3005 22.8284 23.0506C22.0783 23.8007 21.0609 24.2222 20 24.2222H4C2.93913 24.2222 1.92172 23.8007 1.17157 23.0506C0.421427 22.3005 0 21.283 0 20.2222V4.22217C0 3.1613 0.421427 2.14389 1.17157 1.39374C1.92172 0.643595 2.93913 0.222168 4 0.222168H20ZM20 2.88883H4C3.64638 2.88883 3.30724 3.02931 3.05719 3.27936C2.80714 3.52941 2.66667 3.86855 2.66667 4.22217V20.2222C2.66667 20.5758 2.80714 20.9149 3.05719 21.165C3.30724 21.415 3.64638 21.5555 4 21.5555H20C20.3536 21.5555 20.6928 21.415 20.9428 21.165C21.1929 20.9149 21.3333 20.5758 21.3333 20.2222V4.22217C21.3333 3.86855 21.1929 3.52941 20.9428 3.27936C20.6928 3.02931 20.3536 2.88883 20 2.88883ZM6.66667 9.5555C6.99324 9.55554 7.30845 9.67544 7.5525 9.89246C7.79654 10.1095 7.95246 10.4085 7.99067 10.7328L8 10.8888V17.5555C7.99962 17.8953 7.86949 18.2222 7.6362 18.4693C7.40291 18.7164 7.08406 18.8651 6.74481 18.8851C6.40555 18.905 6.07149 18.7946 5.81089 18.5765C5.55029 18.3584 5.3828 18.049 5.34267 17.7115L5.33333 17.5555V10.8888C5.33333 10.5352 5.47381 10.1961 5.72386 9.94603C5.97391 9.69598 6.31305 9.5555 6.66667 9.5555ZM10.6667 8.22217C10.9789 8.22212 11.2813 8.33167 11.5211 8.53172C11.7608 8.73177 11.9228 9.00962 11.9787 9.31684C12.2472 9.16174 12.5246 9.02239 12.8093 8.8995C13.6987 8.5195 15.0307 8.31017 16.2333 8.6875C16.864 8.8875 17.4973 9.26083 17.9667 9.89683C18.3867 10.4635 18.6133 11.1528 18.6587 11.9275L18.6667 12.2222V17.5555C18.6663 17.8953 18.5362 18.2222 18.3029 18.4693C18.0696 18.7164 17.7507 18.8651 17.4115 18.8851C17.0722 18.905 16.7382 18.7946 16.4776 18.5765C16.217 18.3584 16.0495 18.049 16.0093 17.7115L16 17.5555V12.2222C16 11.7822 15.8933 11.5768 15.824 11.4822C15.7244 11.3585 15.5873 11.2706 15.4333 11.2315C14.9693 11.0848 14.3013 11.1622 13.8573 11.3515C13.1907 11.6368 12.58 12.0848 12.164 12.4995L12 12.6755V17.5555C11.9996 17.8953 11.8695 18.2222 11.6362 18.4693C11.4029 18.7164 11.0841 18.8651 10.7448 18.8851C10.4056 18.905 10.0715 18.7946 9.81089 18.5765C9.55029 18.3584 9.3828 18.049 9.34267 17.7115L9.33333 17.5555V9.5555C9.33333 9.20188 9.47381 8.86274 9.72386 8.61269C9.97391 8.36264 10.313 8.22217 10.6667 8.22217ZM6.66667 5.5555C7.02029 5.5555 7.35943 5.69598 7.60948 5.94603C7.85952 6.19607 8 6.53521 8 6.88883C8 7.24246 7.85952 7.58159 7.60948 7.83164C7.35943 8.08169 7.02029 8.22217 6.66667 8.22217C6.31305 8.22217 5.97391 8.08169 5.72386 7.83164C5.47381 7.58159 5.33333 7.24246 5.33333 6.88883C5.33333 6.53521 5.47381 6.19607 5.72386 5.94603C5.97391 5.69598 6.31305 5.5555 6.66667 5.5555Z" fill="url(#paint0_linear_269_140)"/>
<defs>
<linearGradient id="paint0_linear_269_140" x1="0" y1="12.2222" x2="24" y2="12.2222" gradientUnits="userSpaceOnUse">
<stop stop-color="#FFDF41"/>
<stop offset="1" stop-color="#FF8800"/>
</linearGradient>
</defs>
</svg>