<svg width="20" height="18" viewBox="0 0 20 18" fill="none" xmlns="http://www.w3.org/2000/svg">
<path d="M11.8333 5.33335V3.50002C11.8333 3.01379 11.6402 2.54747 11.2964 2.20366C10.9525 1.85984 10.4862 1.66669 10 1.66669H3.58333C3.0971 1.66669 2.63079 1.85984 2.28697 2.20366C1.94315 2.54747 1.75 3.01379 1.75 3.50002V14.5C1.75 14.9863 1.94315 15.4526 2.28697 15.7964C2.63079 16.1402 3.0971 16.3334 3.58333 16.3334H10C10.4862 16.3334 10.9525 16.1402 11.2964 15.7964C11.6402 15.4526 11.8333 14.9863 11.8333 14.5V12.6667" stroke="#0A0A0A" stroke-width="2" stroke-linecap="round" stroke-linejoin="round"/>
<path d="M7.25 9H18.25M18.25 9L15.5 6.25M18.25 9L15.5 11.75" stroke="#0A0A0A" stroke-width="2" stroke-linecap="round" stroke-linejoin="round"/>
</svg>
