<svg width="30" height="31" viewBox="0 0 30 31" fill="none" xmlns="http://www.w3.org/2000/svg">
<rect y="0.222168" width="30" height="30" rx="15" fill="#FFC100"/>
<path d="M7.008 11.3773C7.05856 10.7902 7.34303 10.2425 7.80479 9.8432C8.26656 9.44386 8.87177 9.22214 9.5 9.22217H20.5C21.1338 9.22214 21.744 9.44783 22.2071 9.85357C22.6702 10.2593 22.9516 10.8148 22.9944 11.4077L15.0008 15.3534L7.008 11.3773ZM7 12.4348V18.8784C7 19.5 7.26339 20.0962 7.73223 20.5357C8.20107 20.9752 8.83696 21.2222 9.5 21.2222H20.5C21.163 21.2222 21.7989 20.9752 22.2678 20.5357C22.7366 20.0962 23 19.5 23 18.8784V12.4644L15.2328 16.2984C15.1607 16.334 15.0805 16.3525 14.9991 16.3523C14.9177 16.3522 14.8375 16.3334 14.7656 16.2977L7 12.4348Z" fill="white"/>
</svg>
