<svg width="80" height="80" viewBox="0 0 80 80" fill="none" xmlns="http://www.w3.org/2000/svg">
<path d="M63.0325 21.9859L57.5288 15.2922C56.3107 13.8238 54.665 13 52.95 13H26.7262C25.015 13 23.3616 13.8297 22.1475 15.2922L16.6438 21.9859H3V57.9438H10.4C12.435 57.9438 14.0769 55.9469 14.0884 53.4859H15.1406L24.9225 64.2297C28.4953 67.7594 33.4556 67.8438 37.1325 64.7641C38.5778 66.2828 40.1387 67 41.8847 67C43.9891 67 45.9663 65.9594 47.5272 63.625C50.0825 64.8484 53.1003 63.9906 54.9272 61.2625L57.9566 56.7203C58.6041 55.75 59.0088 54.6391 59.2169 53.4859H65.9116C65.9231 55.9469 67.5766 57.9438 69.6 57.9438H77V21.9859H63.0325ZM8.55 53.4438C7.5325 53.4438 6.7 52.4313 6.7 51.1938C6.7 49.9562 7.5325 48.9438 8.55 48.9438C9.5675 48.9438 10.4 49.9562 10.4 51.1938C10.4 52.4453 9.5675 53.4438 8.55 53.4438ZM53.6437 52.4734L50.6259 57.0016C50.3022 57.4797 49.7241 57.5641 49.3194 57.1703L46.5559 54.4422L43.0872 59.575C42.3934 60.6016 41.3528 60.25 41.0059 59.9125L36.7509 55.4828L34.9472 58.1828C33.34 60.5875 30.4147 60.9531 28.5531 59.1109L17.3028 46.7359H14.1V28.7219H18.9447L26.0788 20.0594C26.31 19.9469 26.5066 19.8484 26.7378 19.7359H33.2938L28.8191 24.7281C25.4197 28.5109 25.2231 34.8953 28.3103 38.9734C30.0216 41.2516 35.3866 44.7672 40.0462 39.5922L40.9944 38.5375L53.505 50.8844C53.8981 51.2781 53.9559 51.9953 53.6437 52.4734ZM65.9 46.7359H57.8988C57.6328 46.3422 57.3322 45.9766 57.0084 45.6531L45.1338 33.925L46.5791 32.3219C47.3306 31.4781 47.3884 30.0578 46.6947 29.1438L45.4344 27.4984C44.7406 26.5844 43.5728 26.5281 42.8213 27.3578L36.4388 34.4734C35.3403 35.6969 33.4672 35.7953 32.4381 34.4734C31.3628 33.0812 31.4553 30.9438 32.5769 29.7063L40.1619 21.2547C41.0175 20.2984 42.1275 19.7781 43.2837 19.7781L52.9616 19.75C53.2044 19.75 53.4356 19.8625 53.5975 20.0734L60.7316 28.7359H65.9V46.7359ZM71.45 53.4438C70.4325 53.4438 69.6 52.4313 69.6 51.1938C69.6 49.9562 70.4325 48.9438 71.45 48.9438C72.4675 48.9438 73.3 49.9562 73.3 51.1938C73.3 52.4453 72.4675 53.4438 71.45 53.4438Z" fill="#FFC100"/>
</svg>
