<svg width="80" height="80" viewBox="0 0 80 80" fill="none" xmlns="http://www.w3.org/2000/svg">
<path d="M37 46V22H22C15.373 22 10 24.667 10 34C10 43.333 15.373 46 22 46C25.5147 46 31 46 31 46H37Z" fill="#FFC100"/>
<path d="M27.8783 69.6756C27.9515 69.8707 28.1381 70 28.3465 70H39.2785C39.6276 70 39.8692 69.6513 39.7467 69.3244L31 46H22C21.168 46 20.3558 45.958 19.5715 45.866C19.1847 45.8206 18.8756 46.2026 19.0177 46.5651L23.5 58L27.8783 69.6756Z" fill="#FFC100"/>
<path d="M61.4998 25.0139C61.224 24.9986 61 25.2239 61 25.5V42.5C61 42.7761 61.224 43.0014 61.4998 42.9861C62.5108 42.9299 63.5064 42.7033 64.4442 42.3149C65.5361 41.8626 66.5282 41.1997 67.364 40.364C68.1997 39.5282 68.8626 38.5361 69.3149 37.4442C69.7672 36.3522 70 35.1819 70 34C70 32.8181 69.7672 31.6478 69.3149 30.5558C68.8626 29.4639 68.1997 28.4718 67.364 27.636C66.5282 26.8003 65.5361 26.1374 64.4442 25.6851C63.5064 25.2967 62.5108 25.0701 61.4998 25.0139Z" fill="#FFC100"/>
<path d="M37 46C44.7488 46 56.9453 54.8954 60.1867 57.3687C60.52 57.623 61 57.3789 61 56.9597V11.0403C61 10.6211 60.52 10.377 60.1867 10.6313C56.9453 13.1046 44.7488 22 37 22M37 46V22M37 46C37 46 27.8579 46 22 46M37 46H31M37 22H22C15.373 22 10 24.667 10 34C10 43.333 15.373 46 22 46M31 46L39.7467 69.3244C39.8692 69.6513 39.6276 70 39.2785 70H28.3465C28.1381 70 27.9515 69.8707 27.8783 69.6756L23.5 58L19.0177 46.5651C18.8756 46.2026 19.1847 45.8206 19.5715 45.866C20.3558 45.958 21.168 46 22 46M31 46C31 46 25.5147 46 22 46M31 46H22M36.0625 59.5C39.0625 59.5 46 55 46 49M64.4442 42.3149C63.5064 42.7033 62.5108 42.9299 61.4998 42.9861C61.224 43.0014 61 42.7761 61 42.5V25.5C61 25.2239 61.224 24.9986 61.4998 25.0139C62.5108 25.0701 63.5064 25.2967 64.4442 25.6851C65.5361 26.1374 66.5282 26.8003 67.364 27.636C68.1997 28.4718 68.8626 29.4639 69.3149 30.5558C69.7672 31.6478 70 32.8181 70 34C70 35.1819 69.7672 36.3522 69.3149 37.4442C68.8626 38.5361 68.1997 39.5282 67.364 40.364C66.5282 41.1997 65.5361 41.8626 64.4442 42.3149Z" stroke="#FFC100" stroke-width="4"/>
</svg>
