<svg width="30" height="30" viewBox="0 0 30 30" fill="none" xmlns="http://www.w3.org/2000/svg">
<path d="M23.4392 2.00001C24.0386 1.99858 24.6324 2.11561 25.1864 2.34438C25.7405 2.57314 26.2439 2.90913 26.6677 3.33304C27.0915 3.75696 27.4274 4.26043 27.656 4.81455C27.8847 5.36866 28.0016 5.9625 28 6.56192L23.4392 2.00001ZM23.4392 2.00001H6.56084H23.4392ZM6.55905 2.75001H6.56084L23.4392 2.75002L23.4409 2.75001C23.9416 2.74882 24.4375 2.84656 24.9002 3.03761C25.363 3.22867 25.7834 3.50928 26.1373 3.86331C26.4913 4.21735 26.7718 4.63783 26.9627 5.10061C27.1537 5.56339 27.2513 6.05934 27.25 6.55996V6.56192V10.679C26.6686 10.7272 26.0273 10.8786 25.5159 11.1351C24.8276 11.4594 24.2228 11.9371 23.748 12.5318C23.3589 13.0145 23.0511 13.5714 22.8255 14.1789L22.8244 10.3193H22.8274V9.56926C22.8274 9.20728 22.902 9.13203 22.9093 9.12467L22.9097 9.12428C22.9384 9.09414 23.0327 9.02487 23.3895 8.94342L23.4041 8.94034L23.9996 8.81499V8.20642V8.04826V7.29826H23.2496H19.0636H18.5677L18.3735 7.75455L15.1746 15.2706L11.9776 7.75468L11.7834 7.29826H11.2874H6.77534H6.03046L6.02536 8.04312L6.02428 8.20129L6.02013 8.80716L6.61159 8.93857L6.62799 8.94221C6.6285 8.94232 6.62901 8.94244 6.62952 8.94256C6.99019 9.02443 7.08527 9.09418 7.11416 9.12447C7.11426 9.12457 7.11438 9.1247 7.11454 9.12486C7.1218 9.13217 7.19642 9.2073 7.19642 9.56926V20.4318C7.19642 20.792 7.12186 20.8669 7.11434 20.8745C7.11417 20.8747 7.11403 20.8748 7.11393 20.8749C7.08449 20.9057 6.98908 20.9751 6.6322 21.0566L6.61764 21.0597L6.02209 21.185V21.7936V21.9528V22.7028H6.77209H9.83575H10.5858V21.9528V21.7936V21.1787L9.98279 21.0581L9.97051 21.0557C9.61649 20.9751 9.52299 20.9062 9.49464 20.8765L9.49427 20.8761C9.48717 20.869 9.41251 20.7939 9.41251 20.4318V13.8822L12.9664 22.2451L13.1605 22.7017H13.6567H13.9394H14.4353L14.6295 22.2454L18.3298 13.5503V20.6618C18.308 20.8615 18.2593 20.9011 18.2499 20.9087C18.2495 20.909 18.2491 20.9093 18.2489 20.9096C18.2074 20.946 18.0971 21.0095 17.7731 21.0825L17.7601 21.0854L17.7471 21.0889L17.7265 21.0943L17.1674 21.2414V21.8196V21.9767V22.7267H17.9174H23.2507H24.0007V21.9767V21.8196V21.5428C24.8165 22.4075 25.9178 22.9499 27.25 23.0192L27.25 23.4392L27.25 23.4409C27.2512 23.9415 27.1535 24.4373 26.9625 24.9C26.7715 25.3627 26.4909 25.7831 26.137 26.137C25.7831 26.4909 25.3627 26.7715 24.9 26.9625C24.4373 27.1535 23.9415 27.2512 23.4409 27.25H23.4392L6.56084 27.25L6.55905 27.25C6.05851 27.2512 5.56266 27.1535 5.09999 26.9625C4.63731 26.7715 4.21693 26.4909 3.86299 26.137C3.50905 25.7831 3.22853 25.3627 3.03753 24.9C2.84653 24.4373 2.74882 23.9415 2.75001 23.4409V23.4392L2.75002 6.56084L2.75001 6.55905C2.74882 6.05851 2.84653 5.56266 3.03753 5.09999C3.22853 4.63731 3.50905 4.21693 3.86299 3.86299C4.21693 3.50905 4.63731 3.22853 5.09999 3.03753C5.56266 2.84653 6.05851 2.74882 6.55905 2.75001ZM27.25 12.915V14.6562H26.4906C26.5746 14.1152 26.7166 13.6757 26.8942 13.3563C27.0113 13.1457 27.1312 13.0053 27.25 12.915ZM27.25 16.7066V18.5826C26.8063 18.135 26.4788 17.4854 26.3831 16.7066H27.25ZM22.8274 20.6626L22.8271 19.6089C23.0335 20.1662 23.3092 20.6814 23.6555 21.1357L23.3978 21.0841L23.3859 21.0818C23.068 21.0089 22.9545 20.9456 22.9097 20.9067C22.9093 20.9064 22.9089 20.906 22.9083 20.9056C22.897 20.8963 22.8488 20.8568 22.8274 20.6626Z" stroke="url(#paint0_linear_321_202)" stroke-width="1.5"/>
<defs>
<linearGradient id="paint0_linear_321_202" x1="2" y1="15" x2="28" y2="15" gradientUnits="userSpaceOnUse">
<stop stop-color="#FFC100"/>
<stop offset="1" stop-color="#FF9D00"/>
</linearGradient>
</defs>
</svg>