<svg width="34" height="31" viewBox="0 0 34 31" fill="none" xmlns="http://www.w3.org/2000/svg">
<g clip-path="url(#clip0_269_128)">
<rect width="34" height="30" transform="translate(0 0.222168)" fill="white"/>
<g clip-path="url(#clip1_269_128)">
<rect width="38" height="38" transform="translate(-2 -3.77783)" fill="white"/>
<path d="M16.5648 18.7109L17.0193 19.7794L15.2436 23.9518L8.42776 7.91309L7.44093 8.11408V7.28492C7.44093 6.72835 7.35755 6.23078 7.13539 5.81193H11.0779L16.5648 18.7109ZM7.21363 24.4675C7.23785 24.5243 7.26426 24.5798 7.29301 24.634H7.13392C7.16278 24.5798 7.18931 24.5243 7.21363 24.4675ZM23.435 5.81193H26.8994C26.7826 6.03211 26.7042 6.27407 26.6561 6.53492H26.5889L26.5892 7.28514L26.5939 23.5523L26.5939 23.5854L26.5968 23.6184C26.6317 24.0109 26.7235 24.363 26.8869 24.6688H23.4224C23.5849 24.3617 23.6752 24.0087 23.7099 23.6167L23.7128 23.5837V23.5505V7.72826L22.7067 7.52308L23.435 5.81193ZM33.188 11.2284C33.2193 11.2125 33.2515 11.1969 33.2843 11.1817C33.091 11.4045 32.9196 11.6542 32.7704 11.9226C32.2073 12.9353 31.905 14.2895 31.8386 15.7826L31.8347 15.8702H31.8018L31.7615 16.5776C31.6005 19.4047 33.0224 21.9514 35.25 22.9005V25.1069C33.4825 25.0848 32.1306 24.347 31.1886 23.1605C30.2177 21.9377 29.6535 20.1967 29.6059 18.193C29.6014 17.8429 29.6123 17.4928 29.6386 17.1436C29.7766 15.3855 30.3398 13.8681 31.2242 12.7718L31.2267 12.7686C31.7472 12.1161 32.4113 11.5924 33.1672 11.2385L33.1777 11.2336L33.188 11.2284Z" fill="white" stroke="url(#paint0_linear_269_128)" stroke-width="1.5"/>
</g>
</g>
<defs>
<linearGradient id="paint0_linear_269_128" x1="-2" y1="15.2222" x2="36" y2="15.2222" gradientUnits="userSpaceOnUse">
<stop stop-color="#FFDF41"/>
<stop offset="1" stop-color="#FF8800"/>
</linearGradient>
<clipPath id="clip0_269_128">
<rect width="34" height="30" fill="white" transform="translate(0 0.222168)"/>
</clipPath>
<clipPath id="clip1_269_128">
<rect width="38" height="38" fill="white" transform="translate(-2 -3.77783)"/>
</clipPath>
</defs>
</svg>