<svg width="40" height="40" viewBox="0 0 40 40" fill="none" xmlns="http://www.w3.org/2000/svg">
<path d="M28.4392 7.00001C29.0386 6.99858 29.6324 7.11561 30.1864 7.34438C30.7405 7.57314 31.2439 7.90913 31.6677 8.33304C32.0915 8.75696 32.4274 9.26043 32.656 9.81455C32.8847 10.3687 33.0016 10.9625 33 11.5619L28.4392 7.00001ZM28.4392 7.00001H11.5608H28.4392ZM11.5591 7.75001H11.5608L28.4392 7.75002L28.4409 7.75001C28.9416 7.74882 29.4375 7.84656 29.9002 8.03761C30.363 8.22867 30.7834 8.50928 31.1373 8.86331C31.4913 9.21735 31.7718 9.63783 31.9627 10.1006C32.1537 10.5634 32.2513 11.0593 32.25 11.56V11.5619V15.679C31.6686 15.7272 31.0273 15.8786 30.5159 16.1351C29.8276 16.4594 29.2228 16.9371 28.748 17.5318C28.3589 18.0145 28.0511 18.5714 27.8255 19.1789L27.8244 15.3193H27.8274V14.5693C27.8274 14.2073 27.902 14.132 27.9093 14.1247L27.9097 14.1243C27.9384 14.0941 28.0327 14.0249 28.3895 13.9434L28.4041 13.9403L28.9996 13.815V13.2064V13.0483V12.2983H28.2496H24.0636H23.5677L23.3735 12.7545L20.1746 20.2706L16.9776 12.7547L16.7834 12.2983H16.2874H11.7753H11.0305L11.0254 13.0431L11.0243 13.2013L11.0201 13.8072L11.6116 13.9386L11.628 13.9422C11.6285 13.9423 11.629 13.9424 11.6295 13.9426C11.9902 14.0244 12.0853 14.0942 12.1142 14.1245C12.1143 14.1246 12.1144 14.1247 12.1145 14.1249C12.1218 14.1322 12.1964 14.2073 12.1964 14.5693V25.4318C12.1964 25.792 12.1219 25.8669 12.1143 25.8745C12.1142 25.8747 12.114 25.8748 12.1139 25.8749C12.0845 25.9057 11.9891 25.9751 11.6322 26.0566L11.6176 26.0597L11.0221 26.185V26.7936V26.9528V27.7028H11.7721H14.8358H15.5858V26.9528V26.7936V26.1787L14.9828 26.0581L14.9705 26.0557C14.6165 25.9751 14.523 25.9062 14.4946 25.8765L14.4943 25.8761C14.4872 25.869 14.4125 25.7939 14.4125 25.4318V18.8822L17.9664 27.2451L18.1605 27.7017H18.6567H18.9394H19.4353L19.6295 27.2454L23.3298 18.5503V25.6618C23.308 25.8615 23.2593 25.9011 23.2499 25.9087C23.2495 25.909 23.2491 25.9093 23.2489 25.9096C23.2074 25.946 23.0971 26.0095 22.7731 26.0825L22.7601 26.0854L22.7471 26.0889L22.7265 26.0943L22.1674 26.2414V26.8196V26.9767V27.7267H22.9174H28.2507H29.0007V26.9767V26.8196V26.5428C29.8165 27.4075 30.9178 27.9499 32.25 28.0192L32.25 28.4392L32.25 28.4409C32.2512 28.9415 32.1535 29.4373 31.9625 29.9C31.7715 30.3627 31.4909 30.7831 31.137 31.137C30.7831 31.4909 30.3627 31.7715 29.9 31.9625C29.4373 32.1535 28.9415 32.2512 28.4409 32.25H28.4392L11.5608 32.25L11.5591 32.25C11.0585 32.2512 10.5627 32.1535 10.1 31.9625C9.63731 31.7715 9.21693 31.4909 8.86299 31.137C8.50905 30.7831 8.22853 30.3627 8.03753 29.9C7.84653 29.4373 7.74882 28.9415 7.75001 28.4409V28.4392L7.75002 11.5608L7.75001 11.5591C7.74882 11.0585 7.84653 10.5627 8.03753 10.1C8.22853 9.63731 8.50905 9.21693 8.86299 8.86299C9.21693 8.50905 9.63731 8.22853 10.1 8.03753C10.5627 7.84653 11.0585 7.74882 11.5591 7.75001ZM32.25 17.915V19.6562H31.4906C31.5746 19.1152 31.7166 18.6757 31.8942 18.3563C32.0113 18.1457 32.1312 18.0053 32.25 17.915ZM32.25 21.7066V23.5826C31.8063 23.135 31.4788 22.4854 31.3831 21.7066H32.25ZM27.8274 25.6626L27.8271 24.6089C28.0335 25.1662 28.3092 25.6814 28.6555 26.1357L28.3978 26.0841L28.3859 26.0818C28.068 26.0089 27.9545 25.9456 27.9097 25.9067C27.9093 25.9064 27.9089 25.906 27.9083 25.9056C27.897 25.8963 27.8488 25.8568 27.8274 25.6626Z" stroke="url(#paint0_linear_606_1120)" stroke-width="1.5"/>
<defs>
<linearGradient id="paint0_linear_606_1120" x1="7" y1="20" x2="33" y2="20" gradientUnits="userSpaceOnUse">
<stop stop-color="#FFC100"/>
<stop offset="1" stop-color="#FF9D00"/>
</linearGradient>
</defs>
</svg>
