<svg width="21" height="14" viewBox="0 0 21 14" fill="none" xmlns="http://www.w3.org/2000/svg">
<path d="M0.211009 0.28459H4.5232L8.238 9.01768L11.9549 0.28459H15.9554V0.435749L15.9358 0.43989C15.2058 0.605545 14.8352 0.850921 14.8352 1.73821H14.8321L14.8352 12.3753C14.8973 13.0752 15.2742 13.2916 15.9358 13.4417L15.9565 13.4458V13.596H10.8595V13.4458L10.8792 13.4407C11.5407 13.2916 11.9083 13.0752 11.9704 12.3743V2.0281L7.05771 13.5721H6.78749L2.01457 2.34078V12.1196C2.01457 13.0068 2.38522 13.2522 3.11514 13.4168L3.13584 13.421V13.5732H0.207903V13.421L0.227574 13.4168C0.957489 13.2512 1.33021 13.0058 1.33021 12.1196V1.73821C1.33021 0.850921 0.95956 0.605545 0.22861 0.43989L0.209973 0.435749L0.211009 0.28459Z" fill="white"/>
<path d="M20.0585 13.8827C20.2043 13.882 20.3501 13.8751 20.4954 13.862V11.605C19.1039 11.196 18.11 9.66063 18.2135 7.84257H20.4954V7.31662H18.2642C18.3471 5.45197 19.0169 4.10603 20.1413 4.08222C20.2609 4.08377 20.3798 4.10011 20.4954 4.13088V3.50968C20.3905 3.50277 20.2859 3.49932 20.1817 3.49932H20.1579C19.6019 3.49932 18.9196 3.63392 18.4351 3.87929C17.8724 4.14275 17.3782 4.53249 16.9908 5.01817C16.3385 5.82677 15.943 6.91905 15.8467 8.14696C15.8283 8.39085 15.8207 8.63543 15.8239 8.87998C15.8892 11.6609 17.3904 13.8827 20.0585 13.8827Z" fill="white"/>
</svg>
