<svg width="36" height="36" viewBox="0 0 36 36" fill="none" xmlns="http://www.w3.org/2000/svg">
<rect x="0.5" y="0.5" width="35" height="35" rx="17.5" stroke="#0A0A0A"/>
<path fill-rule="evenodd" clip-rule="evenodd" d="M17.9995 7C15.9613 7 14.0066 7.8355 12.5654 9.32271C11.1241 10.8099 10.3145 12.827 10.3145 14.9302V15.6506C10.3144 16.3637 10.1098 17.0608 9.72645 17.6541L8.58907 19.4172C7.26625 21.4637 8.27572 24.2449 10.5753 24.8916C11.3243 25.1024 12.0792 25.2808 12.8401 25.4268L12.8421 25.4319C13.6037 27.5316 15.6414 29 17.9995 29C20.3576 29 22.3953 27.5316 23.1579 25.4319L23.1599 25.4268C23.9215 25.28 24.6771 25.1014 25.4247 24.8916C27.7243 24.2449 28.7337 21.4637 27.4109 19.4172L26.2726 17.6541C25.8892 17.0608 25.6846 16.3637 25.6845 15.6506V14.9302C25.6845 12.827 24.8749 10.8099 23.4336 9.32271C21.9924 7.8355 20.0377 7 17.9995 7ZM21.3472 25.7123C19.123 25.9861 16.8751 25.9861 14.6508 25.7123C15.3559 26.757 16.5825 27.4651 17.9995 27.4651C19.4165 27.4651 20.6422 26.757 21.3472 25.7123ZM11.8019 14.9302C11.8019 13.2341 12.4549 11.6074 13.6171 10.408C14.7794 9.20868 16.3558 8.53488 17.9995 8.53488C19.6432 8.53488 21.2196 9.20868 22.3819 10.408C23.5441 11.6074 24.1971 13.2341 24.1971 14.9302V15.6506C24.1971 16.6667 24.4886 17.6603 25.035 18.5055L26.1734 20.2686C26.3498 20.5412 26.4608 20.8531 26.4974 21.1788C26.5339 21.5044 26.4948 21.8343 26.3834 22.1413C26.272 22.4482 26.0915 22.7235 25.8567 22.9442C25.6219 23.165 25.3396 23.325 25.033 23.411C20.4278 24.707 15.5702 24.707 10.965 23.411C10.6586 23.3249 10.3764 23.165 10.1418 22.9443C9.90708 22.7236 9.72661 22.4484 9.61523 22.1416C9.50384 21.8348 9.46474 21.505 9.50115 21.1795C9.53756 20.8541 9.64843 20.5422 9.82462 20.2696L10.965 18.5055C11.5109 17.66 11.8021 16.6666 11.8019 15.6506V14.9302Z" fill="#0A0A0A"/>
</svg>
