<svg width="30" height="31" viewBox="0 0 30 31" fill="none" xmlns="http://www.w3.org/2000/svg">
<rect y="0.222168" width="30" height="30" rx="15" fill="#FFC100"/>
<path d="M19.5193 22.722C18.8656 22.722 17.9473 22.4857 16.5722 21.7176C14.9001 20.78 13.6068 19.9145 11.9437 18.2561C10.3403 16.654 9.55997 15.6167 8.46789 13.6299C7.23416 11.3865 7.44447 10.2106 7.67956 9.70804C7.95953 9.10737 8.37278 8.7481 8.90693 8.39151C9.21033 8.19277 9.53139 8.0224 9.86606 7.88257C9.89955 7.86818 9.93069 7.85445 9.95849 7.84206C10.1243 7.76739 10.3754 7.65456 10.6936 7.77509C10.9059 7.85478 11.0954 8.01784 11.3922 8.31082C12.0006 8.91082 12.8322 10.2471 13.1389 10.9034C13.3449 11.3457 13.4812 11.6376 13.4815 11.9651C13.4815 12.3485 13.2886 12.6441 13.0545 12.9632C13.0107 13.0231 12.9671 13.0804 12.9249 13.136C12.6701 13.4708 12.6142 13.5676 12.651 13.7403C12.7257 14.0876 13.2826 15.1212 14.1979 16.0342C15.1131 16.9473 16.1171 17.469 16.4657 17.5433C16.6459 17.5818 16.7447 17.5235 17.0903 17.2597C17.1399 17.2219 17.1908 17.1827 17.244 17.1435C17.601 16.878 17.883 16.6902 18.2574 16.6902H18.2594C18.5853 16.6902 18.8642 16.8315 19.3264 17.0645C19.9292 17.3685 21.3059 18.1892 21.9097 18.7982C22.2034 19.0942 22.3672 19.283 22.4472 19.495C22.5678 19.8141 22.4542 20.0642 22.3802 20.2316C22.3678 20.2594 22.3541 20.2899 22.3397 20.3237C22.1987 20.6577 22.0273 20.978 21.8277 21.2806C21.4717 21.813 21.111 22.2252 20.5089 22.5054C20.1997 22.6516 19.8613 22.7257 19.5193 22.722Z" fill="white"/>
</svg>
