<svg width="22" height="22" viewBox="0 0 22 22" fill="none" xmlns="http://www.w3.org/2000/svg">
<path d="M7.1729 11.9166L11.6646 16.4082C11.8479 16.5916 11.9359 16.8055 11.9286 17.0499C11.9212 17.2943 11.8256 17.5082 11.6417 17.6916C11.4583 17.8596 11.2444 17.9476 11 17.9556C10.7555 17.9635 10.5417 17.8755 10.3583 17.6916L4.30832 11.6416C4.21665 11.5499 4.15157 11.4506 4.11307 11.3437C4.07457 11.2367 4.05593 11.1221 4.05715 10.9999C4.05838 10.8777 4.07763 10.7631 4.1149 10.6562C4.15218 10.5492 4.21696 10.4499 4.30924 10.3582L10.3592 4.30824C10.5273 4.14018 10.7375 4.05615 10.9899 4.05615C11.2423 4.05615 11.4598 4.14018 11.6426 4.30824C11.8259 4.49157 11.9176 4.70943 11.9176 4.96182C11.9176 5.21421 11.8259 5.43176 11.6426 5.61449L7.1729 10.0832H17.4167C17.6764 10.0832 17.8942 10.1712 18.0702 10.3472C18.2462 10.5232 18.3339 10.7408 18.3333 10.9999C18.3327 11.259 18.2447 11.4769 18.0693 11.6535C17.8939 11.8301 17.6764 11.9178 17.4167 11.9166H7.1729Z" fill="white"/>
</svg>
