<svg width="26" height="26" viewBox="0 0 26 26" fill="none" xmlns="http://www.w3.org/2000/svg">
<path d="M9.43579 8.35255L11.9166 5.86088V16.2501C11.9166 16.5374 12.0308 16.8129 12.2339 17.0161C12.4371 17.2192 12.7126 17.3334 13 17.3334C13.2873 17.3334 13.5628 17.2192 13.766 17.0161C13.9692 16.8129 14.0833 16.5374 14.0833 16.2501V5.86088L16.5641 8.35255C16.6648 8.45409 16.7847 8.53468 16.9167 8.58968C17.0487 8.64468 17.1903 8.673 17.3333 8.673C17.4763 8.673 17.6179 8.64468 17.7499 8.58968C17.8819 8.53468 18.0017 8.45409 18.1025 8.35255C18.204 8.25184 18.2846 8.13202 18.3396 8.00001C18.3946 7.86799 18.4229 7.7264 18.4229 7.58338C18.4229 7.44037 18.3946 7.29877 18.3396 7.16676C18.2846 7.03475 18.204 6.91493 18.1025 6.81422L13.7691 2.48088C13.6661 2.38226 13.5446 2.30494 13.4116 2.25338C13.1479 2.14503 12.852 2.14503 12.5883 2.25338C12.4553 2.30494 12.3338 2.38226 12.2308 2.48088L7.89746 6.81422C7.79645 6.91523 7.71633 7.03514 7.66166 7.16711C7.607 7.29909 7.57886 7.44054 7.57886 7.58338C7.57886 7.72623 7.607 7.86768 7.66166 7.99965C7.71633 8.13163 7.79645 8.25154 7.89746 8.35255C7.99847 8.45356 8.11838 8.53368 8.25036 8.58835C8.38233 8.64301 8.52378 8.67115 8.66663 8.67115C8.80947 8.67115 8.95092 8.64301 9.0829 8.58835C9.21487 8.53368 9.33478 8.45356 9.43579 8.35255ZM22.75 15.1667C22.4626 15.1667 22.1871 15.2809 21.9839 15.484C21.7808 15.6872 21.6666 15.9627 21.6666 16.2501V20.5834C21.6666 20.8707 21.5525 21.1463 21.3493 21.3494C21.1462 21.5526 20.8706 21.6667 20.5833 21.6667H5.41663C5.12931 21.6667 4.85376 21.5526 4.65059 21.3494C4.44743 21.1463 4.33329 20.8707 4.33329 20.5834V16.2501C4.33329 15.9627 4.21916 15.6872 4.01599 15.484C3.81283 15.2809 3.53728 15.1667 3.24996 15.1667C2.96264 15.1667 2.68709 15.2809 2.48393 15.484C2.28076 15.6872 2.16663 15.9627 2.16663 16.2501V20.5834C2.16663 21.4453 2.50904 22.272 3.11853 22.8815C3.72802 23.491 4.55467 23.8334 5.41663 23.8334H20.5833C21.4452 23.8334 22.2719 23.491 22.8814 22.8815C23.4909 22.272 23.8333 21.4453 23.8333 20.5834V16.2501C23.8333 15.9627 23.7192 15.6872 23.516 15.484C23.3128 15.2809 23.0373 15.1667 22.75 15.1667Z" fill="white"/>
</svg>
