<svg width="40" height="40" viewBox="0 0 40 40" fill="none" xmlns="http://www.w3.org/2000/svg">
<rect width="40" height="40" fill="white"/>
<path d="M15.9825 9.74933L15.7646 9.83997C13.4346 10.8093 11.5086 12.5551 10.3118 14.7838C9.11492 17.0125 8.7209 19.5873 9.19642 22.0738C9.67194 24.5603 10.9877 26.8057 12.9212 28.4315C14.8528 30.0558 17.2829 30.9626 19.8022 31H20.1181H20.119L30.8292 30.99H30.8302C30.8805 30.99 30.9069 30.9768 30.924 30.9648C30.9456 30.9496 30.9688 30.9231 30.9844 30.8855C31 30.848 31.0025 30.8122 30.9979 30.7851C30.9942 30.7635 30.9844 30.7345 30.9484 30.6981L15.9825 9.74933ZM15.9825 9.74933C18.1778 8.89191 20.5923 8.76599 22.8677 9.39387C25.2194 10.0428 27.2887 11.4601 28.7478 13.422C30.2069 15.384 30.9721 17.7784 30.9219 20.2263C30.8718 22.6742 30.009 25.035 28.4708 26.9351L27.9066 27.632L28.5381 28.2686L30.9482 30.6979L15.9825 9.74933ZM23.0908 12.435L22.9045 12.3564H22.8985C21.9606 11.9851 20.9616 11.7909 19.9519 11.7841C18.8721 11.7769 17.8016 11.9843 16.8022 12.3942C15.8029 12.8042 14.8947 13.4086 14.1298 14.1724C13.365 14.9362 12.7588 15.8442 12.346 16.8439C11.9333 17.8436 11.7221 18.9153 11.7246 19.9972C11.7271 21.0791 11.9433 22.1498 12.3607 23.1476C12.7781 24.1454 13.3885 25.0505 14.1569 25.8107C14.9248 26.5705 15.8352 27.1704 16.8358 27.5757C18.8359 28.3937 21.0777 28.3846 23.0711 27.5502C25.0651 26.7156 26.6476 25.1236 27.4737 23.1232C28.2998 21.1228 28.3027 18.876 27.4818 16.8735C26.6609 14.8709 25.0826 13.2748 23.0908 12.435Z" fill="white" stroke="url(#paint0_linear_606_1126)" stroke-width="2"/>
<defs>
<linearGradient id="paint0_linear_606_1126" x1="8" y1="20" x2="32" y2="20" gradientUnits="userSpaceOnUse">
<stop stop-color="#FFC100"/>
<stop offset="1" stop-color="#FF9D00"/>
</linearGradient>
</defs>
</svg>
