<svg width="30" height="30" viewBox="0 0 30 30" fill="none" xmlns="http://www.w3.org/2000/svg">
<rect width="30" height="30" fill="white"/>
<path d="M10.9825 4.74933L10.7646 4.83997C8.43465 5.80926 6.50855 7.55512 5.31175 9.78378C4.11492 12.0125 3.7209 14.5873 4.19642 17.0738C4.67194 19.5603 5.98775 21.8057 7.9212 23.4315C9.85281 25.0558 12.2829 25.9626 14.8022 26H15.1181H15.119L25.8292 25.99H25.8302C25.8805 25.99 25.9069 25.9768 25.924 25.9648C25.9456 25.9496 25.9688 25.9231 25.9844 25.8855C26 25.848 26.0025 25.8122 25.9979 25.7851C25.9942 25.7635 25.9844 25.7345 25.9484 25.6981L10.9825 4.74933ZM10.9825 4.74933C13.1778 3.89191 15.5923 3.76599 17.8677 4.39387C20.2194 5.0428 22.2887 6.46006 23.7478 8.42198C25.2069 10.384 25.9721 12.7784 25.9219 15.2263C25.8718 17.6742 25.009 20.035 23.4708 21.9351L22.9066 22.632L23.5381 23.2686L25.9482 25.6979L10.9825 4.74933ZM18.0908 7.43495L17.9045 7.35639H17.8985C16.9606 6.98513 15.9616 6.79086 14.9519 6.78409C13.8721 6.77686 12.8016 6.98426 11.8022 7.39424C10.8029 7.80423 9.89467 8.40863 9.12985 9.1724C8.36504 9.93616 7.75882 10.8442 7.34604 11.8439C6.93327 12.8436 6.72208 13.9153 6.72459 14.9972C6.7271 16.0791 6.94326 17.1498 7.36066 18.1476C7.77807 19.1454 8.3885 20.0505 9.15685 20.8107C9.92478 21.5705 10.8352 22.1704 11.8358 22.5757C13.8359 23.3937 16.0777 23.3846 18.0711 22.5502C20.0651 21.7156 21.6476 20.1236 22.4737 18.1232C23.2998 16.1228 23.3027 13.876 22.4818 11.8735C21.6609 9.87088 20.0826 8.27477 18.0908 7.43495Z" fill="white" stroke="url(#paint0_linear_321_208)" stroke-width="2"/>
<defs>
<linearGradient id="paint0_linear_321_208" x1="3" y1="15" x2="27" y2="15" gradientUnits="userSpaceOnUse">
<stop stop-color="#FFC100"/>
<stop offset="1" stop-color="#FF9D00"/>
</linearGradient>
</defs>
</svg>