                        <svg width="30" height="31" viewBox="0 0 30 31" fill="none" xmlns="http://www.w3.org/2000/svg">
<rect width="30" height="30" transform="translate(0 0.222168)" fill="white"/>
<path d="M10.9825 4.9715L10.7646 5.06213C8.43465 6.03143 6.50855 7.77729 5.31175 10.0059C4.11492 12.2347 3.7209 14.8095 4.19642 17.296C4.67194 19.7825 5.98775 22.0279 7.9212 23.6537C9.85281 25.278 12.2829 26.1848 14.8022 26.2222H15.1181H15.119L25.8292 26.2121H25.8302C25.8805 26.2121 25.9069 26.199 25.924 26.187C25.9456 26.1717 25.9688 26.1452 25.9844 26.1077C26 26.0701 26.0025 26.0344 25.9979 26.0073C25.9942 25.9857 25.9844 25.9567 25.9484 25.9203L10.9825 4.9715ZM10.9825 4.9715C13.1778 4.11408 15.5923 3.98816 17.8677 4.61603C20.2194 5.26497 22.2887 6.68223 23.7478 8.64415C25.2069 10.6061 25.9721 13.0006 25.9219 15.4485C25.8718 17.8964 25.009 20.2572 23.4708 22.1573L22.9066 22.8542L23.5381 23.4908L25.9482 25.9201L10.9825 4.9715ZM18.0908 7.65712L17.9045 7.57856H17.8985C16.9606 7.2073 15.9616 7.01303 14.9519 7.00626C13.8721 6.99903 12.8016 7.20643 11.8022 7.61641C10.8029 8.02639 9.89467 8.6308 9.12985 9.39457C8.36504 10.1583 7.75882 11.0663 7.34604 12.066C6.93327 13.0658 6.72208 14.1375 6.72459 15.2194C6.7271 16.3012 6.94326 17.372 7.36066 18.3697C7.77807 19.3675 8.3885 20.2727 9.15685 21.0329C9.92478 21.7927 10.8352 22.3926 11.8358 22.7979C13.8359 23.6159 16.0777 23.6067 18.0711 22.7723C20.0651 21.9378 21.6476 20.3458 22.4737 18.3453C23.2998 16.345 23.3027 14.0981 22.4818 12.0956C21.6609 10.0931 20.0826 8.49693 18.0908 7.65712Z" fill="white" stroke="url(#paint0_linear_269_131)" stroke-width="2"/>
<defs>
<linearGradient id="paint0_linear_269_131" x1="3" y1="15.2222" x2="27" y2="15.2222" gradientUnits="userSpaceOnUse">
<stop stop-color="#FFDF41"/>
<stop offset="1" stop-color="#FF8800"/>
</linearGradient>
</defs>
</svg>