<svg width="22" height="22" viewBox="0 0 22 22" fill="none" xmlns="http://www.w3.org/2000/svg">
<path d="M21 21.0002L16.1744 16.1747M16.1744 16.1747C16.9998 15.3492 17.6546 14.3693 18.1013 13.2908C18.548 12.2123 18.778 11.0564 18.778 9.88911C18.778 8.72177 18.5481 7.56587 18.1013 6.48739C17.6546 5.40892 16.9998 4.42899 16.1744 3.60356C15.349 2.77813 14.3691 2.12336 13.2906 1.67664C12.2121 1.22992 11.0562 1 9.88886 1C8.72153 1 7.56563 1.22992 6.48715 1.67664C5.40867 2.12336 4.42875 2.77813 3.60332 3.60356C1.93628 5.27059 0.999756 7.53157 0.999756 9.88911C0.999756 12.2466 1.93628 14.5076 3.60332 16.1747C5.27035 17.8417 7.53133 18.7782 9.88886 18.7782C12.2464 18.7782 14.5074 17.8417 16.1744 16.1747Z" stroke="#0A0A0A" stroke-width="2" stroke-linecap="round" stroke-linejoin="round"/>
</svg>
