<svg width="22" height="22" viewBox="0 0 22 22" fill="none" xmlns="http://www.w3.org/2000/svg">
<path fill-rule="evenodd" clip-rule="evenodd" d="M11 7.5625C10.0883 7.5625 9.21398 7.92466 8.56932 8.56932C7.92466 9.21398 7.5625 10.0883 7.5625 11C7.5625 11.9117 7.92466 12.786 8.56932 13.4307C9.21398 14.0753 10.0883 14.4375 11 14.4375C11.9117 14.4375 12.786 14.0753 13.4307 13.4307C14.0753 12.786 14.4375 11.9117 14.4375 11C14.4375 10.0883 14.0753 9.21398 13.4307 8.56932C12.786 7.92466 11.9117 7.5625 11 7.5625ZM8.9375 11C8.9375 10.453 9.1548 9.92839 9.54159 9.54159C9.92839 9.1548 10.453 8.9375 11 8.9375C11.547 8.9375 12.0716 9.1548 12.4584 9.54159C12.8452 9.92839 13.0625 10.453 13.0625 11C13.0625 11.547 12.8452 12.0716 12.4584 12.4584C12.0716 12.8452 11.547 13.0625 11 13.0625C10.453 13.0625 9.92839 12.8452 9.54159 12.4584C9.1548 12.0716 8.9375 11.547 8.9375 11Z" fill="#0A0A0A"/>
<path fill-rule="evenodd" clip-rule="evenodd" d="M10.9771 1.14581C10.5692 1.14581 10.2291 1.14581 9.95043 1.16415C9.66554 1.17562 9.38456 1.23448 9.11902 1.33831C8.81308 1.4649 8.53507 1.65051 8.30088 1.88454C8.06669 2.11858 7.88089 2.39646 7.7541 2.70231C7.62118 3.02315 7.58543 3.36231 7.57077 3.73081C7.56913 3.86555 7.53338 3.99767 7.46686 4.11485C7.40033 4.23202 7.3052 4.33044 7.19035 4.4009C7.07194 4.46536 6.93912 4.49875 6.8043 4.49795C6.66948 4.49714 6.53707 4.46218 6.41943 4.39631C6.0931 4.22398 5.78143 4.08556 5.43677 4.03973C5.10855 3.99656 4.77504 4.01846 4.45529 4.10417C4.13553 4.18989 3.83579 4.33775 3.57318 4.53931C3.35079 4.71758 3.15965 4.93165 3.0076 5.17273C2.85177 5.40556 2.68127 5.69981 2.47777 6.05273L2.45485 6.09306C2.25043 6.44598 2.08085 6.74023 1.95802 6.9914C1.82968 7.25356 1.72885 7.51206 1.69218 7.79806C1.60473 8.4608 1.78411 9.13114 2.19085 9.66165C2.4026 9.93756 2.67852 10.1383 2.99018 10.3345C3.10626 10.4033 3.20298 10.5005 3.27128 10.6169C3.33957 10.7333 3.37722 10.8651 3.38068 11C3.37722 11.1349 3.33957 11.2667 3.27128 11.3831C3.20298 11.4995 3.10626 11.5967 2.99018 11.6655C2.67852 11.8616 2.40352 12.0624 2.19085 12.3383C1.98929 12.6009 1.84143 12.9007 1.75571 13.2204C1.66999 13.5402 1.64809 13.8737 1.69127 14.2019C1.72885 14.4879 1.82877 14.7464 1.9571 15.0086C2.08085 15.2597 2.25043 15.554 2.45485 15.9069L2.47777 15.9472C2.68127 16.3001 2.85177 16.5944 3.0076 16.8272C3.16985 17.0683 3.34402 17.2856 3.57318 17.4597C3.83573 17.6614 4.13543 17.8095 4.45519 17.8954C4.77495 17.9812 5.10849 18.0033 5.43677 17.9602C5.78143 17.9144 6.0931 17.7769 6.41943 17.6036C6.53696 17.5379 6.6692 17.5031 6.80384 17.5023C6.93848 17.5015 7.07114 17.5348 7.18943 17.5991C7.30522 17.6686 7.40119 17.7668 7.46812 17.8842C7.53506 18.0015 7.57072 18.1341 7.57168 18.2691C7.58543 18.6376 7.62118 18.9768 7.75502 19.2976C7.8816 19.6036 8.06721 19.8816 8.30125 20.1158C8.53528 20.35 8.81316 20.5358 9.11902 20.6626C9.38485 20.7726 9.65985 20.8156 9.95043 20.8349C10.2291 20.8541 10.5692 20.8541 10.9771 20.8541H11.0229C11.4309 20.8541 11.7709 20.8541 12.0496 20.8358C12.3411 20.8156 12.6152 20.7726 12.881 20.6616C13.187 20.5351 13.465 20.3495 13.6992 20.1154C13.9333 19.8814 14.1191 19.6035 14.2459 19.2976C14.3789 18.9768 14.4146 18.6376 14.4293 18.2691C14.4308 18.1343 14.4664 18.0019 14.533 17.8846C14.5995 17.7672 14.6947 17.6687 14.8097 17.5981C14.9282 17.5338 15.061 17.5006 15.1959 17.5016C15.3307 17.5025 15.463 17.5376 15.5806 17.6036C15.9069 17.776 16.2186 17.9144 16.5633 17.9593C17.226 18.0468 17.8963 17.8674 18.4268 17.4606C18.656 17.2846 18.8302 17.0683 18.9924 16.8272C19.1483 16.5944 19.3188 16.3001 19.5223 15.9472L19.5452 15.9069C19.7496 15.554 19.9192 15.2597 20.042 15.0086C20.1704 14.7464 20.2712 14.487 20.3078 14.2019C20.3953 13.5392 20.2159 12.8688 19.8092 12.3383C19.5974 12.0624 19.3215 11.8616 19.0099 11.6655C18.8938 11.5967 18.7971 11.4995 18.7288 11.3831C18.6605 11.2667 18.6228 11.1349 18.6194 11C18.6194 10.7451 18.7587 10.4921 19.0099 10.3345C19.3215 10.1383 19.5965 9.93756 19.8092 9.66165C20.0107 9.39904 20.1586 9.0993 20.2443 8.77954C20.33 8.45979 20.3519 8.12628 20.3088 7.79806C20.2656 7.51628 20.1757 7.24366 20.0429 6.9914C19.8864 6.68686 19.7204 6.38727 19.5452 6.09306L19.5223 6.05273C19.3548 5.75397 19.1781 5.46049 18.9924 5.17273C18.8403 4.93198 18.6492 4.71823 18.4268 4.54023C18.1643 4.33851 17.8646 4.19048 17.5448 4.10461C17.2251 4.01873 16.8915 3.99669 16.5633 4.03973C16.2186 4.08556 15.9069 4.22306 15.5806 4.39631C15.4631 4.46201 15.3308 4.49689 15.1962 4.49769C15.0616 4.49849 14.9289 4.46519 14.8106 4.4009C14.6954 4.33066 14.5999 4.23234 14.5331 4.11515C14.4662 3.99796 14.4302 3.86572 14.4284 3.73081C14.4146 3.36231 14.3788 3.02315 14.245 2.70231C14.1184 2.39638 13.9328 2.11837 13.6988 1.88418C13.4647 1.64998 13.1869 1.46418 12.881 1.3374C12.6152 1.2274 12.3402 1.18431 12.0496 1.16506C11.7709 1.14581 11.4309 1.14581 11.0229 1.14581H10.9771ZM9.64518 2.6079C9.71577 2.57856 9.82302 2.55198 10.0439 2.5364C10.2704 2.52081 10.5637 2.52081 11 2.52081C11.4364 2.52081 11.7297 2.52081 11.9561 2.5364C12.177 2.55198 12.2843 2.57856 12.3548 2.6079C12.6363 2.72431 12.859 2.94706 12.9754 3.22848C13.0121 3.31648 13.0424 3.4549 13.0543 3.78215C13.0818 4.50815 13.4567 5.20756 14.1222 5.59165C14.7877 5.97573 15.5806 5.95098 16.2232 5.61181C16.5128 5.45873 16.6476 5.41565 16.7429 5.40373C17.0441 5.36393 17.3488 5.44537 17.5899 5.63015C17.6504 5.6769 17.7274 5.75665 17.8512 5.93998C17.9786 6.12881 18.1253 6.38273 18.3434 6.7604C18.5616 7.13806 18.7073 7.3929 18.8073 7.5964C18.9053 7.79531 18.9356 7.90165 18.9448 7.97773C18.9846 8.27891 18.9031 8.58358 18.7183 8.82473C18.6597 8.90081 18.5552 8.99615 18.2784 9.17031C17.6624 9.55715 17.2444 10.2318 17.2444 11C17.2444 11.7681 17.6624 12.4428 18.2784 12.8296C18.5552 13.0038 18.6597 13.0991 18.7183 13.1752C18.9035 13.4163 18.9842 13.7206 18.9448 14.0222C18.9356 14.0983 18.9044 14.2056 18.8073 14.4036C18.7073 14.608 18.5616 14.8619 18.3434 15.2396C18.1253 15.6172 17.9777 15.8711 17.8512 16.06C17.7274 16.2433 17.6504 16.3231 17.5899 16.3698C17.3488 16.5546 17.0441 16.636 16.7429 16.5962C16.6476 16.5843 16.5138 16.5412 16.2232 16.3881C15.5815 16.049 14.7877 16.0233 14.1222 16.4074C13.4567 16.7915 13.0818 17.4918 13.0543 18.2178C13.0424 18.5451 13.0121 18.6835 12.9754 18.7715C12.9178 18.9106 12.8334 19.0371 12.7269 19.1435C12.6204 19.25 12.494 19.3345 12.3548 19.3921C12.2843 19.4214 12.177 19.448 11.9561 19.4636C11.7297 19.4791 11.4364 19.4791 11 19.4791C10.5637 19.4791 10.2704 19.4791 10.0439 19.4636C9.82302 19.448 9.71577 19.4214 9.64518 19.3921C9.50604 19.3345 9.37961 19.25 9.27312 19.1435C9.16664 19.0371 9.08219 18.9106 9.0246 18.7715C8.98793 18.6835 8.95768 18.5451 8.94577 18.2178C8.91827 17.4918 8.54335 16.7924 7.87785 16.4083C7.21235 16.0242 6.41943 16.049 5.77685 16.3881C5.48718 16.5412 5.35243 16.5843 5.2571 16.5962C4.95592 16.636 4.65125 16.5546 4.4101 16.3698C4.3496 16.3231 4.2726 16.2433 4.14885 16.06C3.97641 15.7916 3.81225 15.518 3.6566 15.2396C3.43843 14.8619 3.29268 14.6071 3.19277 14.4036C3.09468 14.2046 3.06443 14.0983 3.05527 14.0222C3.01547 13.721 3.09691 13.4164 3.28168 13.1752C3.34035 13.0991 3.44485 13.0038 3.72168 12.8296C4.33768 12.4428 4.75568 11.7681 4.75568 11C4.75568 10.2318 4.33768 9.55715 3.72168 9.17031C3.44485 8.99615 3.34035 8.90081 3.28168 8.82473C3.09691 8.58358 3.01547 8.27891 3.05527 7.97773C3.06443 7.90165 3.0956 7.7944 3.19277 7.5964C3.29268 7.39198 3.43843 7.13806 3.6566 6.7604C3.87477 6.38273 4.02235 6.12881 4.14885 5.93998C4.2726 5.75665 4.3496 5.6769 4.4101 5.63015C4.65125 5.44537 4.95592 5.36393 5.2571 5.40373C5.35243 5.41565 5.48627 5.45873 5.77685 5.61181C6.41852 5.95098 7.21235 5.97665 7.87785 5.59165C8.54335 5.20756 8.91827 4.50815 8.94577 3.78215C8.95768 3.4549 8.98793 3.31648 9.0246 3.22848C9.14102 2.94706 9.36377 2.72431 9.64518 2.6079Z" fill="#0A0A0A"/>
</svg>
