<svg width="23" height="22" viewBox="0 0 23 22" fill="none" xmlns="http://www.w3.org/2000/svg">
<path d="M8.48418 7.06749L10.5833 4.95915V13.75C10.5833 13.9931 10.6799 14.2263 10.8518 14.3982C11.0237 14.5701 11.2569 14.6667 11.5 14.6667C11.7431 14.6667 11.9763 14.5701 12.1482 14.3982C12.3201 14.2263 12.4167 13.9931 12.4167 13.75V4.95915L14.5158 7.06749C14.6011 7.1534 14.7024 7.2216 14.8141 7.26814C14.9259 7.31467 15.0457 7.33863 15.1667 7.33863C15.2877 7.33863 15.4075 7.31467 15.5192 7.26814C15.6309 7.2216 15.7323 7.1534 15.8175 7.06749C15.9034 6.98227 15.9716 6.88089 16.0182 6.76918C16.0647 6.65748 16.0887 6.53766 16.0887 6.41665C16.0887 6.29564 16.0647 6.17583 16.0182 6.06412C15.9716 5.95242 15.9034 5.85104 15.8175 5.76582L12.1508 2.09915C12.0637 2.0157 11.9609 1.95028 11.8483 1.90665C11.6252 1.81497 11.3748 1.81497 11.1517 1.90665C11.0392 1.95028 10.9364 2.0157 10.8492 2.09915L7.18251 5.76582C7.09704 5.85129 7.02924 5.95275 6.98299 6.06442C6.93673 6.17609 6.91293 6.29578 6.91293 6.41665C6.91293 6.53752 6.93673 6.65721 6.98299 6.76888C7.02924 6.88055 7.09704 6.98202 7.18251 7.06749C7.26798 7.15296 7.36944 7.22075 7.48111 7.26701C7.59278 7.31326 7.71247 7.33707 7.83334 7.33707C7.95421 7.33707 8.0739 7.31326 8.18557 7.26701C8.29724 7.22075 8.39871 7.15296 8.48418 7.06749ZM19.75 12.8333C19.5069 12.8333 19.2737 12.9299 19.1018 13.1018C18.9299 13.2737 18.8333 13.5069 18.8333 13.75V17.4167C18.8333 17.6598 18.7368 17.8929 18.5649 18.0648C18.393 18.2367 18.1598 18.3333 17.9167 18.3333H5.08334C4.84023 18.3333 4.60707 18.2367 4.43516 18.0648C4.26325 17.8929 4.16668 17.6598 4.16668 17.4167V13.75C4.16668 13.5069 4.0701 13.2737 3.89819 13.1018C3.72628 12.9299 3.49313 12.8333 3.25001 12.8333C3.0069 12.8333 2.77374 12.9299 2.60183 13.1018C2.42992 13.2737 2.33334 13.5069 2.33334 13.75V17.4167C2.33334 18.146 2.62307 18.8455 3.1388 19.3612C3.65452 19.8769 4.354 20.1667 5.08334 20.1667H17.9167C18.646 20.1667 19.3455 19.8769 19.8612 19.3612C20.3769 18.8455 20.6667 18.146 20.6667 17.4167V13.75C20.6667 13.5069 20.5701 13.2737 20.3982 13.1018C20.2263 12.9299 19.9931 12.8333 19.75 12.8333Z" fill="#FF9D00"/>
</svg>
