                        <svg width="28" height="20" viewBox="0 0 28 20" fill="none" xmlns="http://www.w3.org/2000/svg">
<path d="M27.125 10.1401C27.125 10.0757 27.125 10.0024 27.1221 9.91748C27.1191 9.68018 27.1133 9.41357 27.1074 9.12939C27.084 8.31201 27.043 7.49756 26.9785 6.72998C26.8906 5.67236 26.7617 4.79053 26.5859 4.12842C26.4004 3.43745 26.0368 2.80727 25.5315 2.30087C25.0261 1.79447 24.3966 1.42958 23.7061 1.24268C22.877 1.02002 21.2539 0.882324 18.9688 0.797363C17.8818 0.756348 16.7187 0.72998 15.5557 0.715332C15.1484 0.709472 14.7705 0.706543 14.4307 0.703613H13.5693C13.2295 0.706543 12.8516 0.709472 12.4443 0.715332C11.2812 0.72998 10.1182 0.756348 9.03125 0.797363C6.74609 0.885254 5.12012 1.02295 4.29395 1.24268C3.60313 1.42912 2.97345 1.79385 2.468 2.30033C1.96256 2.8068 1.5991 3.43722 1.41406 4.12842C1.23535 4.79053 1.10938 5.67236 1.02148 6.72998C0.957031 7.49756 0.916016 8.31201 0.892578 9.12939C0.883789 9.41357 0.880859 9.68018 0.87793 9.91748C0.87793 10.0024 0.875 10.0757 0.875 10.1401V10.3042C0.875 10.3687 0.875 10.4419 0.87793 10.5269C0.880859 10.7642 0.886719 11.0308 0.892578 11.3149C0.916016 12.1323 0.957031 12.9468 1.02148 13.7144C1.10938 14.772 1.23828 15.6538 1.41406 16.3159C1.78906 17.7192 2.89062 18.8267 4.29395 19.2017C5.12012 19.4243 6.74609 19.562 9.03125 19.647C10.1182 19.688 11.2812 19.7144 12.4443 19.729C12.8516 19.7349 13.2295 19.7378 13.5693 19.7407H14.4307C14.7705 19.7378 15.1484 19.7349 15.5557 19.729C16.7187 19.7144 17.8818 19.688 18.9688 19.647C21.2539 19.5591 22.8799 19.4214 23.7061 19.2017C25.1094 18.8267 26.2109 17.7222 26.5859 16.3159C26.7646 15.6538 26.8906 14.772 26.9785 13.7144C27.043 12.9468 27.084 12.1323 27.1074 11.3149C27.1162 11.0308 27.1191 10.7642 27.1221 10.5269C27.1221 10.4419 27.125 10.3687 27.125 10.3042V10.1401ZM25.0156 10.2925C25.0156 10.354 25.0156 10.4214 25.0127 10.5005C25.0098 10.729 25.0039 10.981 24.998 11.2534C24.9775 12.0327 24.9365 12.812 24.875 13.5356C24.7959 14.479 24.6846 15.2524 24.5469 15.771C24.3652 16.4478 23.832 16.9839 23.1582 17.1626C22.543 17.3267 20.9932 17.4585 18.8867 17.5376C17.8203 17.5786 16.6719 17.605 15.5264 17.6196C15.125 17.6255 14.7529 17.6284 14.4189 17.6284H13.5811L12.4736 17.6196C11.3281 17.605 10.1826 17.5786 9.11328 17.5376C7.00684 17.4556 5.4541 17.3267 4.8418 17.1626C4.16797 16.981 3.63477 16.4478 3.45312 15.771C3.31543 15.2524 3.2041 14.479 3.125 13.5356C3.06348 12.812 3.02539 12.0327 3.00195 11.2534C2.99316 10.981 2.99023 10.7261 2.9873 10.5005C2.9873 10.4214 2.98438 10.3511 2.98438 10.2925V10.1519C2.98438 10.0903 2.98438 10.0229 2.9873 9.94385C2.99023 9.71533 2.99609 9.46338 3.00195 9.19092C3.02246 8.41162 3.06348 7.63232 3.125 6.90869C3.2041 5.96533 3.31543 5.19189 3.45312 4.67334C3.63477 3.99658 4.16797 3.46045 4.8418 3.28174C5.45703 3.11768 7.00684 2.98584 9.11328 2.90674C10.1797 2.86572 11.3281 2.83936 12.4736 2.82471C12.875 2.81885 13.2471 2.81592 13.5811 2.81592H14.4189L15.5264 2.82471C16.6719 2.83936 17.8174 2.86572 18.8867 2.90674C20.9932 2.98877 22.5459 3.11768 23.1582 3.28174C23.832 3.46338 24.3652 3.99658 24.5469 4.67334C24.6846 5.19189 24.7959 5.96533 24.875 6.90869C24.9365 7.63232 24.9746 8.41162 24.998 9.19092C25.0068 9.46338 25.0098 9.71826 25.0127 9.94385C25.0127 10.0229 25.0156 10.0933 25.0156 10.1519V10.2925ZM11.3926 14.1479L18.1895 10.1929L11.3926 6.29639V14.1479Z" fill="url(#paint0_linear_269_138)"/>
<defs>
<linearGradient id="paint0_linear_269_138" x1="0.875" y1="10.2222" x2="27.125" y2="10.2222" gradientUnits="userSpaceOnUse">
<stop stop-color="#FFDF41"/>
<stop offset="1" stop-color="#FF8800"/>
</linearGradient>
</defs>
</svg>